<?xml version="1.0" encoding="utf-8"?>
<!-- Generator: Adobe Illustrator 19.1.0, SVG Export Plug-In . SVG Version: 6.00 Build 0)  -->
<svg version="1.1" id="Layer_1" xmlns="http://www.w3.org/2000/svg" xmlns:xlink="http://www.w3.org/1999/xlink" x="0px" y="0px"
	 viewBox="0 0 720 648" enable-background="new 0 0 720 648" xml:space="preserve">
<g>
	<path fill="none" stroke="#6D6E71" stroke-linecap="round" stroke-linejoin="round" stroke-miterlimit="10" d="M-7.5,47.6
		c-0.3-0.2-1.9-1.4-1.9-1.4c0,0,1.8,1.7,1.7,1.7c-0.1,0-2.6-2-2.5-1.9c0,0.2,3,2.8,2.8,2.8c-0.2,0-3.7-2.9-3.8-2.8
		c-0.1,0.1,3.5,3.3,3.3,3.3c-0.2,0-4.5-3.4-4.5-3.2c0,0.2,4.7,4.4,4.5,4.5c-0.2,0-5.8-4.5-5.7-4.2c0.1,0.3,6.4,6,6.1,6.1
		c-0.3,0.1-7.6-5.8-7.6-5.6c-0.1,0.3,7.7,7.3,7.2,7.2c-0.5,0-10.3-7.9-10.2-7.4c0.1,0.5,11,10.4,10.6,10.6
		C-8.1,57.5-21,47.1-21,47.7C-21,48.3-7.1,60.8-7.6,61c-0.5,0.2-16.5-12.7-16.6-12C-24.2,49.7-7.3,64.9-8,65.2
		c-0.7,0.2-20.4-15.8-20.4-14.8c0,1,21.4,20.2,20.6,20.6c-0.8,0.4-25.5-19.7-25.5-18.5c0,1.2,26.5,25.1,25.6,25.6
		C-8.6,78.5-38.9,54-38.9,55.4c0,1.4,32.1,30.5,31.2,31.2c-1,0.7-36.9-28.5-36.9-26.8c0,1.7,37.8,35.9,36.7,36.7
		C-9,97.3-51.2,63-51.2,65c0,2,44.5,42.2,43.4,43.4c-1,1.2-49.6-38.3-49.7-36.1c0,2.2,50.5,48,49.5,49.5c-1,1.6-55.5-42.8-55.4-40.3
		c0,2.6,56.4,53.6,55.7,55.7c-0.7,2-59.8-46.2-59.9-43.5c0,2.7,60.1,57.3,59.6,59.6c-0.6,2.3-63.1-48.8-63-45.8
		c0.1,2.9,63.8,60.8,63.5,63.5c-0.4,2.6-65.6-50.7-65.6-47.7c0,3,65.6,62.6,65.7,65.7c0.1,3.1-64.9-50.1-65-47.2
		c-0.1,2.9,63.9,61.1,64.6,64.6c0.7,3.4-58.5-44.7-60.5-44c-2,0.7,47.3,45.4,48.4,48.4c1.2,3.1-38.2-28.8-41.4-30.1
		c-3.2-1.3,20.1,19.7,22.3,22.3c2.1,2.6-8.3-6.2-9.5-6.9c-1.2-0.8,2,1.9,2.2,2.2"/>
	<path fill="none" stroke="#6D6E71" stroke-linecap="round" stroke-linejoin="round" stroke-miterlimit="10" d="M129.3,44.2
		c0,0-0.6-0.5-0.6-0.5C128.6,43.8,129.2,44.3,129.3,44.2c-0.1,0.1-0.7-0.4-0.7-0.4c0,0,0.6,0.5,0.6,0.6c0,0-0.6-0.5-0.6-0.5
		c0,0,0.6,0.5,0.6,0.6c0,0-0.6-0.5-0.6-0.5c0,0,0.7,0.6,0.6,0.5c-0.1-0.1-1.3-1-1.3-0.9c0.1,0.1,1.7,1.6,1.7,1.7
		c0,0-1.9-1.4-1.9-1.4c0,0,1.8,1.7,1.7,1.7c-0.2,0-2.6-2-2.6-1.8c0,0.1,3,2.8,2.8,2.8c-0.2,0-3.8-3-3.8-2.8c0,0.2,4.1,3.9,3.9,3.9
		c-0.2,0-5.1-3.9-5.1-3.7c0,0.2,5.1,4.9,5,5c-0.1,0.1-5.7-4.4-5.7-4.2c0,0.2,5.9,5.6,5.6,5.6c-0.3,0-7.7-5.9-7.6-5.6
		c0,0.4,8.1,7.6,7.8,7.8c-0.3,0.1-9.5-7.4-9.5-6.9c0,0.4,10,9.4,9.5,9.5c-0.5,0-12.7-9.8-12.7-9.3c0,0.6,13.3,12.6,12.8,12.8
		c-0.5,0.2-15.9-12.2-15.9-11.6c-0.1,0.7,16.3,15.4,15.6,15.6c-0.7,0.2-19.8-15.3-19.7-14.3c0,1,20.8,19.7,20,20
		c-0.8,0.3-24.9-19.2-24.8-18.1c0,1.2,26,24.6,25,25c-0.9,0.5-30.5-23.5-30.6-22.2c-0.1,1.3,31,29.4,30.1,30.1
		C128,84,93.2,55.6,93.3,57.4c0.1,1.7,37.2,35.2,36.2,36.2c-1,0.9-42-32.4-42-30.5c0,1.9,42.7,40.6,41.7,41.8S81.4,67.8,81.4,70
		c0,2.2,48.7,46.3,47.9,47.9c-0.8,1.6-52.9-40.8-52.9-38.4c0,2.4,53.7,51.1,52.9,52.9c-0.9,1.8-57.9-44.7-58-42.1
		c0,2.6,58.4,55.6,57.9,57.9c-0.5,2.2-61.2-47.2-61.1-44.4c0,2.8,61.5,58.7,61.2,61.2c-0.3,2.6-63-48.7-63-45.8
		c0,2.9,62.9,60,62.9,62.9c0,2.8-63-48.7-63.1-45.8c0,2.8,62.6,59.8,62.9,62.9c0.3,3.1-61-47-61.1-44.4
		c-0.2,2.6,59.1,56.7,60.1,60.1c1,3.5-50.9-38.5-54.1-39.3c-3.3-0.8,32.8,31.7,34.5,34.5c1.7,2.8-21.6-16-24.2-17.6
		c-2.6-1.5,7.3,7.2,8.3,8.3c1.1,1.2-1.9-1.4-1.9-1.4c0,0,1.6,1.5,1.7,1.7c0.1,0.1-1.2-0.9-1.3-0.9"/>
	<path fill="none" stroke="#6D6E71" stroke-linecap="round" stroke-linejoin="round" stroke-miterlimit="10" d="M480.2,58
		c-0.1-0.1-3.4-3.1-1.3-0.9c2.1,2.2,16.6,15.2,13.9,13.9c-2.7-1.3-31.5-24.7-29.9-21.7c1.6,3,42.4,39.8,39.5,39.5
		c-2.9-0.3-57.4-44.5-56.7-41.2c0.8,3.3,61.3,58.5,61.2,61.2c-0.1,2.7-62.1-48-61.8-44.9c0.3,3.1,63.4,60.5,63.5,63.5
		c0.1,2.9-62.9-48.6-63-45.8c-0.1,2.8,62.4,59.5,62.3,62.3c0,2.8-62-47.8-62.4-45.3c-0.4,2.5,60.1,57.3,60.1,60.1
		c0,2.8-59.2-45.5-59.9-43.5c-0.7,2,55.7,53.2,55.7,55.7c-0.1,2.5-55.2-42.5-56.1-40.7c-0.8,1.7,51.2,48.8,51.2,51.2
		c0,2.4-50.1-38.5-50.9-37c-0.9,1.4,45.7,43.6,45.6,45.6c0,2.1-44.8-34.3-45.9-33.3c-1.1,1,39.5,37.7,39.5,39.5
		c0,1.8-38.5-29.5-39.5-28.7c-1,0.8,33.3,31.8,33.4,33.4c0.1,1.6-32.1-24.6-33.1-24.1c-1,0.5,27.3,26,27.3,27.3
		c0,1.2-26.6-20.4-27.4-19.9c-0.8,0.5,22.8,21.8,22.8,22.8c0,1-22.2-16.9-22.9-16.7c-0.8,0.3,18.4,17.5,18.4,18.4
		c0,0.8-17.8-13.6-18.5-13.4c-0.7,0.2,14.5,13.8,14.5,14.5c0,0.6-14.2-10.8-14.6-10.6c-0.5,0.2,11.7,11.1,11.7,11.7
		c0,0.6-10.9-8.3-11.5-8.3c-0.5,0,8.3,8,8.3,8.4c0,0.4-8.1-6.2-8.3-6c-0.2,0.2,7.2,6.9,7.2,7.2c0,0.4-6.7-5.1-7-5.1
		c-0.3,0,5,4.8,5,5c0,0.2-4.9-3.7-5.1-3.7c-0.2,0,3.9,3.7,3.9,3.9c0,0.2-3.7-2.9-3.8-2.8c-0.1,0.1,3.4,3.2,3.3,3.3
		c-0.1,0.1-3.7-2.8-3.8-2.8c-0.2,0,2.8,2.6,2.8,2.8c0,0.2-2.4-1.8-2.6-1.8c-0.1,0,1.7,1.6,1.7,1.7c0,0-1.9-1.4-1.9-1.4
		c0,0,1.6,1.5,1.7,1.7c0.1,0.1-1.2-0.9-1.3-0.9"/>
	<path fill="none" stroke="#6D6E71" stroke-linecap="round" stroke-linejoin="round" stroke-miterlimit="10" d="M723.8,46.3
		c-0.1-0.1,0.6,0.5,0.6,0.6C724.4,46.8,723.8,46.3,723.8,46.3c-0.1,0.1,0.7,0.8,0.5,0.7c-0.2-0.1-1.8-1.3-1.9-1.4
		c-0.1,0,1.2,1.2,1.1,1.1c-0.1,0-2.1-1.6-1.9-1.4c0.1,0.2,3,2.8,2.8,2.8c-0.2,0-3.9-3.1-3.8-2.8c0.1,0.3,4.7,4.4,4.5,4.5
		c-0.2,0-5.9-4.6-5.7-4.2c0.2,0.4,7.2,6.7,6.7,6.7c-0.5,0-9.8-7.6-9.6-6.9c0.3,0.7,11.8,11.1,11.1,11.1c-0.7,0-15.9-12.4-15.3-11.1
		c0.6,1.3,20.1,18.9,18.9,18.9c-1.2,0-27-21.1-26.1-19c0.9,2.1,33.7,31.7,31.7,31.7c-1.9,0-44.8-34.9-43.3-31.5
		c1.5,3.5,55.6,52.3,52.3,52.3c-3.3,0-74.4-58-72-52.3c2.5,5.8,87.9,83.6,86.8,86.8c-1,3.2-96.1-74.9-93-67.6
		c3.2,7.4,108.6,104.4,111.9,111.9c3.3,7.5-94.1-73.1-92.3-67.1c1.8,6,99.9,96.1,103,103c3,6.9-81-61.7-84.7-61.5
		c-3.7,0.1,60.6,58.2,62.3,62.3c1.8,4.1-49.2-37.5-51.6-37.5c-2.4,0,36.3,34.9,37.3,37.3c1,2.4-29.8-22.7-31.2-22.7
		c-1.4,0,22,21.2,22.8,22.8c0.8,1.6-17-12.9-17.8-13c-0.8,0,12.6,12.1,12.8,12.8c0.2,0.7-10.9-8.3-11.5-8.3c-0.5,0,8,7.7,8.4,8.4
		c0.3,0.6-6.1-4.7-6.4-4.6c-0.2,0.1,4.9,4.7,5,5c0.1,0.3-4.2-3.2-4.5-3.2c-0.3-0.1,2.6,2.6,2.8,2.8c0.1,0.2-1.9-1.4-1.9-1.4
		c0,0,1.7,1.6,1.7,1.7c0,0-1.8-1.3-1.9-1.4c-0.1,0,1,1,1.1,1.1c0.1,0.1-0.6-0.5-0.6-0.5"/>
	<path fill="none" stroke="#6D6E71" stroke-linecap="round" stroke-linejoin="round" stroke-miterlimit="10" d="M353.1,46.8
		c-0.3-0.2-1.8-1.3-1.9-1.4c-0.1,0,1.1,1.1,1.1,1.1c0,0-1.3-1-1.3-0.9c0,0,1.2,1.2,1.1,1.1c-0.1,0-1.9-1.4-1.9-1.4
		c0,0,1.7,1.6,1.7,1.7c0,0-2-1.5-1.9-1.4c0.1,0.1,2.4,2.2,2.2,2.2c-0.2,0-3.1-2.4-3.2-2.3c-0.1,0.1,3,2.8,2.8,2.8
		c-0.2,0-3.8-3-3.8-2.8c0,0.2,4.2,3.9,3.9,3.9c-0.3,0-5.8-4.5-5.7-4.2c0.1,0.3,6.5,6.1,6.1,6.1c-0.4,0-8.2-6.3-8.3-6
		c-0.1,0.3,8.3,7.8,7.8,7.8c-0.5,0-10.9-8.4-10.8-7.9c0,0.5,11.8,11.1,11.1,11.1c-0.7,0-15.2-11.8-15.3-11.1c0,0.7,15.9,15,15,15
		c-0.9,0-20.4-15.8-20.4-14.8c0,1,21.9,20.6,20.6,20.6c-1.3,0-28.6-22.1-28.7-20.8c0,1.3,30.1,28.4,28.4,28.4
		c-1.7,0-38.9-30-38.8-28.2c0,1.8,40.7,38.5,39,39c-1.8,0.5-49.6-38.3-49.7-36.1c0,2.2,48.1,46.2,49.5,49.5
		c1.5,3.3-40.8-31.5-40.8-29.6c0.1,1.9,40.1,38.5,41.2,41.2c1.1,2.7-34.3-26.5-34.4-25c-0.1,1.5,32.9,31.6,34,34
		c1.1,2.3-27.5-21.2-27.4-19.9c0.1,1.3,27,26,27.8,27.8c0.8,1.9-22.9-17.7-22.9-16.7c0,1,22.1,21.3,22.8,22.8
		c0.7,1.6-18.5-14.3-18.5-13.4c0,0.8,17.9,17.2,18.4,18.4c0.5,1.2-15.3-11.8-15.3-11.1c0.1,0.7,15,14.5,15.6,15.6
		c0.6,1.1-12-9.3-12.1-8.8c-0.1,0.5,11.4,11,11.7,11.7c0.3,0.7-10.3-7.9-10.2-7.4c0.1,0.5,10.2,9.8,10.6,10.6c0.4,0.8-8.2-6.3-8.3-6
		c-0.1,0.3,7.7,7.3,7.8,7.8c0.1,0.5-7-5.4-7-5.1c0,0.4,7,6.7,7.2,7.2c0.3,0.5-5.7-4.4-5.7-4.2c0,0.2,5.4,5.2,5.6,5.6
		c0.2,0.4-4.5-3.4-4.5-3.2c0,0.2,4.3,4.2,4.5,4.4c0.1,0.3-3.8-3-3.8-2.8c0,0.2,3.8,3.6,3.9,3.9c0.1,0.3-3.2-2.5-3.2-2.3
		c0,0.2,3.2,3.1,3.3,3.3c0.1,0.3-2.5-1.9-2.6-1.8c0,0.1,2.1,2,2.2,2.2c0.2,0.2-1.3-1.1-1.3-0.9c0.1,0.1,1.7,1.6,1.7,1.7
		c0,0-1.9-1.4-1.9-1.4c0,0,1.7,1.6,1.7,1.7c0,0-2-1.5-1.9-1.4c0.1,0.1,2.2,2.1,2.2,2.2c0.1,0.1-1.9-1.4-1.9-1.4c0,0,1.5,1.5,1.7,1.7
		c0.2,0.2-0.6-0.5-0.6-0.5c0,0,0.6,0.5,0.6,0.6c0,0-0.6-0.5-0.6-0.5c0,0,0.6,0.5,0.6,0.5c0,0-0.7-0.6-0.6-0.5
		c0.1,0.1,1.1,1.1,1.1,1.1c0,0-1.3-1-1.3-0.9c0,0,1.1,1.1,1.1,1.1c0,0-1.2-1-1.3-0.9c0,0,1,1,1.1,1.1"/>
	<path fill="none" stroke="#6D6E71" stroke-linecap="round" stroke-linejoin="round" stroke-miterlimit="10" d="M644,144.3
		c0.1,0.1,1.1,1.1,1.1,1.1c0,0-1.2-1-1.3-0.9c0,0,1.1,1.1,1.1,1.1c0,0-1.2-1-1.3-0.9c0,0,1,1,1.1,1.1c0.1,0.1-0.6-0.5-0.6-0.5
		c0,0,0.6,0.5,0.6,0.6c0,0-0.6-0.5-0.6-0.5c0,0,0.6,0.5,0.6,0.6c0,0-0.7-0.6-0.6-0.5c0.1,0.1,1.2,1.2,1.1,1.1
		c-0.1,0-1.9-1.4-1.9-1.4c0,0,1.7,1.6,1.7,1.7c0,0-1.9-1.4-1.9-1.4c0,0,1.6,1.6,1.7,1.7c0.1,0.1-1.3-1.1-1.3-0.9
		c0.1,0.1,1.8,1.7,1.7,1.7c-0.1,0-2.5-1.9-2.5-1.8c-0.1,0.1,2.3,2.2,2.2,2.2c-0.1,0.1-2.6-2-2.5-1.9c0,0.2,2.8,2.7,2.8,2.8
		c-0.1,0.1-3.2-2.5-3.2-2.3c0,0.2,3.4,3.3,3.3,3.3c-0.1,0.1-3.7-2.9-3.8-2.8c-0.1,0.1,3.4,3.2,3.3,3.3c-0.1,0.1-3.8-3-3.8-2.8
		c0,0.2,3.9,3.7,3.9,3.9c0,0.2-3.8-3-3.8-2.8c0,0.2,4.1,3.9,3.9,3.9c-0.2,0-5.1-3.9-5.1-3.7c0,0.2,5.1,4.9,5,5
		c-0.1,0.1-5.8-4.5-5.7-4.2c0.1,0.3,6.3,6,6.1,6.1c-0.2,0.2-7-5.4-7-5.1c-0.1,0.3,6.7,6.4,6.7,6.7c-0.1,0.3-7-5.4-7-5.1
		c0,0.4,7.4,7,7.2,7.2c-0.2,0.2-8.3-6.4-8.3-6c0,0.4,8.5,8.1,8.4,8.4c-0.2,0.2-9.5-7.4-9.6-6.9c0,0.4,9.7,9.2,9.5,9.5
		c-0.2,0.3-10.8-8.3-10.8-7.9c0,0.4,10.8,10.3,10.6,10.6c-0.3,0.3-12.1-9.4-12.1-8.8c0,0.6,12.4,11.8,12.3,12.2
		c-0.2,0.4-13.4-10.3-13.4-9.7c0,0.6,13.7,13,13.4,13.4c-0.3,0.4-15.3-11.9-15.3-11.1c0.1,0.7,16.1,15.2,15.6,15.6
		c-0.5,0.4-18.4-14.2-18.5-13.4c0,0.8,18.8,17.9,18.4,18.4c-0.4,0.5-20.9-16.2-21-15.3c-0.1,0.9,21,19.9,20.6,20.6
		c-0.4,0.7-23-17.8-22.9-16.7c0.1,1.1,23.9,22.7,23.4,23.4c-0.6,0.7-26.7-20.6-26.8-19.4c0,1.2,27.3,25.9,26.7,26.7
		c-0.5,0.8-29.9-23-29.9-21.7c-0.1,1.3,30.2,28.7,29.5,29.5c-0.7,0.8-32.6-24.9-33.8-24.5c-1.2,0.4,27.4,26,26.7,26.7
		c-0.6,0.7-29.2-22.2-30.6-22.2c-1.4,0,22.7,21.6,22.3,22.3c-0.4,0.7-23.7-18-24.8-18.1c-1.2,0,18.3,17.4,17.8,17.8
		c-0.5,0.4-20.1-15.3-21-15.3c-0.9,0.1,15.9,15.1,15.6,15.6c-0.3,0.5-16.4-12.5-17.2-12.5c-0.8,0,12.4,11.8,12.3,12.2
		c-0.2,0.4-12.8-9.8-13.4-9.7c-0.6,0.1,10.4,9.8,10,10c-0.3,0.2-11.5-8.7-12.1-8.8c-0.6-0.1,8.4,8,8.4,8.4c-0.1,0.3-8.5-6.5-8.9-6.5
		c-0.4,0,6.8,6.5,6.7,6.7c-0.2,0.2-7.3-5.5-7.6-5.5c-0.3,0,5.8,5.5,5.6,5.6c-0.2,0.1-6.7-5.1-7-5.1c-0.3,0,5.1,4.9,5,5
		c-0.1,0.1-5.5-4.2-5.7-4.2c-0.2,0,4.4,4.3,4.4,4.5c0,0.2-4.2-3.2-4.5-3.2c-0.3-0.1,2.9,2.7,2.8,2.8c-0.1,0.1-3.1-2.4-3.2-2.3
		c-0.1,0.1,2.9,2.7,2.8,2.8c-0.1,0.1-3-2.3-3.2-2.3c-0.2,0,2.3,2.2,2.2,2.2c-0.1,0.1-2.4-1.8-2.6-1.9c-0.1,0,1.7,1.6,1.7,1.7
		c0,0-1.9-1.4-1.9-1.4c0,0,1.7,1.6,1.7,1.7c0,0-1.8-1.3-1.9-1.4c-0.1,0,1.1,1.1,1.1,1.1c0,0-1.2-1-1.3-0.9c0,0,1.2,1.2,1.1,1.1
		c-0.1,0-1.8-1.3-1.9-1.4c-0.1,0,1,1,1.1,1.1"/>
	<path fill="none" stroke="#6D6E71" stroke-linecap="round" stroke-linejoin="round" stroke-miterlimit="10" d="M209.6,125.3
		c-6.6,15.3-55.2,53.9-63.1,68.2c-7.8,14.3,16.1,16.9,16,17.3c0,0.4-23.9-2.8-16.2-15c7.7-12.1,55.9-35.1,62.4-57.7
		c6.6-22.6-12.7-62.8-23.1-77.7c-10.4-14.9-34.6-9.1-39.2-11.6c-4.7-2.5,0.9-14.3,11.3-3.4c10.4,10.9,51.7,40.9,51.1,68.9
		c-0.6,28-45.3,82.7-54.6,99.3c-9.3,16.7-0.1,0.7-1.4,0.8c-1.3,0-7.4-0.3-6.3-0.6c1.2-0.3,8.5,25.5,13.3-1.3
		c4.9-26.9,18.1-134.6,15.8-159.8c-2.3-25.2-33.1,4.7-29.4,8.7c3.7,4,40.8,3.4,51.3,15.1c10.6,11.8,12.8,36.7,12.1,55.4
		c-0.7,18.7-5.7,45.1-16.2,56.8c-10.5,11.7-43,10.1-46.9,13.4c-3.9,3.4,23.6,19.6,23.5,6.7c-0.1-12.9-23.6-57.4-24-84
		c-0.4-26.6,21.6-66.4,21.6-75.7c0-9.3-28.4,6.8-21.4,19.7c6.9,13,63.1,38.8,63.1,58.2c0,19.4-56.7,44.6-63.1,58.2
		c-6.4,13.5,24.9,25.3,24.9,22.9c0-2.4-30.2-17-24.9-37.3c5.2-20.3,56.4-68.5,56.4-84.5c0-15.9-54.3-7.8-56.4-11.2
		c-2.1-3.3,41.5-31.5,44-8.7c2.5,22.7-21.5,121.3-28.7,145.2c-7.3,23.9-17-1-14.8-1.9c2.2-0.9,20.4,19.8,28.1-3.7
		c7.7-23.5,22.6-115.5,18-137.4c-4.7-21.9-47.2,3.9-46.1,6c1.2,2.2,42.8-4.9,53.1,6.9c10.2,11.8,17.2,54.7,8.4,64
		c-8.9,9.3-61.9-5.3-61.7-8.1c0.3-2.7,63.2-5.5,63.2-8.3c0-2.8-63-5.5-63.2-8.3c-0.3-2.7,52.8-17.5,61.7-8.1
		c8.9,9.5,1.8,52.8-8.5,64.8c-10.3,12-51.8,4.8-53.1,6.9c-1.3,2.1,40.8,28.1,45.3,5.9c4.5-22.2-10.5-115.9-18.2-138.9
		c-7.6-23.1-27.8,0.3-27.6,0.4c0.3,0.1,23.9-24.8,29.1,0.4c5.2,25.3,7.2,126,2.3,151.1c-4.9,25.1-31.9-0.3-31.5-0.5"/>
	<path fill="none" stroke="#6D6E71" stroke-linecap="round" stroke-linejoin="round" stroke-miterlimit="10" d="M311.9,108
		c5.6,5.6,0.4,0.2,0.5,0.6c0.1,0.4,0.2,1.2,0.4,1.5c0.2,0.3,7.3-9.3,0.8,0.2c-6.5,9.5-43.5,47.6-39.9,56.6c3.6,9,51.5-10.6,61.3-2.8
		c9.9,7.8-1.4,51.9-2.2,49.5c-0.8-2.4,8.4-52.6-2.9-63.7c-11.2-11.1-56.2,14.5-64.5-2.9c-8.3-17.4,8.3-112.3,14.9-101.2
		c6.6,11,18.3,154.6,24.7,167.4c6.3,12.9,21.1-76.8,13.3-90.3c-7.8-13.6-57.8,13.5-60,8.8c-2.1-4.7,46-39.3,47.1-36.9
		c1.1,2.4-42.1,47.2-40.3,51.5c1.8,4.2,48.3-32.8,51.2-26.2c2.9,6.6-37.5,57.1-33.7,65.9c3.8,8.7,50-18.1,56.7-13.5
		c6.6,4.5-2.5,61.9-16.8,40.8c-14.3-21.1-54.8-145.9-68.9-167.4c-14.1-21.5-22.8,34.4-15.9,38.6c6.9,4.2,51.6-26.9,57.5-13.4
		c5.9,13.5-27.9,80.8-21.9,94.3c5.9,13.5,54.7-19.9,57.5-13.4c2.8,6.5-43.5,45.4-40.4,52.3c3.1,6.9,51.8-12.4,58.8-10.8
		c7.1,1.6,0.4,34.1-16.4,20.2c-16.8-14-70.1-86.6-84.3-104c-14.1-17.4-0.5-0.2-0.6-0.5c-0.1-0.3-0.1-1.3-0.3-1.6
		c-0.2-0.3-4.9,10.2-0.8-0.1c4.1-10.3,9.8-79.4,25.5-61.8c15.8,17.6,56.4,142.5,69.1,167.3c12.8,24.9,15.4-18.1,7.5-18.2
		c-7.9-0.1-50,28.4-54.7,17.6c-4.7-10.8,31.3-71.6,26.6-82.4c-4.7-10.8-50.1,28.6-54.7,17.6c-4.6-10.9,33.8-66.6,26.8-83.2
		c-7-16.6-59.5-13.1-68.9-16.4c-9.4-3.2,1.1-4.6,12.3-2.9c11.1,1.7,50.1-2.7,54.4,12.9c4.2,15.6-34.3,68.1-28.9,80.8
		c5.4,12.7,55.3-17.2,61.2-4.8c5.9,12.4-12.5,94-26,79.3c-13.5-14.7-44.2-144.4-54.9-167.6"/>
	<path fill="none" stroke="#6D6E71" stroke-linecap="round" stroke-linejoin="round" stroke-miterlimit="10" d="M428.2,106.2
		c-7.8,11.3-56.1,39.4-57.3,57.3c-1.2,17.9,40.5,42.9,50.1,50.1c9.6,7.1,15.6,3.5,7.2-7.2c-8.3-10.8-57.3-38.2-57.3-57.3
		c0-19.1,55.5-40.1,57.3-57.3c1.9-17.3-36.6-40.4-46.2-46.2c-9.6-5.8-18.8-0.3-11.1,11.1c7.7,11.4,57.3,38.2,57.3,57.3
		c0,19.1-54.8,40.7-57.3,57.3c-2.5,16.6,32.7,37.8,42.3,42.3c9.6,4.6,22.1-3,15-15c-7-12.1-57.3-38.2-57.3-57.3
		c0-19.1,54.2-41.4,57.3-57.3c3.2-16-28.9-35.2-38.4-38.4c-9.6-3.2-25.3,6.2-18.9,18.9c6.4,12.7,57.3,38.2,57.3,57.3
		c0,19.1-53.5,42-57.3,57.3c-3.8,15.3,25,32.6,34.5,34.5c9.6,2,28.6-9.5,22.8-22.8c-5.8-13.4-57.3-38.2-57.3-57.3
		c0-19.1,52.9-42.7,57.3-57.3c4.5-14.7-21.1-30-30.6-30.6c-9.5-0.6-31.8,12.7-26.7,26.7c5.1,14,57.3,38.2,57.3,57.3
		c0,19.1-52.2,43.3-57.3,57.3c-5.1,14,17.2,27.4,26.7,26.7c9.6-0.6,35.1-16,30.6-30.6c-4.4-14.7-57.3-38.2-57.3-57.3
		c0-19.1,51.6-44,57.3-57.3c5.8-13.4-13.3-24.8-22.8-22.8c-9.5,2-38.3,19.2-34.5,34.5c3.8,15.3,57.3,38.2,57.3,57.3
		c0,19.1-50.9,44.6-57.3,57.3c-6.4,12.7,9.4,22.2,18.9,18.9c9.6-3.2,41.6-22.4,38.4-38.4c-3.1-16-57.3-38.2-57.3-57.3
		c0-19.1,50.3-45.3,57.3-57.3c7.1-12.1-5.5-19.6-15-15c-9.6,4.5-44.8,25.7-42.3,42.3c2.5,16.6,57.3,38.2,57.3,57.3
		c0,19.1-49.6,45.9-57.3,57.3c-7.7,11.4,1.6,17,11.1,11.1c9.5-5.8,48-28.9,46.2-46.2c-1.8-17.2-57.3-38.2-57.3-57.3
		c0-19.1,49-46.6,57.3-57.3c8.4-10.8,2.3-14.4-7.2-7.2c-9.6,7.1-51.3,32.2-50.1,50.1c1.2,17.9,57.3,38.2,57.3,57.3
		c0,19.1-48.3,47.2-57.3,57.3"/>
	<path fill="none" stroke="#6D6E71" stroke-linecap="round" stroke-linejoin="round" stroke-miterlimit="10" d="M580.1,62.9
		c-7.7,11.2-56.8,37.8-56.8,56.8c0,18.9,53.4,41.2,56.8,56.8c3.3,15.6-27.3,34-36.7,36.7c-9.5,2.8-26.2-7.2-20-20
		c6.1-12.8,56.8-37.9,56.8-56.8c0-18.9-53-41.6-56.8-56.8c-3.8-15.1,24.5-32.1,34-34c9.5-1.8,28.5,9.6,22.8,22.8
		c-5.7,13.3-56.8,37.9-56.8,56.8s52.5,42.1,56.8,56.8c4.3,14.7-21.7,30.2-31.2,31.2c-9.5,0.9-30.8-11.9-25.6-25.6
		c5.2-13.7,56.8-37.8,56.8-56.8c0-18.9-52-42.6-56.8-56.8c-4.7-14.2,18.9-28.4,28.4-28.4s33.1,14.2,28.4,28.4
		c-4.7,14.2-56.8,37.8-56.8,56.8c0,18.9,51.6,43,56.8,56.8c5.2,13.7-16.1,26.5-25.6,25.6c-9.5-0.9-35.4-16.5-31.2-31.2
		c4.3-14.7,56.8-37.8,56.8-56.8S529,81.7,523.3,68.5c-5.7-13.3,13.4-24.7,22.8-22.8c9.5,1.9,37.8,18.8,34,34
		c-3.8,15.1-56.8,37.8-56.8,56.8c0,18.9,50.7,44,56.8,56.8c6.1,12.8-10.6,22.8-20,20c-9.5-2.8-40.1-21.2-36.7-36.7
		c3.3-15.6,56.8-37.9,56.8-56.8c0-18.9-50.2-44.4-56.8-56.8c-6.6-12.3,7.8-21,17.3-17.3c9.5,3.7,42.4,23.5,39.5,39.5
		c-2.9,16-56.8,37.8-56.8,56.8c0,18.9,49.7,44.9,56.8,56.8c7.1,11.9-5,19.1-14.5,14.5c-9.5-4.6-44.7-25.8-42.3-42.3
		c2.4-16.5,56.8-37.8,56.8-56.8s-49.3-45.4-56.8-56.8c-7.5-11.4,2.2-17.3,11.7-11.7c9.5,5.6,47,28.1,45.1,45.1
		c-1.9,17-56.8,37.8-56.8,56.8c0,18.9,48.8,45.8,56.8,56.8c8,10.9,0.6,15.4-8.9,8.9c-9.5-6.5-49.4-30.4-47.9-47.9
		c1.5-17.4,56.8-37.8,56.8-56.8c0-18.9-48.3-46.3-56.8-56.8c-8.4-10.5-3.3-13.5,6.1-6.1c9.5,7.4,51.7,32.8,50.6,50.7
		c-1,17.9-56.8,37.8-56.8,56.8c0,18.9,47.9,46.8,56.8,56.8c8.9,10,6.1,11.7-3.3,3.3c-9.5-8.4-54-35.1-53.4-53.4
		c0.6-18.4,56.8-37.8,56.8-56.8c0-18.9-47.4-47.2-56.8-56.8c-9.4-9.6-8.9-9.8,0.6-0.6c9.5,9.3,56.3,37.4,56.2,56.2
		c-0.1,18.8-56.4,38.2-56.8,56.8c-0.4,18.6,45.1,45.8,54.6,54.5c9.5,8.7,11.3,7.6,2.2-2.2c-9.1-9.8-56.8-37.8-56.8-56.8
		c0-18.9,55.9-38.7,56.8-56.8"/>
	<path fill="none" stroke="#6D6E71" stroke-linecap="round" stroke-linejoin="round" stroke-miterlimit="10" d="M275,213.6
		c5.2,5,0.6-0.5,0.6-0.6C275.6,213,283.5,219.9,275,213.6c-8.6-6.5-46.4-29.2-50.7-38.8c-4.3-9.7,25.1-21.5,25-19.1
		c-0.1,2.3-24.2,23.5-25.4,33.1c-1.1,9.6,12,24.9,18.7,24.4c6.6-0.5,24.1-22.5,21.1-27.5c-3-5-38.9-1.6-39.3-2.3
		c-0.4-0.7,31.1-7.2,36.9-2.2c5.8,5-1.2,34.1-1.9,32.2c-0.7-1.8,3.3-35.7-2.5-43.2c-5.8-7.5-32-1.3-32.2-1.9
		c-0.3-0.6,29.3-9.3,30.6-1.8c1.4,7.5-17.1,42.2-22.3,46.9c-5.2,4.7-11-7.6-8.8-18.5c2.3-10.9,22.3-39.9,22.3-46.9
		c0-7.1-23.2,2.8-22.4,4.5c0.8,1.6,20.7-4.8,27,5.4c6.4,10.2,8.5,49.8,11.1,55.6c2.5,5.8,10.5-18.8,4.2-20.8
		c-6.4-2.1-43.9,5.4-42.5,8.5c1.4,3.1,42.4,8.1,50.9,10.2c8.6,2.1,0.4,2.1,0.5,2.3c0.1,0.3,0.9-0.8,0.1-0.8c-0.7,0,3.9,2.3-4.6,0.9
		c-8.5-1.4-45.9-6.2-46.3-9.2c-0.4-3,42.4-10.3,44-8.8c1.6,1.5-26.7,15.9-34.1,18c-7.4,2.1-15.3-1.1-10.4-5.5
		c4.9-4.4,35.4-21.9,39.7-21c4.3,0.9-7.4,30.2-14,26.5c-6.6-3.7-24.2-35.5-25.7-48.7c-1.6-13.2,16.2-26.9,16.2-30.6
		c0-3.7-17.9,4.7-16,8.5c1.9,3.8,21.7,2.6,27.1,14.3c5.5,11.8,4.1,52.7,5.7,56.4c1.5,3.7,8.9-29.3,3.5-34.5
		c-5.4-5.1-36.5,2.4-36,3.6c0.5,1.3,32.2-1.2,39.2,3.9c7,5.1,1.9,25.1,2.7,26.6c0.7,1.6,8.8-15.1,1.7-17.2c-7-2.1-44.7,2.9-43.9,4.4
		c0.8,1.5,40.5,2.7,48.6,4.9c8.1,2.1-0.1,7.9-0.2,7.9c-0.1,0,7.8-6.4-0.2-7.9c-8-1.5-47.9-0.8-48-1.3c-0.1-0.4,40.5-2.8,47.2-1.2
		c6.8,1.6,1.2,19.8-6.6,10.7c-7.9-9.1-36.1-51.2-40.7-65.5c-4.6-14.4,12.8-18.6,12.9-20.7c0-2.1-14.4,4.2-12.7,7.9
		c1.7,3.7,18.6,11.2,22.7,14.1c4.1,2.9,1.6,2.7,2.1,3.3c0.5,0.6,0.8-9.8,0.7,0.4c-0.2,10.2-1,61.5-1.6,60.6
		c-0.6-0.9,2.2-55-1.7-66.1c-4-11.1-21.9-0.4-22-0.6c-0.1-0.2,18-11.6,21.2-0.6c3.3,11.1-1.1,68.6-1.8,66.9
		c-0.6-1.7,1.2-64.2-2-77.1c-3.2-12.9-17.2-0.3-17.3-0.5c-0.1-0.1,14.1-13.3,16.5-0.4c2.4,12.9-1.3,79.5-2,77.9
		c-0.7-1.6,0.2-72.7-2.3-87.4c-2.5-14.6-12.5-0.2-12.6-0.3c-0.1-0.1,10.2-14.9,11.8-0.3c1.6,14.6-1.5,90.4-2.3,88.1
		c-0.8-2.2-1.2-84.6-2.7-101.5c-1.5-16.9-6.3-0.1-6.3-0.2c0-0.1,6.3-1.4,6.3-0.2c-0.1,1.3-8.9,2.5-6.6,7.8
		c2.3,5.3,16.9,19.9,20.4,24c3.5,4.1,0.4,0.3,0.6,0.5"/>
	<path fill="none" stroke="#6D6E71" stroke-linecap="round" stroke-linejoin="round" stroke-miterlimit="10" d="M669.8,114
		c0.3,0.3,0.4,0.4,0.6,0.6c0.2,0.2,0.4,0.3,0.6,0.6c0.2,0.2,0.2,0.5,0.4,0.7c0.2,0.2,2.3-3.8,0.7,0.4c-1.6,4.2-13.7,8.5-10.3,24.7
		c3.3,16.2,23.6,64.7,30.4,72.6c6.8,7.9,15.6-24,10.6-25.4c-5-1.4-37.3,12.8-40.7,17c-3.4,4.3,12.5,9,20.3,8.5
		c7.9-0.5,23.1-11.2,26.9-11.3c3.7-0.1,3.3,26.1-4.6,10.9c-7.9-15.2-36.3-84-42.9-102.4c-6.6-18.4,3.3-6.9,3.3-8
		c0.1-1.1-3,0.8-2.9,1.2c0.1,0.5-4.5-16.6,3.6,1.5c8.1,18.2,37.2,90.3,45,107.4c7.8,17.2,10,0.2,1.8-4.4c-8.2-4.5-48-16.6-51-22.9
		c-3-6.3,31.4-19.4,33-14.8c1.6,4.5-17.8,37.9-23.3,42c-5.5,4.1-12.1-6.9-9.6-17.2c2.6-10.3,24.9-36.8,24.8-44.7
		c0-7.9-24.7-1.9-25-2.7c-0.4-0.9,22.7-11.3,22.7-2.5c0,8.8-19.8,44.1-22.7,55.3c-2.9,11.3,0.4,19.5,5.1,12.4
		c4.6-7.2,23.6-48,22.7-55.3c-0.8-7.3-29.7,6.7-27.7,11.4c2.1,4.6,31.9,9.2,40,16.5c8.1,7.3,6.9,23.3,8.5,27
		c1.7,3.8,3.8-4.6,1.4-4.5c-2.4,0.1-7.5,5.9-15.8,5c-8.3-1-35-6.7-33.8-10.6c1.3-3.9,37-14.8,41.3-13c4.3,1.8-8.7,26.3-15.6,23.6
		c-6.9-2.6-25.2-27.6-26-39.4c-0.9-11.8,20.8-26.6,20.8-31.5c0.1-4.9-20.8,1.4-20.4,2.1c0.4,0.7,22.6-9.1,22.7,2.4
		c0.1,11.5-18.5,55.8-22.4,66.4c-3.9,10.6-4.5,8.3-1-3c3.5-11.3,21.8-55.3,21.9-64.9c0-9.6-23,4.4-21.6,7.3
		c1.4,2.9,26.5,0,29.8,10.1c3.3,10-4.9,59-9.9,50.2c-5-8.8-17.2-83.8-20.2-102.7c-3-18.9,2-9.1,2.1-10.8c0.1-1.7-1.5,0.2-1.5,0.3
		c0,0.1-2.4-18.5,1.5,0.3c4,18.8,17,101.3,22.2,112.8c5.1,11.5,12.6-35.7,8.7-44c-4-8.3-31.7-4-32.6-5.7
		c-0.9-1.7,25.8-13.1,27.1-4.7c1.3,8.4-14.6,49.8-19.2,55c-4.6,5.2-10-11-8.3-23.8c1.7-12.8,18.3-45,18.4-52.8
		c0.1-7.8-18.8,3.8-17.8,6.2c1,2.4,16.2-3.4,23.8,8.3c7.6,11.7,17.4,52.8,21.5,61.7c4.1,8.9,6.5-8.2,2.8-8.2
		c-3.6,0.1-16.5,8.5-24.5,8.5c-8.1,0-26.8-4.5-23.8-8.3c3-3.8,36-15.8,41.6-14.5c5.6,1.3-0.8,34.9-7.8,22.3
		c-7-12.6-29.1-80-34.2-98.1c-5.1-18.1,3.5-8.8,3.6-10.4c0.1-1.6-3.2,0.5-3.1,0.7c0.1,0.3-1.2-17.1,3.8,0.9
		c5,18,20.4,94.6,26.1,107.1"/>
	<path fill="none" stroke="#6D6E71" stroke-linecap="round" stroke-linejoin="round" stroke-miterlimit="10" d="M790.3,83.4
		c-2.2,5.7-24,22.9-23.9,23.9c0.1,1.1,28-9,24.3-17.5c-3.7-8.5-38.7-27.7-46.7-33.5c-7.9-5.8-0.7-1-0.9-1.3
		c-0.3-0.3-0.8,1.2-0.6-0.5c0.2-1.6,0.8-11.1,1.6-9.3c0.9,1.8-4.1,15.5,3.6,20.2c7.7,4.6,41.6,5.2,42.6,7.5
		c1,2.3-32.4,11.1-36.4,6.4c-4-4.6,6.1-39.9,12.2-34.1c6.1,5.8,22.1,53.1,24.6,68.9c2.6,15.8-9.2,22.1-9.3,25.9
		c-0.1,3.8,9.5-1.9,8.9-3.2c-0.6-1.3-5.3,10.7-12.6-4.5c-7.3-15.2-25.3-73.9-31-86.7c-5.7-12.8-7.6,9.7-3.4,9.6
		c4.1-0.1,20.3-9.5,28.2-10.1c7.9-0.5,23.1,3.2,19.3,6.9c-3.8,3.7-39.1,16.3-42.2,15.1c-3.1-1.2,16.6-21.2,23.6-22
		c7-0.8,20.5,9.5,18.4,17.2c-2.1,7.7-31.1,27-31.1,29c0,2,34.4-9.5,31-17.1c-3.3-7.5-42.5-23.3-51.1-28.1c-8.6-4.8-0.2-0.7-0.3-0.7
		c-0.1,0-8.8-3-0.3,0.7c8.6,3.7,48.8,15.5,51.6,21.4c2.8,6-31.6,18.1-34.9,14.5c-3.3-3.6,9.3-38.3,15.1-36.4
		c5.8,1.9,19,34.2,19.9,48c0.9,13.8-14.5,28.5-14.5,34.9c0,6.4,14.2,2.2,14.6,3.2c0.4,1-12.3,6.1-12.3,2.7c0-3.4,16.1-8.1,12.2-22.9
		c-3.8-14.8-27.9-57.7-35.2-66c-7.4-8.2-12.7,16.7-8.9,16.7c3.8-0.1,24.7-15.3,31.9-17.1c7.3-1.8,16.3,1.8,11.8,6.3
		c-4.5,4.5-38.9,20.8-38.9,20.8c0,0,34.4-16.2,38.9-20.7c4.5-4.5-4.6-8-11.8-6.3c-7.2,1.7-27.5,16.7-31.3,16.7
		c-3.7,0,1.7-24.7,8.9-16.7c7.2,8,30.7,50,34.4,64.6c3.7,14.6-12.3,20.2-12.2,22.9c0.1,2.7,13.8-3.8,12.5-6.7
		c-1.3-2.9-16.2-7.9-20.2-10.7c-3.9-2.8-2.7-5.1-3.3-6.3c-0.7-1.1-1.9,10.2-0.7-0.4c1.2-10.6,4.3-71.3,8-63.3
		c3.7,8.1,11.5,93,14.1,111.7c2.6,18.6,1.4,0.1,1.6,0.2c0.1,0-0.9,1.8-0.8,0.1c0.1-1.7,3.2,8.6,1.3-10.1
		c-1.9-18.8-9.3-96.6-12.9-102.3c-3.6-5.7-10.7,57.1-8.6,68c2.1,10.9,21.5-1.7,21.1-2.7c-0.4-0.9-19.9,7.9-23.4-3
		c-3.5-10.8,1.5-64,2.3-62.1c0.8,1.8-0.9,60.9,2.7,73.2c3.6,12.3,18.8,0.5,18.9,0.7c0.1,0.2-18.1,9.7-18.1,0.7c0-9,16-42.2,18-54.6
		c1.9-12.3-2.1-25.9-6.4-19.4c-4.3,6.5-20.2,48.1-19.2,58.3c1,10.2,24.6,1.9,25,2.8c0.4,0.9-20.9,12.8-22.7,2.5
		c-1.8-10.3,8-63.9,11.9-64.2c3.9-0.4,10.7,45.4,11.4,61.9c0.8,16.5-6.9,31.2-6.9,37.2c0,6,7.4-0.8,7-1.3"/>
	<path fill="none" stroke="#6D6E71" stroke-linecap="round" stroke-linejoin="round" stroke-miterlimit="10" d="M52.3,187.6
		c-3,5.6-19.2,23.5-25.6,25.6c-6.4,2.1-12.8-12.8-12.8-12.8s6.4,14.9,12.8,12.8C33.1,211.1,50.6,194.5,52.3,187.6
		c1.7-6.9-15.5-14.9-15.6-15.6c-0.1-0.7,19.3,4.4,15.1,11.3c-4.2,6.9-32.7,25.8-40.3,30.2c-7.6,4.4-4.7-3.8-5-3.8
		c-0.4,0-4.8,12.7,2.8,3.8c7.6-8.9,36-47.5,43-57.3c7-9.8-0.9-1.1-0.9-1.3c-0.1-0.1,1,0,0.6,0.5c-0.4,0.5-2.2,1.4-3.1,2.4
		c-0.9,0.9-1.9,2.5-2.4,3.1c-0.5,0.6,5.9-8.2-0.6,0.5c-6.6,8.7-32,43.5-38.7,51.6c-6.8,8.2-2.2-2.6-1.9-2.5c0.3,0-4,7.7,3.8,2.8
		c7.8-4.9,37.9-25.1,42.8-32.1c4.9-7-13.3-11.3-13.2-9.9c0.1,1.4,14.4,11.2,13.7,18.3c-0.7,7-12.4,23.3-17.9,23.9
		c-5.5,0.6-17-20.1-15.1-20.2c1.9-0.1,21,17.3,26.4,19.8c5.5,2.5,9.9-0.5,6.3-4.7c-3.6-4.3-26.3-21.6-27.7-20.8
		c-1.4,0.8,14.7,23.4,19.4,25.8c4.6,2.4,10.2-5.2,8.5-11.3c-1.7-6.1-18.9-23.4-18.9-25.2c0-1.8,20.7,8.1,18.9,14.2
		c-1.8,6.1-22.6,20.1-29.6,22.2c-7,2.1-11.8-9.5-12.6-9.4c-0.8,0,1,14.9,8.1,9.7c7.1-5.2,29.9-32.7,34.3-41.1
		c4.5-8.4-7.5-8.6-7.6-9.1c-0.1-0.5,13-0.8,7.2,6.1c-5.7,6.8-33.5,27.5-41.7,34.9c-8.2,7.3-6.2,7.6-7.6,9.1
		c-1.3,1.4-0.5-0.6-0.5-0.6c0,0-7.7,5.8,0.7,0.4c8.3-5.4,43.5-25.5,49.2-32.6c5.8-7-14.4-11.1-14.4-9.5c0,1.5,15.1,11.6,14.5,18.7
		c-0.6,7.1-12.8,22.9-18.3,23.6c-5.6,0.7-16.6-19.3-14.9-19.3c1.7,0,19.4,17.1,24.9,19.3c5.5,2.2,11.2-1.8,8.1-6.3
		c-3.1-4.5-26.2-21.7-26.8-20.7c-0.6,1,18.9,22.8,23.4,26.6c4.5,3.7,6.9,1,3.6-4.1c-3.3-5.1-23.4-25.5-23.4-26.6
		c-0.1-1,21.3,15.1,23,20.3c1.8,5.2-6.8,12.2-12.4,10.9"/>
	<path fill="none" stroke="#6D6E71" stroke-linecap="round" stroke-linejoin="round" stroke-miterlimit="10" d="M52.1,96.1
		c0.8,1.9-3.3,3.3-3.3,3.3S58.7,103.9,52.1,96.1C45.4,88.3,16,60,8.6,52.7c-7.3-7.3-0.4-0.4-0.5-0.5c-0.2-0.2-0.4-0.4-0.6-0.6
		C7.3,51.4,7.1,51.2,7,51c-0.2-0.2-0.4-0.4-0.6-0.6c-0.2-0.2-0.4-0.4-0.6-0.6c-0.2-0.2-0.4-0.4-0.6-0.6c-0.2-0.2-0.4-0.4-0.6-0.6
		c-0.2-0.2-0.4-0.4-0.5-0.5C4,48,3.8,47.9,3.6,47.7c-0.2-0.2-0.3-0.4-0.5-0.6c-0.2-0.2-0.4-0.3-0.6-0.5c-0.2-0.2-0.3-0.4-0.5-0.6
		c-0.2-0.2-0.6-0.4-0.6-0.5c0-0.2-7.8-6.6,0.6-0.5C10.6,51,45.6,74.4,52.1,82c6.4,7.6-11.4,9.6-11.4,8.4c0-1.1,13.1-7.7,11.3-15.2
		c-1.8-7.5-16.3-27.6-22.1-29.7c-5.8-2.1-14.4,17-12.7,17.1c1.7,0,17-15.6,22.8-16.9c5.8-1.3,14.2,4.3,12,8.9
		c-2.2,4.6-24.5,20.3-25.3,18.8c-0.8-1.5,16.4-24.2,20.6-27.8c4.2-3.6,7.4,0.6,4.7,6.3c-2.7,5.7-20.7,25.3-20.6,27.8
		c0,2.5,23.5-6.8,20.9-12.5c-2.6-5.7-28.9-19.1-36.5-21.9c-7.5-2.8-7.9,5.2-8.8,5.3c-0.8,0-3.8-13.5,3.8-5.1
		c7.5,8.4,34.6,46.1,41.3,55.6c6.7,9.5-0.9,1.1-0.9,1.3c-0.1,0.1,1.3,0.2,0.6-0.5c-0.6-0.6,2.9,6.1-4.4-3.3
		C40.1,89.2,15,53.9,8,45.5c-7-8.3-2.7,3.2-2.3,3.2c0.3,0-3.3-7.9,4.4-3.3c7.7,4.6,37.1,24.1,41.7,31c4.6,6.9-13.9,11.8-13.9,10.3
		c0-1.4,14.5-12.1,14.1-19C51.6,60.9,40.8,46,35.5,45.6c-5.2-0.3-17,20.2-15,20.2c2,0,21.9-17.4,27.2-20.2c5.3-2.8,8.4-0.8,4.4,3.3
		c-4,4.1-27,21.7-28.4,21.1c-1.5-0.6,14.9-22.3,19.7-24.6c4.8-2.3,10.6,5.2,8.9,11.1c-1.7,5.8-19.2,22.5-19.2,24
		c0,1.4,20-9.4,19-15.3c-0.9-5.8-18-18.4-24.6-19.7C21,44.3,12.8,57.4,12.8,57.4c0,0,8-13.5,14.5-12.1c6.6,1.4,23.9,14.5,24.8,20.6
		C53,72,32.8,81.9,32.7,82c-0.1,0.1,20.3-9.2,19-15.3c-1.2-6.1-19.9-19.4-26.4-21.2c-6.5-1.8-12.1,10.4-12.9,10.3
		c-0.8,0,1.8-15.1,8.4-10.4c6.6,4.7,27.2,30.6,31,38.7c3.9,8.1-7.9,9.3-7.9,9.8c0,0.6,13.7,0.3,8-6.4c-5.7-6.7-35.1-28.1-42.4-34
		c-7.2-5.9-0.7-0.9-1-1.2c-0.3-0.3-0.3-0.2-0.6-0.5c-0.3-0.3-0.7-0.9-1-1.2c-0.3-0.3-0.1,0.1-0.6-0.5c-0.5-0.6-2-2.5-2.5-3.1
		c-0.5-0.6-0.4-0.3-0.6-0.5c-0.2-0.2-0.3-0.5-0.4-0.6"/>
	<path fill="none" stroke="#6D6E71" stroke-linecap="round" stroke-linejoin="round" stroke-miterlimit="10" d="M644.3,74.3
		c0.5,5.3-14.4,14.2-14.5,14.5c-0.1,0.3,17.5-5.3,14.1-12.6c-3.4-7.2-27.2-27.2-34.7-30.9c-7.4-3.7-9.6,8.9-10,8.9
		c-0.4,0,0.3-14.3,7.9-8.8c7.5,5.5,32.3,33.3,37.2,41.7c4.9,8.4-7.8,8.5-7.9,8.8c0,0.3,14.5,1.6,7.6-6.8
		c-6.9-8.4-40.3-36.6-48.8-43.5c-8.5-6.9-2.3,2.1-2.4,2.1c0,0-6.5-11.2,2.1-2.4c8.6,8.8,41.4,45.7,49.2,55.2
		c7.9,9.6-2.1,2.2-2.1,2.4c0,0.2,3.1,0,1.9-1.4c-1.3-1.4-1.7,2.3-9.5-7.1c-7.7-9.4-30.1-41.7-36.8-49.2c-6.7-7.5-3.7,4.4-3.3,4.4
		c0.4,0-2.6-9,5.7-4.3c8.3,4.8,39.1,25.8,44.1,33c5,7.2-13.8,11.7-13.9,10.4c0-1.3,14.5-11,13.7-18.3c-0.9-7.3-13.1-24.5-18.9-25.2
		c-5.7-0.7-17.6,20.8-15.6,20.8c2,0,22-18.2,27.7-20.8c5.8-2.6,10.6,0.7,6.9,5.2c-3.7,4.5-27.5,22.6-29,21.7
		c-1.4-0.9,15.5-24.5,20.3-27.1c4.8-2.6,10.3,5.1,8.5,11.3c-1.8,6.2-19.4,24-19.4,25.8c0,1.9,21.2-8.5,19.5-14.6
		c-1.7-6.1-22.4-20.2-29.6-22.2c-7.2-2-12.9,10.4-13.9,10.4c-1-0.1,0.8-16.8,8-10.7c7.2,6.1,30.4,38.2,35.4,47.3
		c5,9-5.2,6.4-5.2,6.9c0,0.6,7.9-0.5,5.2-3.5c-2.7-3-13.9-6.2-21.5-14.6c-7.6-8.4-19.7-30.6-24.3-35.9c-4.6-5.2-3.8,4.6-3.1,4.6
		c0.7,0-1-8.8,7.2-4.8c8.1,3.9,37.7,21.5,41.7,28.2c4,6.7-17.6,14.3-17.6,11.9c0-2.4,16.3-19.4,17.6-26.1c1.4-6.6-4.6-16.1-9.3-13.7
		c-4.7,2.4-20.5,26.5-19,28c1.5,1.5,25.6-14.3,28-19c2.4-4.7-7.3-10.5-13.7-9.3c-6.4,1.3-22.6,16.8-24.8,16.8
		c-2.2,0,5.1-20.8,11.5-16.9"/>
	<path fill="none" stroke="#6D6E71" stroke-linecap="round" stroke-linejoin="round" stroke-miterlimit="10" d="M622.1,134.8
		c-0.2,3.5-11.1,11.1-11.1,11.1S623.7,140.1,622.1,134.8c-1.6-5.3-20.6-21-20.6-20.6c0,0.4,18.7,17.3,20.5,22.8
		c1.9,5.6-9.5,10.2-9.5,10.5c0,0.3,11.9-3.3,9.4-8.4c-2.5-5.1-24.6-23.7-24.6-22.1c0,1.6,21.3,25.5,24.8,31.6c3.5,6.1-3.9,4.6-3.9,5
		c0,0.3,8.5,1.8,3.7-2.9c-4.7-4.7-27.7-22.2-32.2-25.3c-4.5-3.1,4.2,5.5,5.3,6.8c1.1,1.3,1,0.7,1.2,1c0.3,0.3,0.2,0.4,0.5,0.6
		c0.3,0.3,0.9,0.7,1.2,1c0.3,0.3-3.5-2.6,0.5,0.6c4,3.2,19.9,15.1,23.5,18.5c3.6,3.3-1.9,1.6-1.9,1.5c0-0.2,6,3.5,1.9-2.5
		c-4.1-6-26.2-31.3-26.3-33.4c0-2.2,23.3,15.7,26,20.4c2.7,4.7-10,8.6-9.9,7.8c0-0.9,11.5-7,10.2-13c-1.3-6-18-21.4-18-22.9
		c0-1.5,18.1,9.3,18,14.1c-0.1,4.8-18.5,16.4-18.6,14.6c0-1.8,16.8-19.3,18.4-25.5c1.6-6.3-8.8-11.2-8.7-12.1c0-1,12.4,1.8,8.9,6.4
		c-3.4,4.6-26.3,20.7-29.4,21.2c-3.1,0.5,6-13.4,10.9-18.2c4.9-4.9,15.9-8.7,18.3-10.9c2.4-2.2-4.1-3.1-4.1-2.4c0,0.7,6.7,0.1,4,6.8
		c-2.6,6.6-19.7,29.8-19.8,33.1c0,3.3,19.3-9,19.5-13.4c0.1-4.4-18.9-15.4-18.8-12.9c0.1,2.5,17.2,21.5,19.2,27.9
		c2,6.4-7.1,9.5-7.1,10.4c0,0.9,11.1-0.5,7.1-4.9c-4-4.4-27.1-19.6-31.1-21.4c-4-1.8,2,5.9,7.1,10.4c5.2,4.5,20.6,13.3,24,16.5
		c3.4,3.2-3.9,3.4-3.9,2.7c0-0.7,6.8-0.1,4.1-6.7c-2.7-6.6-20-29.4-20.1-32.9c-0.1-3.5,19.5,7.9,19.5,11.9c0,4-19.6,15.4-19.5,11.9
		c0.1-3.5,17.4-26.3,20.1-32.9c2.7-6.6-4.1-6-4.1-6.7c0-0.7,6.7,0,4,2.5"/>
	<path fill="none" stroke="#6D6E71" stroke-linecap="round" stroke-linejoin="round" stroke-miterlimit="10" d="M-9.6,601.1
		c5.7,3.2,16.1,3.2,7.8-7.8c-8.3-10.9-57.8-38.6-57.8-57.8c0-19.3,55.6-40.8,57.8-57.8c2.2-17.1-34.8-39.3-44.5-44.5
		c-9.6-5.2-20.8,1.5-13.3,13.3c7.4,11.9,57.8,38.5,57.8,57.8c0,19.3-54.7,41.7-57.8,57.8c-3.1,16.1,29.3,35.6,38.9,38.9
		c9.6,3.3,25.4-6.1,18.9-18.9c-6.5-12.8-57.8-38.6-57.8-57.8c0-19.3,53.7-42.6,57.8-57.8c4.1-15.2-23.7-31.9-33.4-33.4
		c-9.6-1.5-30,10.7-24.5,24.5c5.6,13.7,57.8,38.6,57.8,57.8c0,19.3-52.8,43.6-57.8,57.8c-5,14.3,18.2,28.2,27.8,27.8
		c9.6-0.4,34.7-15.4,30-30c-4.6-14.6-57.8-38.6-57.8-57.8c0-19.3,51.9-44.5,57.8-57.8c5.9-13.3-12.6-24.5-22.2-22.2
		c-9.6,2.2-39.3,20-35.6,35.6c3.7,15.6,57.8,38.6,57.8,57.8s-51,45.4-57.8,57.8c-6.9,12.4,7,20.8,16.7,16.7
		c9.6-4.1,43.9-24.7,41.1-41.1c-2.8-16.5-57.8-38.6-57.8-57.8c0-19.3,50-46.3,57.8-57.8c7.8-11.5-1.5-17.1-11.1-11.1
		c-9.6,5.9-48.6,29.3-46.7,46.7c1.9,17.4,57.8,38.6,57.8,57.8c0,19.3-49.1,47.3-57.8,57.8c-8.7,10.6-4.1,13.3,5.6,5.6
		c9.6-7.8,53.2-33.9,52.3-52.3c-0.9-18.3-57.8-38.5-57.8-57.8c0-19.3,57.7-48.8,57.8-57.8"/>
	<path fill="none" stroke="#6D6E71" stroke-linecap="round" stroke-linejoin="round" stroke-miterlimit="10" d="M74.5,547.5
		c-1.9-1.9-56.1-43.1-59.5-59.5c-3.4-16.4,38.9-39.6,38.9-38.9c0,0.7-41.9,25.5-39,43.2c3,17.7,56.8,61.1,56.9,63.1
		c0,2-55.3-35.3-56.7-51.1c-1.4-15.8,48.5-45.4,48.5-43.7c0,1.7-48.8,35.4-48.4,53.7c0.3,18.3,50.5,50,50.5,56.1
		c0,6-52.6-12.4-50.5-19.8c2.1-7.4,62.9-15.2,62.9-24.7c0-9.5-61-22.6-62.9-32.4c-1.9-9.9,51.7-39,51.7-26.7
		c0,12.3-45.8,79-51.9,100.6c-6.1,21.7,15.2,26.1,15.1,29.4c0,3.3-22.6-1.8-15.2-9.8c7.4-8,49.4-31.7,59.5-38.3
		c10.1-6.6,0.7-1,0.8-1.3c0.2-0.3,0-0.6,0.1-0.8c0.1-0.2,10.7,12,0.7-0.4c-10-12.4-55-56.6-60.9-74.1c-5.9-17.5,25.5-29.3,25.4-31
		c0-1.7-31.8,8.8-25.5,21c6.3,12.1,63.2,34.6,63.2,51.9c0,17.3-57.6,39.2-63.2,51.9C9.6,578.4,45,592.2,45,590.2
		c0-2-34.7-18.5-29.9-36.5c4.7-17.9,58.4-65.7,58.4-71.1c0-5.4-57.9,26-58.4,38.6c-0.4,12.6,55.8,44.8,55.8,36.9
		c0-8-50.4-64.8-56-84.6c-5.6-19.8,22.5-30.9,22.6-34.1c0-3.2-28.9,5.5-22.3,14.7c6.6,9.3,61.7,19,61.6,40.8
		c0,21.8-53,72.9-61.8,90.2c-8.7,17.3,9.3,12.8,9.3,13.6c0,0.8-18.1,2.5-9.2-8.5c8.9-11,62.3-33.4,62.4-57.6
		c0-24.3-53-71.7-62.3-87.9c-9.2-16.2,6.9-8.9,6.8-9.6c0-0.8-15.6-2.7-7.1,5c8.6,7.7,48.6,34.4,58.4,41.4c9.8,7,0.2,0.5,0.4,0.7
		c0.2,0.2,10.5-14.4,0.7,0.4c-9.8,14.7-52.3,69-59.3,88.1c-6.9,19,13.5,47.8,17.6,26.1c4-21.7,9.5-130.5,6.6-156.3
		c-3-25.9-25.3,0.6-24.4,1c0.9,0.4,23.9-22.9,29.9,1.2c6,24.2,10.9,120.1,6,143.8c-4.9,23.7-36-1-35.4-1.5
		c0.7-0.5,31.8,19.8,39.3-1.6c7.4-21.5,11.9-106.4,5.3-127.3c-6.6-20.9-45.3,1.2-44.8,1.9c0.5,0.7,39.2-16,47.9,2
		c8.7,18,12.5,88.8,4.5,106.1c-8,17.3-53-1.5-52.6-2.2c0.4-0.8,55,14.9,55-2.3c0-17.2-48.1-79.8-55.1-100.7
		C8,439.6,25.6,413,28.5,435.7"/>
	<path fill="none" stroke="#6D6E71" stroke-linecap="round" stroke-linejoin="round" stroke-miterlimit="10" d="M149.6,503.1
		c-4.8,14.1-54.1,40.4-56.7,56.7c-2.6,16.3,31.7,36.9,41.2,41.1c9.5,4.3,22.4-3.5,15.6-15.6c-6.9-12-56.7-37.8-56.7-56.7
		c0-18.9,53.7-40.8,56.7-56.7c3-15.9-29.5-35.4-38.9-38.9c-9.5-3.5-24.3,5.4-17.8,17.8c6.5,12.4,56.7,37.8,56.7,56.7
		c0,18.9-53.4,41.1-56.7,56.7c-3.3,15.6,27.2,33.9,36.7,36.7c9.5,2.8,26.1-7.2,20-20c-6.1-12.8-56.7-37.8-56.7-56.7
		c0-18.9,53-41.5,56.7-56.7c3.7-15.2-25-32.4-34.5-34.5c-9.5-2-28,9.1-22.2,22.2c5.7,13.2,56.7,37.8,56.7,56.7
		c0,18.9-52.6,41.9-56.7,56.7c-4.1,14.8,22.8,30.9,32.2,32.2c9.5,1.3,29.8-10.9,24.5-24.5c-5.4-13.5-56.7-37.8-56.7-56.7
		c0-18.9,52.3-42.3,56.7-56.7c4.5-14.5-20.6-29.5-30-30c-9.4-0.6-31.7,12.8-26.7,26.7c5,13.9,56.7,37.8,56.7,56.7
		c0,18.9-51.9,42.6-56.7,56.7c-4.8,14.1,18.4,28,27.8,27.8c9.5-0.2,33.5-14.6,28.9-28.9c-4.6-14.3-56.7-37.8-56.7-56.7
		c0-18.9,51.5-43,56.7-56.7c5.2-13.7-16.1-26.5-25.6-25.6c-9.5,0.9-35.4,16.5-31.1,31.1c4.3,14.6,56.7,37.8,56.7,56.7
		c0,18.9-51.2,43.4-56.7,56.7c-5.6,13.3,13.9,25,23.4,23.3c9.5-1.7,37.2-18.3,33.4-33.4c-3.9-15-56.7-37.8-56.7-56.7
		c0-18.9,50.8-43.7,56.7-56.7c5.9-13-11.7-23.5-21.1-21.1c-9.5,2.4-39.1,20.2-35.6,35.6c3.5,15.4,56.7,37.8,56.7,56.7
		c0,18.9-50.4,44.1-56.7,56.7c-6.3,12.6,9.5,22.1,18.9,18.9c9.5-3.1,41-22,37.8-37.8c-3.1-15.7-56.7-37.8-56.7-56.7
		c0-18.9,50-44.5,56.7-56.7c6.7-12.2-7.2-20.6-16.7-16.7c-9.4,3.9-42.8,23.9-40,40c2.8,16.1,56.7,37.8,56.7,56.7
		c0,18.9-49.7,44.8-56.7,56.7c-7,11.9,5,19.1,14.5,14.4c9.5-4.6,44.7-25.8,42.2-42.3c-2.4-16.5-56.7-37.8-56.7-56.7
		c0-18.9,49.3-45.2,56.7-56.7c7.4-11.5-2.8-17.6-12.2-12.2c-9.5,5.4-46.5,27.6-44.5,44.5c2,16.9,56.7,37.8,56.7,56.7
		c0,18.9-48.9,45.6-56.7,56.7c-7.8,11.1,0.6,16.1,10,10c9.5-6.1,48.4-29.5,46.7-46.7c-1.7-17.2-56.7-37.8-56.7-56.7
		c0-18.9,48.6-46,56.7-56.7"/>
	<path fill="none" stroke="#6D6E71" stroke-linecap="round" stroke-linejoin="round" stroke-miterlimit="10" d="M349,601
		c3.1-0.5,26.2,7.1,10.6-10.6c-15.6-17.7-87-79.5-104.4-95.6c-17.5-16.1-0.1-0.6-0.3-0.7c-0.2-0.2-5,9.8-0.7-0.3
		c4.3-10.1,9.9-78.3,26.5-60.5c16.6,17.8,60.1,141.3,73.2,167.1c13.1,25.8,14-11.9,5.4-12.2c-8.7-0.4-50.8,25.5-57.3,10.1
		c-6.6-15.4,28.4-78.9,18-102.2c-10.4-23.3-65.8-27.7-80.6-37.5c-14.8-9.8-7-17-8.1-21.3c-1.1-4.3-3.9-17.5,1.7-4.4
		c5.6,13.1,13.6,64.3,31.7,83c18,18.7,63.7,24.1,76.4,29.1c12.8,5,0,0.6,0.2,0.8c0.2,0.1,4.5-9,0.8,0.2c-3.7,9.2-7.5,74-23.1,55.1
		c-15.6-18.9-57.1-144.2-70.5-168.3c-13.4-24.1-20,17.4-10,23.9c10,6.5,53.6-8.9,69.9,15.2c16.3,24,21.8,114.9,28,129.1
		c6.3,14.2,17.4-38.6,9.5-43.8c-7.9-5.2-50.8,26.2-56.9,12.3c-6-13.8,26.8-81.5,20.7-95.3c-6.2-13.8-50,19.4-57.6,12.5
		c-7.7-6.9,4-71.3,11.7-53.8c7.7,17.6,21.9,131.1,34.5,159.1c12.7,28,31.2,8.2,41.5,9c10.2,0.8,27.5-1.3,20-4.3
		c-7.6-3.1-51.3,13-65.3-14.2c-14-27.2-13.7-138.1-18.6-149c-4.8-10.9-18.7,70.8-10.4,83.5c8.3,12.7,52-21.4,60.1-7.5
		c8.1,14-6,103.7-11.4,91.3c-5.3-12.4-13.8-137.4-20.6-165.4c-6.8-28-10-3-20.3-2.5c-10.3,0.4-45.5,2.9-41.4,5.2
		c4.2,2.2,58.4-10.3,66.3,8.2c7.9,18.5-27.3,83.8-19.1,102.8c8.2,19,55.8,2.6,68.3,11.2c12.5,8.6,5.1,36.5,6.6,40.3
		c1.6,3.9,11.9-15.8,2.8-17.1c-9.1-1.3-50.7,25.3-57.4,9.4c-6.7-15.9,24.2-88.9,17.2-104.7c-7-15.8-50.9,18.8-59,9.7
		c-8.1-9.1,4.9-77.7,10.6-64.4c5.7,13.3,8.5,118.4,23.7,144.3c15.2,25.9,58.4,7.3,67.5,11.1c9.1,3.8,1.7,20.8-12.8,11.6
		c-14.5-9.2-61.7-55.6-74.2-66.8c-12.4-11.3-0.3-0.4-0.5-0.6c-0.2-0.2,0.3,16.2-0.6-0.5c-0.9-16.7-3.4-96.3-4.8-99.7
		c-1.5-3.4-17.2,58.6-3.9,79.3"/>
	<path fill="none" stroke="#6D6E71" stroke-linecap="round" stroke-linejoin="round" stroke-miterlimit="10" d="M491.2,564.8
		c1.7,14.5-33.9,30.3-41.2,35.3c-7.3,4.9-9.2,2.7-2.6-5.7c6.5-8.4,41.7-43.7,41.9-44.8c0.2-1.1-41.2,36.4-40.8,38.1
		c0.4,1.7,53.6-13.3,42.9-27.7c-10.6-14.4-87.7-46.9-106.7-58.9c-19-12-5.9-10.8-7.2-13.1c-1.3-2.2-3,7.7-0.7-0.4
		c2.4-8.1,8.8-39,14.8-48.1c6-9.1,16.2-5.6,21-6.5c4.8-0.9,6.5,0.9,7.8,1c1.3,0,5.8-11.9-0.2-0.8c-6,11.1-38.3,60.6-35.8,67.4
		c2.5,6.7,47.1-31.6,50.7-26.9c3.6,4.6-33.3,49.5-29.1,54.9c4.2,5.3,50.6-27.9,54.3-23c3.7,4.9-34.9,48.6-32.1,52.3
		c2.8,3.7,46.1-33.6,48.9-30c2.9,3.6-33.8,47.5-31.7,51.6c2.1,4.1,41.7-30.4,44.2-27.1c2.6,3.3-23.7,38.9-28.8,46.9
		c-5.1,8,0.3,1.4-2,1.2c-2.3-0.2-9.7-2.4-11.6-2.4c-1.8,0-5.8,12.3,0.5,2.3c6.3-10,40.9-54.3,37.2-62.1
		c-3.7-7.8-52.5,24.5-59.3,15.5c-6.9-8.9,25-60.3,18.1-69.2c-6.9-8.9-52.3,23.8-59.3,15.5c-7-8.3,11.7-55.9,17.1-65.4
		c5.4-9.6,19.4,4,15.3,8.1c-4.1,4-33.3,13.2-40.1,16.2c-6.8,2.9-0.5,1.1-0.6,1.5c-0.1,0.4-0.1,0.5-0.2,0.8
		c-0.1,0.2-8.5-14.5-0.6,0.5c7.9,15,29.7,69.1,47.8,89.5c18.1,20.3,65.6,51.5,61,32.6c-4.6-18.9-77.9-124.1-88.5-145.9
		c-10.6-21.8,20.5,12.1,24.9,15.1c4.4,3,1.1,2.3,1.5,2.8c0.4,0.5-5-23.7,0.7,0.4c5.7,24.1,32.8,142.7,33.7,143.9
		c0.9,1.3-15.5-111.9-28.3-136.3c-12.8-24.4-42.4-17.8-48.5-10.1c-6.1,7.7-4.6,43.9,11.7,56.2c16.3,12.4,70.2,6.7,86.2,17.9
		c16.1,11.2,17.2,42.9,10.2,49.3c-7,6.4-39,13.1-52.4-10.9c-13.3-24-23.3-127.6-27.6-133.2c-4.3-5.6-10.7,83,1.8,99.8
		c12.5,16.9,62.5-9,73.1,1.3c10.7,10.3-3.1,49.9-9.1,60.7c-6.1,10.8-22.6,3.1-27.2,4.1c-4.6,0.9-0.2,1.6-0.2,1.6
		c0,0-3.4-1.1,0.1-1.6c3.6-0.5,16.8,11.7,21.2-1.4c4.4-13,15.7-64.8,5.1-76.9c-10.7-12.1-59.9,16.9-69,4.6
		c-9.2-12.4,18.1-66.9,14.1-79c-4-12-31.4-0.6-37.9,6.8c-6.5,7.4-12.4,31.7-1,37.7c11.4,6,58-16.7,69.2-1.8
		c11.1,14.9-8.9,76.2-2.4,91.2c6.5,15,36.7,8.2,41.7-1.1c5-9.3,4.7-42.4-11.8-54.6c-16.4-12.2-70.6-7.4-86.9-18.7
		c-16.2-11.3-17.8-42.9-10.6-49.2c7.2-6.3,41.2-12.3,53.8,11.6c12.6,23.9,19.7,110.1,22.1,131.8c2.4,21.8-6.6-1.3-7.8-1.3"/>
	<path fill="none" stroke="#6D6E71" stroke-linecap="round" stroke-linejoin="round" stroke-miterlimit="10" d="M560.5,542.9
		c-4.4,14.6-47.8,47.6-57.3,57.3c-9.5,9.6-9,9.9,0.5,0.6c9.5-9.4,56.8-37.7,56.7-56.7c-0.1-19-56.6-38.8-57.3-57.3
		c-0.7-18.4,43.8-45.1,53.4-53.4c9.5-8.2,12.8-6.3,3.9,3.9c-8.9,10.2-57.3,38.2-57.3,57.3c0,19.1,55.9,39.6,57.3,57.3
		c1.4,17.7-39.4,42.2-48.9,48.9c-9.6,6.8-16.5,2.6-8.3-8.3c8.2-10.9,57.3-38.2,57.3-57.3c0-19.1-55.1-40.3-57.3-57.3
		c-2.1-17,34.9-39.2,44.5-44.5c9.5-5.3,20.2,1.1,12.8,12.8c-7.4,11.7-57.3,38.2-57.3,57.3c0,19.1,54.4,41,57.3,57.3
		c2.9,16.2-30.5,36.2-40,40c-9.5,3.8-23.9-4.8-17.2-17.2c6.7-12.4,57.3-38.2,57.3-57.3c0-19.1-53.7-41.8-57.3-57.3
		c-3.6-15.5,26-33.3,35.6-35.6c9.5-2.3,27.6,8.5,21.7,21.7c-5.9,13.2-57.3,38.2-57.3,57.3c0,19.1,52.9,42.5,57.3,57.3
		c4.4,14.7-21.6,30.3-31.1,31.1c-9.5,0.8-31.3-12.2-26.1-26.1c5.2-13.9,57.3-38.2,57.3-57.3c0-19.1-52.2-43.3-57.3-57.3
		c-5.1-14,17.1-27.3,26.7-26.7c9.5,0.7,35,15.9,30.6,30.6c-4.4,14.6-57.3,38.2-57.3,57.3c0,19.1,51.4,44,57.3,57.3
		c5.8,13.3-12.7,24.4-22.2,22.2c-9.5-2.1-38.7-19.7-35-35c3.7-15.4,57.3-38.2,57.3-57.3c0-19.1-50.7-44.8-57.3-57.3
		c-6.6-12.5,8.2-21.4,17.8-17.8c9.5,3.6,42.4,23.4,39.5,39.5c-3,16.1-57.3,38.2-57.3,57.3c0,19.1,49.9,45.5,57.3,57.3
		c7.3,11.8-3.8,18.4-13.3,13.3c-9.5-5.1-46.2-27.1-43.9-43.9c2.2-16.9,57.3-38.2,57.3-57.3c0-19.1-49.2-46.2-57.3-57.3
		c-8.1-11-0.7-15.5,8.9-8.9c9.5,6.6,49.9,30.8,48.4,48.4c-1.5,17.6-57.3,38.2-57.3,57.3c0,19.1,48.5,47,57.3,57.3
		c8.8,10.3,5.1,12.5-4.4,4.5"/>
	<path fill="none" stroke="#6D6E71" stroke-linecap="round" stroke-linejoin="round" stroke-miterlimit="10" d="M700.5,542.9
		c-3.6,15.7-48,48.4-57.8,57.8c-9.8,9.5-10.7,8.9-1.1-1.1c9.6-10,58.9-39.3,58.9-58.9c0-19.6-57.2-41.1-58.9-58.9
		c-1.8-17.9,38.6-42.1,48.4-48.4c9.8-6.3,18.6-1,10.6,10.6c-8.1,11.6-58.9,39.3-58.9,58.9c0,19.6,55.6,42.6,58.9,58.9
		c3.3,16.3-29.1,35.8-38.9,38.9c-9.8,3.2-26.5-6.9-20-20c6.5-13.2,58.9-39.3,58.9-58.9c0-19.6-54-44.2-58.9-58.9
		c-4.9-14.7,19.6-29.5,29.5-29.5c9.8,0,34.4,14.7,29.5,29.5c-4.9,14.7-58.9,39.3-58.9,58.9c0,19.6,52.4,45.8,58.9,58.9
		c6.5,13.2-10.2,23.2-20,20c-9.8-3.2-42.3-22.6-38.9-38.9c3.3-16.3,58.9-39.3,58.9-58.9c0-19.6-50.9-47.4-58.9-58.9
		c-8.1-11.6,0.7-16.9,10.6-10.6c9.8,6.3,50.1,30.5,48.4,48.4c-1.8,17.9-58.9,39.3-58.9,58.9c0,19.6,49.3,48.9,58.9,58.9
		c9.6,10,8.7,10.6-1.1,1.1"/>
	<path fill="none" stroke="#6D6E71" stroke-linecap="round" stroke-linejoin="round" stroke-miterlimit="10" d="M771.2,563.3
		c-6.1-6.1-53.1-36.8-53.9-53.9c-0.8-17.1,48.9-43.8,48.9-48.9c0-5.2-50.9,11.1-48.7,17.8c2.2,6.8,62,11.8,62,22.7
		c0,10.9-59.4,30.5-62.1,42.9c-2.7,12.4,46,37.5,45.9,31.7c0-5.8-45.1-45.8-46-66.6c-1-20.8,40.2-53.1,40.2-58.2
		c0-5.1-43.9,15.9-40.1,27.7c3.8,11.9,62.8,29.5,62.8,43.4c-0.1,13.9-58.8,29.3-63.1,39.9c-4.3,10.6,37.2,29.4,37.2,23.5
		c0-5.8-38.3-36.9-37-58.5c1.3-21.6,45-63,45-71.1c0-8.1-48.1,13.4-45.1,22.4c3.1,9,63.4,21,63.4,31.5c0,10.5-61.5,21.9-63.4,31.5
		c-1.9,9.6,52.1,28.8,52.1,25.9c0.1-2.9-52.7-28.3-51.9-43.4c0.8-15.1,56.6-38.8,56.7-47.4c0-8.7-55.8-3-56.4-4.5
		c-0.7-1.4,50.9-25.3,52.5-4.2c1.6,21.1-34.1,108.8-42.9,130.7c-8.8,21.9-9,0.7-10.2,0.9c-1.2,0.2,3.1,6,3.1,0.3
		c0-5.7-4.6-7.2-3.1-34.5c1.4-27.3,11.7-108.8,11.7-129.2c0-20.4-19,0.2-11.6,6.6c7.4,6.4,45.9,23.4,56,31.9
		c10.2,8.5,4.1,15.8,5.1,19c1,3.2,10.9-5.8,0.8,0.2c-10.2,6-60.6,24.7-61.9,36c-1.2,11.3,54.4,42,54.4,31.6
		c0-10.4-48.4-73.2-54.5-93.8c-6.2-20.6,17.4-29.1,17.4-29.9c0-0.8-24.3,6.6-17.3,25.3c7,18.7,59.4,66.4,59.4,87
		c0,20.6-52.4,29-59.5,36.9c-7.1,7.9,6.3,24,16.7,10.4c10.5-13.6,48.8-65.7,46.1-92.1c-2.7-26.4-52.8-54.6-62.5-66.5
		c-9.7-11.8-4.7-25.6,4.3-4.6c9,21.1,50.2,105.7,49.5,130.9c-0.7,25.2-48.6,15.5-53.7,20.4c-5,4.9,21.1,33.8,23.5,8.9
		c2.5-24.8-4.9-133-8.8-157.8c-3.9-24.8-21.9,1.6-14.8,9c7.2,7.4,48.1,29.2,57.8,35.1c9.7,6,0.3,0.4,0.4,0.7
		c0.1,0.2,0.2,0.5,0.3,0.7c0.2,0.2,10.4-17.4,0.6,0.5c-9.8,17.8-50.3,87-59.3,106.5c-8.9,19.5,5.8,13.3,5.7,10.3
		c0-3-9.4-2.2-5.9-28.5c3.5-26.3,26.8-109.8,26.8-129.4c0.1-19.5-31.5,5.8-26.4,12.3c5.1,6.5,47.3,21.6,57.1,26.5
		c9.7,4.9,1,2.3,1.3,2.8c0.3,0.5,10.5-13,0.7,0.3c-9.8,13.3-53.2,61.1-59.2,79.4c-6,18.4,23.1,28.6,23,30.9
		c-0.1,2.2-29.8-6.7-23.3-17.4c6.5-10.7,62.4-23.5,62.4-46.5c0-23-52.5-75.7-62.5-91.6"/>
	<path fill="none" stroke="#6D6E71" stroke-linecap="round" stroke-linejoin="round" stroke-miterlimit="10" d="M213.2,452
		c-1.7,4.6-18.9,18.7-18.9,18.9c0,0.2,19.7-11.2,19.2-17.5c-0.5-6.3-15.5-19.4-22.1-20.1c-6.6-0.7-17.9,15.9-17.4,15.9
		c0.5-0.1,13.7-16,20.3-16.2c6.6-0.2,19.7,9.6,19.1,15.2c-0.6,5.6-22.8,19.9-22.8,18.1c0-1.8,19.8-23.4,23-28.9
		c3.3-5.5,1.1-8.5-3.4-4.3c-4.5,4.2-24,27.9-23.5,29.5c0.5,1.7,24.5-14.6,26.6-19.5c2.1-5-7.6-11.5-14-10.2
		c-6.3,1.2-22.4,17.6-24.1,17.7c-1.7,0.1,7.4-19.4,13.8-17.2c6.4,2.2,22.5,23,24.6,30.7c2.1,7.7-12.2,14.2-12.3,15.3
		c0,1.1,18.6-1.1,12.1-8.8c-6.6-7.7-42.7-31.4-51.5-37.5c-8.8-6.1-1.1,0.9-1.3,0.9c-0.1,0-1.2-2.4,0.5-0.6c1.7,1.8,0.9,3.5,9.6,11.4
		c8.7,7.9,36.5,29.2,42.7,35.9c6.2,6.8-5.4,4.9-5.4,4.6c0-0.3,11,2.1,5.6-6.6c-5.5-8.7-30.8-39.6-38.5-45.7c-7.7-6.1-8.9,9-7.6,9
		c1.4,0,8.1-10.4,15.7-9c7.6,1.4,29.2,12,30,17.3c0.8,5.3-24.5,17.3-25.2,14.5c-0.7-2.8,16.8-27.2,21.1-31.3c4.2-4.1,7,0.5,4.4,6.5
		c-2.6,6-19.7,26.7-19.7,29.4c0,2.7,22.1-7.1,19.6-13.2c-2.5-6.1-26.9-20.7-34.6-23.3c-7.7-2.6-10.7,7.8-11.7,7.9
		c-1,0.1-2.1-15.4,5.7-7.5c7.8,7.9,34.6,45.1,41.1,54.7c6.5,9.5-1.8,2.2-1.9,2.5c-0.1,0.3,2-0.1,1.3-0.8c-0.7-0.7,1.1,6.1-5.3-3.3
		c-6.5-9.4-26.8-46.1-33.4-53.3c-6.6-7.2-8.2,10-6.3,10c1.9,0,10.5-10.6,18-9.8c7.5,0.8,26.8,9.8,26.9,14.6
		c0.1,4.8-24.5,16.7-26.3,14.3c-1.7-2.5,11.3-27.5,15.8-29"/>
	<path fill="none" stroke="#6D6E71" stroke-linecap="round" stroke-linejoin="round" stroke-miterlimit="10" d="M215.4,530.4
		c-0.1-0.1-0.6-0.5-0.6-0.5C214.7,529.9,215.3,530.4,215.4,530.4c-0.1,0.1-0.7-0.4-0.7-0.4c0,0,0.6,0.5,0.6,0.6c0,0-0.6-0.5-0.6-0.5
		c0,0,0.6,0.5,0.6,0.6c0,0-0.6-0.5-0.6-0.5c0,0,0.6,0.5,0.5,0.6c0,0-0.6-0.5-0.6-0.5c0,0,0.6,0.5,0.6,0.6c0,0-0.6-0.5-0.6-0.5
		c0,0,0.6,0.5,0.6,0.6c0,0-0.6-0.5-0.6-0.5c0,0,0.6,0.5,0.6,0.6c0,0-0.6-0.5-0.6-0.5c0,0,0.6,0.5,0.6,0.6c0,0-0.6-0.5-0.6-0.5
		c0,0,0.6,0.5,0.5,0.5c0,0-0.6-0.5-0.6-0.5c0,0,0.6,0.5,0.6,0.6c0,0-0.6-0.5-0.6-0.5c0,0,0.6,0.5,0.6,0.6c0,0-0.6-0.5-0.6-0.5
		c0,0,0.6,0.5,0.6,0.6c0,0-0.6-0.5-0.6-0.5c0,0,0.6,0.5,0.6,0.6c0,0-0.6-0.5-0.6-0.5c0,0,0.6,0.5,0.6,0.6c0,0-0.6-0.5-0.6-0.5
		c0,0,0.6,0.5,0.6,0.6c0,0-0.6-0.5-0.6-0.5c0,0,0.6,0.5,0.6,0.6c0,0-0.7-0.6-0.6-0.5c0.1,0.1,1.1,1.1,1.1,1.1c0,0-1.2-1-1.3-0.9
		c0,0,1.1,1.1,1.1,1.1c0,0-1.2-1-1.3-0.9c0,0,1,1,1.1,1.1c0.1,0.1-0.6-0.5-0.6-0.5c0,0,0.6,0.5,0.5,0.6c0,0-0.6-0.5-0.6-0.5
		c0,0,0.6,0.5,0.6,0.6c0,0-0.7-0.6-0.6-0.5c0.1,0.1,1.1,1.1,1.1,1.1c0,0-1.3-1-1.3-0.9c0,0,1.1,1.1,1.1,1.1c0,0-1.2-1-1.3-0.9
		c0,0,1.1,1.1,1.1,1.1c0,0-1.2-1-1.3-0.9c0,0,1.1,1.1,1.1,1.1c0,0-1.3-1.1-1.3-0.9c0.1,0.1,1.7,1.6,1.7,1.7c0,0-1.9-1.4-1.9-1.4
		c0,0,1.7,1.6,1.7,1.7c0,0-2-1.5-1.9-1.4c0,0.1,2.3,2.2,2.2,2.2c-0.1,0.1-2.5-1.9-2.5-1.8c-0.1,0.1,2.3,2.2,2.2,2.2
		c-0.1,0.1-2.6-2-2.5-1.8c0,0.2,2.8,2.7,2.8,2.8c-0.1,0.1-3.1-2.4-3.2-2.3c-0.1,0.1,3,2.8,2.8,2.8c-0.2,0-3.8-3-3.8-2.8
		c0,0.2,3.9,3.7,3.9,3.9c0,0.2-3.8-3-3.8-2.8c0,0.2,4,3.8,3.9,3.9c-0.1,0.1-4.5-3.4-4.5-3.2c0,0.2,4.6,4.3,4.5,4.4
		c-0.1,0.1-5.1-3.9-5.1-3.7c0,0.2,5.1,4.9,5,5c-0.1,0.1-5.8-4.5-5.7-4.2c0.1,0.3,6.4,6,6.1,6.1c-0.3,0.1-7.6-5.8-7.6-5.6
		c-0.1,0.3,7.3,6.9,7.2,7.2c-0.1,0.3-7.7-5.9-7.6-5.6c0,0.4,8,7.6,7.8,7.8c-0.2,0.2-8.9-6.9-8.9-6.5c0,0.4,9,8.6,8.9,8.9
		c-0.1,0.3-9.5-7.4-9.5-6.9c0,0.4,9.7,9.2,9.5,9.4c-0.2,0.3-10.9-8.4-10.8-7.9c0.1,0.5,11.4,10.8,11.1,11.1
		c-0.3,0.3-12.7-9.8-12.7-9.2c0,0.6,13.1,12.4,12.8,12.8c-0.3,0.4-14.6-11.3-14.6-10.6c0,0.6,14.8,14,14.5,14.5
		c-0.4,0.4-16.6-12.8-16.5-12c0,0.8,17.1,16.2,16.7,16.7c-0.4,0.5-19.1-14.7-19.1-13.9c0,0.8,19.4,18.4,18.9,18.9
		c-0.4,0.5-21.6-16.7-21.6-15.7c0,1,22.1,21,21.7,21.7c-0.4,0.7-24.1-18.6-24.2-17.6c0,1.1,24.5,23.2,23.9,23.9
		c-0.6,0.7-27.4-21.2-27.4-19.9c0.1,1.3,28.5,27,27.8,27.8c-0.7,0.8-31.5-24.3-31.8-23.1c-0.3,1.1,30.6,29.1,30,30
		c-0.6,0.9-32.2-24.5-33.7-24.5c-1.5,0,25.1,23.8,24.5,24.5c-0.6,0.7-26.7-20.3-28-20.3c-1.3-0.1,20.5,19.4,20,20
		c-0.5,0.6-21.9-16.6-22.9-16.6c-1,0,17,16.1,16.7,16.7c-0.3,0.6-17.6-13.4-18.5-13.4c-0.8,0,13.8,13,13.3,13.3
		c-0.4,0.3-15.2-11.6-15.9-11.6c-0.7,0,12,11.3,11.7,11.7c-0.3,0.3-12.8-9.8-13.4-9.7c-0.6,0.1,10.2,9.7,10,10
		c-0.2,0.3-10.9-8.3-11.5-8.3c-0.5,0,8.4,8,8.3,8.3c-0.1,0.3-8.4-6.4-8.9-6.5c-0.5-0.1,6.3,5.9,6.1,6.1c-0.1,0.2-6.7-5.1-7-5.1
		c-0.3,0,5.1,4.9,5,5c-0.1,0.1-5.5-4.2-5.7-4.2c-0.2,0,4.6,4.3,4.4,4.4c-0.1,0.1-4.9-3.7-5.1-3.7c-0.2,0,3.9,3.7,3.9,3.9
		c0,0.2-3.6-2.8-3.8-2.8c-0.2,0,2.9,2.8,2.8,2.8c-0.2,0-3.6-2.8-3.8-2.8c-0.2,0,2.8,2.7,2.8,2.8c-0.1,0.1-3-2.3-3.2-2.3
		c-0.2,0,2.3,2.2,2.2,2.2c-0.1,0.1-2.4-1.8-2.5-1.8c-0.2,0,1.7,1.6,1.7,1.7c0,0-1.8-1.3-1.9-1.4c-0.1,0,1.1,1.1,1.1,1.1
		c0,0-1.3-1-1.3-0.9c0,0,1.1,1.1,1.1,1.1c0,0-1.2-1-1.3-0.9c0,0,1.1,1.1,1.1,1.1c0,0-1.2-0.9-1.3-0.9c-0.1-0.1,0.6,0.5,0.6,0.6
		c0,0-0.6-0.5-0.6-0.5c0,0,0.6,0.5,0.6,0.6c0,0-0.6-0.5-0.6-0.5c0,0,0.6,0.5,0.6,0.6c0,0-0.6-0.5-0.6-0.5c0,0,0.6,0.5,0.5,0.6
		c0,0-0.6-0.5-0.6-0.5c0,0,0.6,0.5,0.6,0.6c0,0-0.6-0.5-0.6-0.5c0,0,0.6,0.5,0.6,0.6c0,0-0.6-0.5-0.6-0.5c0,0,0.6,0.5,0.6,0.5
		c0,0-0.6-0.5-0.6-0.5c0,0,0.6,0.5,0.6,0.6c0,0-0.6-0.5-0.6-0.5c0,0,0.6,0.5,0.6,0.6c0,0-0.6-0.5-0.6-0.5c0,0,0.6,0.5,0.6,0.6
		c0,0-0.6-0.5-0.6-0.5c0,0,0.6,0.5,0.6,0.6c0,0-0.6-0.5-0.6-0.5c0,0,0.6,0.5,0.6,0.6c0,0-0.6-0.5-0.6-0.5c0,0,0.6,0.5,0.6,0.6
		c0,0-0.6-0.5-0.6-0.5c0,0,0.6,0.5,0.6,0.6c0,0-0.6-0.5-0.6-0.5c0,0,0.6,0.5,0.6,0.6c0,0-0.6-0.5-0.6-0.5c0,0,0.6,0.5,0.6,0.6"/>
	<path fill="none" stroke="#6D6E71" stroke-linecap="round" stroke-linejoin="round" stroke-miterlimit="10" d="M360.8,433.6
		c-0.1-0.1-0.6-0.5-0.6-0.5S360.8,433.7,360.8,433.6c-0.1,0.1-0.7-0.4-0.7-0.4c0,0,0.7,0.6,0.6,0.6c-0.1-0.1-1.2-0.9-1.3-0.9
		c-0.1-0.1,0.6,0.5,0.6,0.6c0,0-0.6-0.5-0.6-0.5c0,0,0.6,0.5,0.5,0.6c0,0-0.6-0.5-0.6-0.5c0,0,0.6,0.5,0.6,0.6c0,0-0.6-0.5-0.6-0.5
		c0,0,0.6,0.5,0.6,0.6c0,0-0.6-0.5-0.6-0.5c0,0,0.7,0.6,0.6,0.6c-0.1-0.1-1.3-1.1-1.3-0.9c0.1,0.1,1.7,1.6,1.7,1.7
		c0,0-1.9-1.4-1.9-1.4c0,0.1,1.8,1.7,1.7,1.7c-0.2,0-2.6-2-2.5-1.8c0,0.2,3,2.8,2.8,2.8c-0.2,0-3.7-2.9-3.8-2.8
		c-0.1,0.1,3.5,3.3,3.3,3.3c-0.2,0-4.5-3.4-4.5-3.2c0,0.2,4.8,4.5,4.5,4.4c-0.3,0-6.4-5-6.4-4.6c0.1,0.3,7,6.6,6.7,6.7
		c-0.4,0-8.9-6.9-8.9-6.5c0,0.4,9.4,8.9,8.9,8.9c-0.5,0-12.1-9.4-12.1-8.8c0,0.6,13.1,12.3,12.2,12.2c-0.8,0-17.1-13.2-17.2-12.5
		c-0.1,0.7,17.7,16.7,16.7,16.7c-1,0-23-17.8-22.9-16.6c0.1,1.1,24.8,23.3,23.4,23.4c-1.4,0-31.8-24.5-31.8-23.1
		c0,1.4,33.7,31.7,31.7,31.7c-2,0-43.9-33.9-43.9-31.9c0,2,44.6,42.4,43.9,43.9c-0.6,1.5-47.7-36.9-47.7-34.7
		c0,2.2,46.3,44.6,47.8,47.8c1.5,3.3-38.7-29.9-38.8-28.2c-0.1,1.7,37.2,35.8,38.4,38.4c1.2,2.6-31.2-24.1-31.2-22.6
		c0,1.4,30.3,29.1,31.1,31.1c0.8,2-26.1-20.1-26.1-18.9c0,1.2,25.3,24.3,26.1,26.1c0.9,1.8-21-16.2-21-15.3c0,1,20.5,19.7,21.1,21.1
		c0.7,1.4-17.2-13.3-17.2-12.5c0,0.8,16.8,16.1,17.2,17.2c0.4,1.1-14.6-11.3-14.6-10.6c0,0.6,14.1,13.5,14.5,14.5
		c0.4,1-12.1-9.4-12.1-8.8c0,0.6,11.8,11.4,12.2,12.2c0.4,0.9-9.5-7.4-9.5-6.9c0,0.4,9.3,8.9,9.5,9.5c0.2,0.6-8.3-6.4-8.3-6
		c0,0.4,8,7.7,8.3,8.3c0.3,0.6-6.3-4.9-6.4-4.6c0,0.3,6.1,5.8,6.1,6.1c0.1,0.3-5.8-4.5-5.7-4.2c0.1,0.3,5.8,5.6,6.1,6.1
		c0.3,0.5-4.5-3.4-4.5-3.2c0,0.2,4.2,4.1,4.4,4.5c0.2,0.4-3.2-2.5-3.2-2.3c0,0.2,3.2,3.1,3.3,3.3c0.1,0.3-2.5-1.9-2.5-1.8
		c-0.1,0.1,2.3,2.2,2.2,2.2c0,0.1-2.6-2-2.5-1.8c0,0.2,2.6,2.5,2.8,2.8c0.1,0.2-1.9-1.4-1.9-1.4c0,0,1.7,1.6,1.7,1.7
		c0,0-2-1.5-1.9-1.4c0.1,0.1,2.1,2,2.2,2.2c0.2,0.2-1.2-1-1.3-0.9c0,0,1.1,1.1,1.1,1.1c0,0-1.2-1-1.3-0.9c0,0,1,1,1.1,1.1
		c0.1,0.1-0.6-0.5-0.6-0.5c0,0,0.6,0.5,0.6,0.6c0,0-0.6-0.5-0.6-0.5c0,0,0.6,0.5,0.6,0.5c0,0-0.7-0.6-0.6-0.5c0.1,0.1,1,1,1.1,1.1
		c0.1,0.1-0.6-0.5-0.6-0.5c0,0,0.6,0.5,0.6,0.6c0,0-0.6-0.5-0.6-0.5c0,0,0.6,0.5,0.6,0.6c0,0-0.6-0.5-0.6-0.5c0,0,0.6,0.5,0.6,0.6
		c0,0-0.6-0.5-0.6-0.5c0,0,0.6,0.5,0.6,0.6c0,0-0.6-0.5-0.6-0.5c0,0,0.6,0.5,0.6,0.6c0,0-0.6-0.5-0.6-0.5c0,0,0.6,0.5,0.6,0.6"/>
	<path fill="none" stroke="#6D6E71" stroke-linecap="round" stroke-linejoin="round" stroke-miterlimit="10" d="M250.4,526.1
		c2.1,2.1,0.4,0.4,0.6,0.6c0.2,0.2,0.4,0.3,0.6,0.6c0.1,0.2,0.1,0.6,0.3,0.7c0.2,0.2,4.1-6.9,0.7,0.3c-3.4,7.2-20,30.9-21.1,43.1
		c-1.1,12.1,8.9,31.3,14.5,29.7c5.7-1.7,21.8-35.7,19.4-39.5c-2.4-3.8-36,10-33.9,16.6c2.1,6.6,38.1,19.4,46.6,22.8
		c8.5,3.5,3.8-2,4.2-2.1c0.5,0,7,12.1-1.5,1.9c-8.5-10.2-43.8-49.4-49.6-63.1c-5.7-13.7,15-17.9,15.1-19.2c0-1.2-17.6,5.6-14.8,11.7
		c2.8,6.1,26.1,20.4,31.5,24.8c5.4,4.3,0.7,0.9,1,1.2c0.3,0.3,1.5-7,0.6,0.5c-0.9,7.5-3.1,50.4-5.9,44.4c-2.8-6-6.2-66.6-10.7-80.3
		c-4.5-13.7-16-1.5-16.4-2.2c-0.4-0.7,13.6-15.6,14-1.9c0.5,13.7-8.8,74.4-11.2,84.2c-2.4,9.7-4.4-9.7-3.4-25.7
		c1-16,9.2-58.6,9.3-70.2c0.1-11.5-9,0.7-8.6,1.1c0.4,0.4,11-2.8,10.9,1.4c-0.1,4.3-15.1,8.6-11.6,24.1c3.6,15.5,25.9,60.7,33,68.8
		c7.1,8,15.3-20.5,9.9-20.6c-5.4,0-35.7,16.9-42.5,20.4c-6.8,3.5-5.8,3.9,1.4,0.7c7.2-3.2,38.6-20,41.8-20.1
		c3.3,0-15,19.8-22.3,19.9c-7.2,0.2-22.7-11.1-21.1-18.9c1.7-7.8,31-28.9,31-27.8c0,1.1-27.6,26.7-31,34.6
		c-3.3,7.8,4.5,15.4,11,12.3c6.5-3.1,29.6-26.2,27.8-31.1c-1.8-4.8-38.7,1.3-38.5,2c0.3,0.7,33.5-2.8,40,2
		c6.5,4.8-0.6,27.4-0.9,26.7c-0.3-0.7,5.6-25.3-1-30.7c-6.6-5.3-38.2-0.9-38.5-1.3c-0.3-0.4,31-6.5,36.9-1.3c6,5.3-0.7,34.1-1.1,33
		c-0.4-1.1,4.7-32.6-1.3-39.3c-6-6.7-34.3-0.8-34.6-1.2c-0.3-0.4,27.7-7.9,33-1.1c5.3,6.8-0.9,43.1-1.4,41.7
		c-0.5-1.4,3.6-41.7-1.7-50.3c-5.3-8.5-29.6-0.7-29.9-1c-0.3-0.3,23.9-9.6,28.3-1c4.4,8.6-1.1,54.2-1.8,52.7
		c-0.6-1.6,2.3-51.6-2.1-62.1c-4.4-10.5-24.2-0.6-24.4-0.8c-0.1-0.3,20.8-11.2,23.6-0.8c2.7,10.4-4,70.7-7.2,63.3
		c-3.2-7.4-9.6-89.8-12.3-107.8c-2.7-18-3.8-0.3-3.9-0.4c-0.1-0.1,3.2-3.1,3.1-0.4c-0.1,2.8-6.3-1.3-3.6,16.9
		c2.7,18.2,14.6,85.4,19.6,92.3c5.1,6.9,14-39,10.8-50.8c-3.2-11.8-27.7-15-30.1-20.1c-2.4-5.1,15.8-12.8,15.7-10.5
		c-0.1,2.3-19.8,10.7-16.2,24.2c3.6,13.5,30.1,49.7,38,56.9c7.9,7.2,15.5-9.8,9.2-13.7c-6.3-4-45.4-7-46.9-10c-1.5-3,32.5-12,37.7-8
		c5.2,3.9-2.3,41.8-6.7,31.5"/>
	<path fill="none" stroke="#6D6E71" stroke-linecap="round" stroke-linejoin="round" stroke-miterlimit="10" d="M191.3,514.2
		c-0.8,4.4-15.6,15.6-15.6,15.6S191.5,519.6,191.3,514.2c-0.2-5.4-16.7-17-16.7-16.7c0,0.4,16.1,13.2,16.6,18.9
		c0.5,5.7-13.5,14.8-13.5,15.3c0,0.6,14.7-6.9,13.6-12c-1.2-5-20.7-19.6-20.6-18.2c0.1,1.4,18.7,20.5,21,26.5c2.3,6-7.3,8.7-7.3,9.2
		c0,0.6,11-1.1,7.4-5.9c-3.6-4.8-28.1-24.4-29-23c-0.9,1.4,18.7,25.6,23.5,31.5c4.8,5.9,4.3,3.1,5,3.8c0.7,0.7-0.7,0.6-0.6,0.5
		c0-0.1,4.7,5.4,0.8-1.3c-3.8-6.7-23.9-35.6-23.9-38.8c0-3.2,21.7,14.6,23.7,19.4c2,4.8-11.6,10.3-11.6,9.5
		c0.1-0.9,12.8-8.7,12-14.6c-0.8-5.9-16.9-19.8-16.9-20.7c0-0.9,16.7,10.4,16.7,15.5c0,5.2-16.7,15.9-16.7,15.5
		c0-0.4,16.2-12.3,16.6-17.9c0.4-5.6-14.5-15.5-14.5-15.5c0.1-0.1,15.2,9.7,14.8,15.2c-0.5,5.6-17.5,18.4-17.5,18.1
		c0-0.4,16.6-14.4,17.4-20.3c0.8-5.9-12.7-14-12.8-14.9c-0.1-0.9,14.3,5,12.4,9.6c-1.9,4.7-23.7,20.4-23.6,18.3
		c0.1-2.1,20.7-25.1,24.1-31.1c3.4-6-3.8-4.7-3.9-5c-0.1-0.3,7.8-2,3.4,3.3c-4.4,5.2-28.7,28.4-29.6,28.2
		c-1-0.2,18.9-23.5,23.9-29.2c5-5.7,5.2-4.1,6.1-5c0.9-0.9-0.6-0.5-0.6-0.5c0,0,4.9-5.6,0.5,0.6c-4.4,6.2-27,35-27,36.8"/>
	<path fill="none" stroke="#6D6E71" stroke-linecap="round" stroke-linejoin="round" stroke-miterlimit="10" d="M378.1,529.6
		c-0.1-0.1-0.6-0.5-0.6-0.5S378.1,529.6,378.1,529.6c-0.1,0.1-0.7-0.4-0.7-0.4c0,0,0.7,0.6,0.6,0.6c-0.1-0.1-1.3-1-1.3-0.9
		c0.1,0.1,1.6,1.6,1.7,1.7c0.1,0.1-1.3-1-1.3-0.9c0.1,0.1,1.7,1.6,1.7,1.7c0,0-2.2-1.8-1.9-1.4c0.3,0.4,3.9,3.7,3.9,3.9
		c0,0.2-4.4-3.5-3.8-2.8c0.6,0.7,7.2,6.9,7.2,7.2c0,0.4-7.9-6.3-7-5.1c0.9,1.2,12.3,11.7,12.2,12.2c-0.1,0.5-14.9-12-12.7-9.2
		c2.1,2.7,25.6,24.4,25.6,25.6c0,1.2-29.5-23.7-25.4-18.5c4.1,5.3,50.1,47.8,50,50c0,2.3-49.2-37.8-50.3-36.5
		c-1.1,1.2,43.9,41.9,43.9,43.9c0,2-42-31.9-43.9-31.9c-1.9,0.1,32.2,30.7,32.2,32.3c0.1,1.5-30.3-23.1-31.8-23.1
		c-1.5-0.1,22.8,21.8,22.8,22.8c0,1-21.9-16.6-22.9-16.6c-1,0,16.7,15.9,16.7,16.7c0,0.8-15.8-12.1-16.5-12
		c-0.7,0,12.3,11.7,12.2,12.2c-0.1,0.5-12.1-9.2-12.7-9.2c-0.6-0.1,8.9,8.5,8.9,8.9c0,0.4-8.5-6.5-8.9-6.5c-0.4,0,6.6,6.3,6.7,6.7
		c0.1,0.3-6-4.6-6.4-4.6c-0.3,0,4.5,4.2,4.5,4.4c0,0.2-4.3-3.2-4.5-3.2c-0.2,0,3.3,3.2,3.3,3.3c0,0.2-3-2.3-3.2-2.3
		c-0.2,0,2.3,2.2,2.2,2.2c-0.1,0.1-2.5-1.9-2.5-1.8c-0.1,0.1,2.2,2.1,2.2,2.2c0,0.1-1.8-1.4-1.9-1.4c-0.1,0,1.1,1.1,1.1,1.1
		c0,0-1.2-1-1.3-0.9c0,0,1.1,1.1,1.1,1.1c0,0-1.2-1-1.3-0.9c0,0,1.1,1.1,1.1,1.1c0,0-1.2-0.9-1.3-0.9c-0.1-0.1,0.6,0.5,0.6,0.6
		c0,0-0.6-0.5-0.6-0.5c0,0,0.6,0.5,0.6,0.6c0,0-0.6-0.5-0.6-0.5c0,0,0.6,0.5,0.6,0.6c0,0-0.6-0.5-0.6-0.5c0,0,0.6,0.5,0.6,0.6
		c0,0-0.6-0.5-0.6-0.5c0,0,0.6,0.5,0.6,0.6c0,0-0.6-0.5-0.6-0.5c0,0,0.6,0.5,0.6,0.6c0,0-0.6-0.5-0.6-0.5c0,0,0.6,0.5,0.5,0.5
		c0,0-0.6-0.5-0.6-0.5c0,0,0.6,0.5,0.6,0.6c0,0-0.6-0.5-0.6-0.5c0,0,0.6,0.5,0.6,0.6s-0.6-0.5-0.6-0.5c0,0,0.6,0.5,0.6,0.6
		c0,0-0.6-0.5-0.6-0.5c0,0,0.6,0.5,0.6,0.6c0,0-0.6-0.5-0.6-0.5c0,0,0.6,0.5,0.6,0.6c0,0-0.6-0.5-0.6-0.5c0,0,0.6,0.5,0.5,0.6
		c0,0-0.6-0.5-0.6-0.5c0,0,0.6,0.5,0.6,0.6"/>
	<path fill="none" stroke="#6D6E71" stroke-linecap="round" stroke-linejoin="round" stroke-miterlimit="10" d="M624.2,432.1
		c-0.1-0.1-0.6-0.5-0.6-0.5C623.6,431.6,624.2,432.1,624.2,432.1c-0.1,0.1-0.7-0.4-0.7-0.4c0,0,0.6,0.5,0.6,0.6c0,0-0.6-0.5-0.6-0.5
		c0,0,0.6,0.5,0.6,0.6c0,0-0.6-0.5-0.6-0.5c0,0,0.6,0.5,0.5,0.6c0,0-0.6-0.5-0.6-0.5c0,0,0.6,0.5,0.6,0.6c0,0-0.6-0.5-0.6-0.5
		c0,0,0.6,0.5,0.6,0.6c0,0-0.7-0.6-0.6-0.5c0.1,0.1,1,1,1.1,1.1c0.1,0.1-0.6-0.5-0.6-0.5c0,0,0.6,0.5,0.5,0.6c0,0-0.6-0.5-0.6-0.5
		c0,0,0.6,0.5,0.6,0.6c0,0-0.6-0.5-0.6-0.5c0,0,0.6,0.5,0.6,0.6c0,0-0.6-0.5-0.6-0.5c0,0,0.6,0.5,0.6,0.6c0,0-0.6-0.5-0.6-0.5
		s0.6,0.5,0.6,0.6c0,0-0.6-0.5-0.6-0.5c0,0,0.7,0.6,0.5,0.6c-0.1-0.1-1.3-1-1.3-0.9c0.1,0.1,1.7,1.6,1.7,1.7c0,0-1.9-1.4-1.9-1.4
		c0,0.1,1.8,1.7,1.7,1.7c-0.1,0-2.6-2-2.5-1.8c0,0.2,2.9,2.8,2.8,2.8c-0.2,0-3.8-3-3.8-2.8c0,0.2,4.1,3.9,3.9,3.9
		c-0.2,0-5.1-3.9-5.1-3.7c0,0.2,5.3,5,5,5c-0.3,0-6.9-5.3-7-5.1c-0.1,0.3,7.2,6.7,6.7,6.7c-0.5,0-9.5-7.4-9.5-6.9
		c0,0.4,10,9.4,9.5,9.5c-0.5,0-12.7-9.8-12.7-9.2c0,0.6,13.6,12.8,12.8,12.8c-0.8,0-17.8-13.7-17.8-12.9c0,0.8,18.9,17.8,17.8,17.8
		c-1.1,0-24.2-18.7-24.2-17.6c0,1.1,26,24.5,24.5,24.5c-1.5,0-33.7-26-33.7-24.5c-0.1,1.5,35.4,33.3,33.4,33.4
		c-2.1,0-45.9-35.4-45.8-33.3c0.1,2.1,44,42.5,46.2,46.1c2.2,3.7-33-25.5-33.1-24c0,1.5,29.4,28.8,32.8,32.8
		c3.5,4-12.1-9.4-12.1-8.8c0,0.6,10.7,10.6,12.2,12.2c1.5,1.7-2.7-2-3.2-2.3c-0.4-0.3,0.6,0.5,0.6,0.6c0,0-0.6-0.5-0.6-0.5
		c0,0,0.6,0.5,0.6,0.6c0,0-0.6-0.5-0.6-0.5c0,0,0.6,0.5,0.6,0.6c0,0-0.6-0.5-0.6-0.5c0,0,0.6,0.5,0.6,0.6c0,0-0.6-0.5-0.6-0.5
		c0,0,0.6,0.5,0.6,0.6c0,0-0.6-0.5-0.6-0.5c0,0,0.6,0.5,0.5,0.6c0,0-0.6-0.5-0.6-0.5c0,0,0.6,0.5,0.6,0.6c0,0-0.6-0.5-0.6-0.5
		c0,0,0.6,0.5,0.6,0.6c0,0-0.6-0.5-0.6-0.5c0,0,0.6,0.5,0.6,0.6c0,0-0.6-0.5-0.6-0.5"/>
	<path fill="none" stroke="#6D6E71" stroke-linecap="round" stroke-linejoin="round" stroke-miterlimit="10" d="M483.8,466.2
		c0.2,4.6-13.4,13.4-13.4,13.4S487,473.9,483.8,466.2c-3.2-7.7-25.8-28.9-32.8-32.8c-7-3.9-9.7,9.5-9.5,9.4
		c0.3-0.1,4.1-12.9,11.1-10c7,3,28.7,20.6,31,27.8c2.3,7.2-17.1,14.9-17,15.2c0.1,0.3,20.9-6.3,17.5-13.4
		c-3.4-7.1-30.4-25.4-38-29.2c-7.7-3.8-8.1,6.3-8.1,6.2c0,0,0.2-10.6,7.9-6.5c7.7,4.2,34.7,23.9,38.3,31.4
		c3.7,7.5-16.3,14.5-16.4,13.5c-0.1-1,16.7-12.1,15.9-19.5c-0.7-7.4-14.5-23.8-20.4-24.9c-5.9-1.1-16.2,18.3-14.9,18.3
		c1.3,0,16.6-17.1,22.5-18.4c5.9-1.3,14.9,5.2,12.8,10.5c-2.1,5.2-25.6,22.7-25.6,20.9c0.1-1.8,24.9-32.9,25.9-31.6
		c1,1.3-19.9,34.4-19.9,39.3c-0.1,4.9,24-4.4,19.6-10c-4.3-5.5-37.5-18.3-45.6-23.1c-8.1-4.8-2.3-4.8-2.8-5.6
		c-0.5-0.8-0.6,0.8-0.4,0.7c0.3-0.1-6.1-4.9,2.1-1.1c8.2,3.8,43,17.9,47,23.8c4,5.9-23.1,14.4-23.1,11.8c0-2.7,20.3-21.9,23.1-27.9
		c2.8-5.9-1.6-11.2-6.5-7.9c-4.9,3.3-24.2,25.9-23.1,27.9c1.1,2,28.6-11.3,29.8-15.9c1.3-4.6-15.2-11.7-22.2-11.8
		c-7.1-0.2-17.7,10.7-20.1,10.7c-2.4,0.1-0.4-18,5.6-10.4c5.9,7.6,23.9,46.3,30,56.2c6,9.9,5.6,2.6,6.2,3.3c0.7,0.7-2.2,1.7-2.1,1.1
		c0.1-0.6,7.2,5.3,2.6-4.9c-4.6-10.2-23.6-49.4-30-56.2c-6.4-6.8-11.5,15.3-8.1,15.3c3.4,0,22.1-13.5,28.4-15.2
		c6.4-1.7,13.5,1.4,9.7,5.2c-3.8,3.8-29.1,18.2-32.6,17.4c-3.5-0.8,6.4-25,11.8-22.2c5.4,2.8,18.7,29.7,20.7,38.8
		c2,9.1-8.5,13.7-8.5,16c0,2.2,9.1-1.5,8.2-2.7c-0.9-1.2-9.4,4.4-13.5-4.3c-4.1-8.8-8.1-44.6-10.9-48.3c-2.8-3.7-10,22.2-5.9,26.1
		c4.1,3.9,31.3-1.7,30.5-2.7c-0.8-1-29.1,0.8-35.2-3.1"/>
	<path fill="none" stroke="#6D6E71" stroke-linecap="round" stroke-linejoin="round" stroke-miterlimit="10" d="M602.1,541.2
		c0,0.7-2.2,2.2-2.2,2.2c0,0,6.5,3.3,2.1-2.3c-4.4-5.7-28.3-30.6-28.3-31.7c0-1.1,24.3,20.2,28.1,25.2c3.8,5-5.3,5.1-5.3,4.7
		c0-0.3,8.3-0.8,5.4-6.8c-2.9-6-22.9-27.2-22.9-29c0-1.8,21.2,13.3,22.8,18c1.6,4.7-13,11.3-13,10.2c0-1.1,13.5-10.7,13.2-16.6
		c-0.3-6-15.1-17.9-15.1-19.1c0-1.2,15.8,7,14.8,11.7c-1,4.7-21,18.5-21,16.6c0.1-1.9,18.8-22.2,21.3-28.3c2.5-6.1-6.2-7.6-6.1-8.2
		c0-0.6,10.4,0.1,6.3,4.7c-4.1,4.7-27.3,21.8-30.8,23.2c-3.5,1.4,5-10.3,10-15c5.1-4.8,17.4-10.9,20.3-13.6c2.8-2.6-3.3-2.8-3.3-2.2
		c0,0.7,6.3-0.7,3.5,6.1c-2.8,6.8-20.1,31-20.1,34.7c0,3.7,20.3-8.1,20.2-12.3c-0.1-4.2-20.8-16.3-20.8-12.7
		c0,3.6,18,27.5,20.8,34.2c2.9,6.7-3.6,5.4-3.7,6.1c0,0.7,5.7,0.1,3.4-2.1c-2.4-2.1-12.6-5.6-17.5-10.6c-4.9-5-14.8-19.5-11.9-19.5
		c3,0,26.3,15.1,29.6,19.4c3.3,4.3-9.9,7.9-9.9,6.5c0-1.4,10.8-8.7,9.9-15.1c-0.9-6.5-15.4-21.4-15.5-23.7
		c-0.1-2.3,16.6,5.7,15.1,9.9c-1.4,4.2-23.8,19.1-23.7,15.5c0.1-3.6,20.3-30.4,24.1-36.8c3.8-6.5-1.3-1.8-1.3-2c0-0.2,3.3-1,1.2,1
		c-2.1,1.9-8.5,5.3-13.6,10.7c-5.1,5.4-19.2,22-17,21.6"/>
	<path fill="none" stroke="#6D6E71" stroke-linecap="round" stroke-linejoin="round" stroke-miterlimit="10" d="M613.9,601
		c2.9-0.8,13.6-4.9,11.1-11.1c-2.5-6.2-26.1-24.7-26.1-26.1c0-1.4,26.4,11.5,26,17.7c-0.4,6.2-20.9,18.2-28.6,19.4
		c-7.7,1.2-16.4-11.9-17.6-11.9c-1.2,0,2.8,16.4,10.5,11.7c7.7-4.7,32-30.7,35.8-39.7c3.8-9.1-13.1-13.2-13.1-14.6
		c-0.1-1.4,15.2,2.9,12.6,6.3c-2.6,3.4-20.5,6-28.1,14.1c-7.6,8.1-13.8,29.9-17.3,34.4c-3.5,4.6-5.2-7-3.5-7
		c1.6-0.1,5.2,8.6,13.4,6.7c8.2-1.9,34.8-12.5,35.8-18c1.1-5.5-27.7-17.8-29.5-14.8c-1.8,3,13.9,30.3,18.8,32.7
		c4.9,2.4,11.6-10.4,10.6-18.4c-1-7.9-16.9-26.1-16.9-29.3c0-3.2,21.9,3.7,17,9.8c-4.9,6.1-38.6,22.1-46.3,26.7
		c-7.8,4.6-0.2,0.5-0.3,0.7c-0.2,0.2-0.1-1.5-0.7,0.3c-0.6,1.8-2.4,9.6-3.1,10.6c-0.7,1-3.6-4.5-1.3-4.5c2.3,0,6.4,5.5,15.1,4.4
		c8.7-1.1,37.2-7.2,37-10.9c-0.2-3.7-33.5-13.1-38.5-11.3c-5,1.8,3,28.9,8.6,22c5.6-7,19.9-52.9,24.8-63.8c4.9-10.9,4-1.3,4.4-1.7
		c0.4-0.4-2.3-1.9-2.2-0.9c0.1,1.1,6.2-3.7,2.8,7.3c-3.3,11-17.2,53.4-22.8,58.6c-5.6,5.3-14.3-24.7-10.6-27.1
		c3.7-2.4,33.8,8.2,33,12.8c-0.8,4.6-29.6,13.2-38.1,14.8c-8.5,1.6-11.4-5.1-13.2-5.1c-1.7-0.1-0.3,8.6,2.7,4.8
		c3-3.8,7.2-19.7,15.4-27.4c8.2-7.7,30.2-14.5,33.6-18.9c3.4-4.4-13-8.9-13-7.3c-0.1,1.6,15.1,8.1,12.7,17
		c-2.4,8.9-20.5,33.4-27.2,36.6c-6.7,3.2-15-17.7-13.1-17.7c1.8,0,17.2,16.9,24,17.9c6.7,0.9,18.4-6.7,16.4-12.2
		c-2-5.6-27.8-23.2-28.4-21.1c-0.6,2,20.1,28.7,24.9,33.4c4.8,4.7,7.3,1.4,3.8-5c-3.5-6.4-24.9-30.1-24.9-33.4
		c0-3.3,28.3,7.2,24.8,13.6c-3.4,6.4-36.8,21.4-45.5,24.9c-8.7,3.5-6.2-3.8-6.9-3.8c-0.7,0-2.9,10.9,2.6,3.9
		c5.5-7,22.4-36,30.6-45.7c8.3-9.7,16.8-9.9,18.9-12.7c2.2-2.8-5.9-4.8-5.9-3.9c0,0.9,11-1.2,6.1,9.2c-4.9,10.3-28.1,46.3-35.4,52.9
		c-7.4,6.6-11.1-13.1-8.8-13.1"/>
	<path fill="none" stroke="#6D6E71" stroke-linecap="round" stroke-linejoin="round" stroke-miterlimit="10" d="M3.5,239.7
		c-0.1-0.1-0.6-0.5-0.6-0.5C2.8,239.2,3.4,239.7,3.5,239.7c-0.1,0.1-0.7-0.4-0.7-0.4c0,0,0.6,0.5,0.6,0.6c0,0-0.6-0.5-0.6-0.5
		c0,0,0.6,0.5,0.6,0.6c0,0-0.6-0.5-0.6-0.5c0,0,0.6,0.5,0.5,0.6c0,0-0.6-0.5-0.6-0.5c0,0,0.6,0.5,0.6,0.6c0,0-0.6-0.5-0.6-0.5
		c0,0,0.6,0.5,0.6,0.6c0,0-0.7-0.6-0.6-0.5c0.1,0.1,1.1,1.1,1.1,1.1c0,0-1.2-1-1.3-0.9c0,0,1.2,1.2,1.1,1.1c-0.1,0-1.9-1.4-1.9-1.4
		c0,0,1.7,1.6,1.7,1.7c0,0-2.1-1.6-1.9-1.4c0.1,0.2,2.9,2.8,2.8,2.8c-0.2,0-3.9-3.1-3.8-2.8c0.1,0.3,4.8,4.5,4.4,4.4
		c-0.3,0-6.7-5.2-6.4-4.6c0.3,0.6,8.9,8.3,8.3,8.3c-0.5,0-11.8-9.2-11.5-8.3c0.3,0.8,14.2,13.4,13.3,13.3c-0.8,0-19.2-15-18.4-13.4
		c0.7,1.6,24.2,22.8,22.8,22.8c-1.4,0-32.2-25.1-31.2-22.7c1,2.4,39.6,37.3,37.2,37.3c-2.4,0-53.4-41.7-51.5-37.4
		c1.9,4.2,66.8,62.8,62.8,62.8c-3.9,0-89.3-69.6-86.5-62.9c2.8,6.8,101.7,97.4,103.4,103.4c1.8,6-96.2-75-92.9-67.5
		c3.3,7.6,109.4,105.2,112.9,112.9c3.4,7.6-91.2-70.2-92.2-67c-1,3.2,83.7,80.4,86.2,86.2c2.5,5.7-68-51.8-71.2-51.8
		c-3.3,0,50.2,48.3,51.7,51.7c1.5,3.5-40.7-31-42.6-31c-1.9,0,30.2,29,31.1,31.1c1,2.1-24.3-18.5-25.4-18.5
		c-1.2,0,17.9,17.2,18.3,18.4c0.4,1.1-13.3-9.7-15.9-11.6c-2.6-1.8,0.6,0.5,0.6,0.6"/>
	<path fill="none" stroke="#6D6E71" stroke-linecap="round" stroke-linejoin="round" stroke-miterlimit="10" d="M146.6,240.4
		c-0.1-0.1-0.6-0.5-0.6-0.5S146.5,240.5,146.6,240.4c-0.1,0.1-0.7-0.4-0.7-0.4c0,0,0.7,0.6,0.6,0.6c-0.1-0.1-1.3-1-1.3-0.9
		c0,0,1.1,1.1,1.1,1.1c0,0-1.2-1-1.3-0.9c0,0,1.1,1.1,1.1,1.1c0,0-1.3-1.1-1.3-0.9c0.1,0.1,1.8,1.7,1.7,1.7c-0.1,0-2.5-1.9-2.5-1.8
		c-0.1,0.1,2.4,2.2,2.2,2.2c-0.2,0-3.2-2.5-3.2-2.3c0,0.2,3.5,3.3,3.3,3.3c-0.2,0-4.5-3.4-4.5-3.2c0,0.2,4.8,4.5,4.4,4.5
		c-0.3,0-6.3-4.9-6.4-4.6c0,0.2,6.5,6.1,6.1,6.1c-0.4,0-8.3-6.4-8.3-6c0,0.4,8.9,8.3,8.3,8.3c-0.5,0-11.5-8.9-11.4-8.3
		c0,0.6,12.4,11.7,11.7,11.7c-0.7,0-15.9-12.2-15.9-11.6c-0.1,0.7,16.6,15.6,15.6,15.6c-1,0-21.6-16.7-21.6-15.7
		c0,1,23.1,21.7,21.7,21.7c-1.4,0-29.9-23.1-29.9-21.7c0,1.4,31.9,30,30,30c-1.9,0-41.4-32-41.4-30c0.1,1.9,44.3,41.7,41.7,41.7
		c-2.6,0-57.2-44.1-57.3-41.6c-0.1,2.5,56.8,54.2,56.7,56.7c-0.1,2.5-57.3-44.2-57.3-41.6c0,2.6,57.3,54.7,57.3,57.3
		c0,2.6-57.3-44.2-57.3-41.6c0,2.6,57.3,54.7,57.3,57.3c0,2.6-57.3-44.2-57.3-41.6c0,2.6,57.3,54.7,57.3,57.3
		c0,2.6-57.3-44.2-57.3-41.6c0,2.6,57.3,54.7,57.3,57.3c0,2.6-57.3-44.2-57.3-41.6c0,2.6,57.3,54.7,57.3,57.3
		c0,2.6-57.3-44.2-57.3-41.6c0,2.6,57.3,54.7,57.3,57.3c0,2.6-57.3-44.2-57.3-41.6c0,2.6,57.3,54.7,57.3,57.3
		c0,2.6-54.8-41.8-57.3-41.6c-2.4,0.2,42.9,40.9,42.8,42.8c-0.1,1.9-41.3-31.5-43.3-31.4c-1.9,0,31.6,30.2,31.7,31.7
		c0.1,1.5-29.8-22.7-31.2-22.6c-1.4,0,22.8,21.8,22.8,22.8c0,1-21.8-16.6-22.9-16.6c-1.1-0.1,16.2,15.4,16.1,16.1
		c-0.1,0.7-15.8-12.1-16.5-12c-0.7,0,12.2,11.7,12.2,12.2c0,0.6-11.5-8.8-12.1-8.8c-0.5,0,8.9,8.5,8.9,8.9c0,0.4-8.4-6.4-8.9-6.5
		c-0.5-0.1,6,5.8,6.1,6.1c0.1,0.3-5.5-4.2-5.7-4.2c-0.2,0,4.4,4.2,4.4,4.4c0,0.2-4.3-3.3-4.5-3.2c-0.2,0,3.4,3.2,3.3,3.3
		c-0.1,0.1-3.6-2.8-3.8-2.8c-0.2,0,2.7,2.6,2.8,2.8c0,0.2-2.4-1.8-2.5-1.8c-0.1,0,1.7,1.6,1.7,1.7c0,0.1-1.9-1.4-1.9-1.4
		c0,0,1.6,1.5,1.7,1.7c0.1,0.1-1.1-0.9-1.3-0.9"/>
	<path fill="none" stroke="#6D6E71" stroke-linecap="round" stroke-linejoin="round" stroke-miterlimit="10" d="M298.9,240.4
		c-0.1-0.1-0.6-0.5-0.6-0.5C298.2,240,298.8,240.5,298.9,240.4c-0.1,0.1-0.7-0.4-0.7-0.4c0,0,0.7,0.6,0.6,0.6
		c-0.1-0.1-1.3-1-1.3-0.9c0,0,1.1,1.1,1.1,1.1c0,0-1.2-1-1.3-0.9c0,0,1.1,1.1,1.1,1.1c0,0-1.3-1.1-1.3-0.9c0.1,0.1,1.8,1.7,1.7,1.7
		c-0.1,0-2.5-1.9-2.5-1.8c-0.1,0.1,2.4,2.2,2.2,2.2c-0.2,0-3.2-2.5-3.2-2.3c0,0.2,3.5,3.3,3.3,3.3c-0.2,0-4.5-3.4-4.5-3.2
		c0,0.2,4.8,4.5,4.5,4.5c-0.3,0-6.3-4.9-6.4-4.6c0,0.2,6.5,6.1,6.1,6.1c-0.4,0-8.3-6.4-8.3-6c0,0.4,8.9,8.3,8.3,8.3
		c-0.5,0-11.5-8.9-11.4-8.3c0,0.6,12.4,11.7,11.7,11.7c-0.7,0-15.9-12.2-15.9-11.6c-0.1,0.7,16.6,15.6,15.6,15.6
		c-1,0-21.6-16.7-21.6-15.7c0,1,23.1,21.7,21.7,21.7c-1.4,0-29.9-23.1-29.9-21.7c0,1.4,31.9,30,30,30c-1.9,0-41.3-31.9-41.3-30
		c0,1.8,43.7,41.1,41.1,41.1c-2.6,0-56.6-43.7-56.6-41.1c0,2.6,56.7,54.1,56.7,56.7c0,2.6-56.6-43.7-56.6-41.1
		c0,2.6,56.7,54.1,56.7,56.7c0,2.6-56.6-43.7-56.6-41.1c0,2.6,56.7,54.1,56.7,56.7c0,2.6-56.6-43.7-56.6-41.1
		c0,2.6,56.8,54.2,56.7,56.7c-0.1,2.5-57.3-44.2-57.3-41.6c0,2.6,57.3,54.7,57.3,57.3c0,2.6-57.3-44.2-57.3-41.6
		c0,2.6,57.3,54.7,57.3,57.3c0,2.6-57.3-44.2-57.3-41.6c0,2.6,57.3,54.7,57.3,57.3c0,2.6-57.3-44.2-57.3-41.6
		c0,2.6,57.3,54.7,57.3,57.3c0,2.6-54.9-41.9-57.3-41.6c-2.3,0.3,43.4,41.4,43.4,43.4c0,2-41.2-31.4-43.3-31.4
		c-2,0,31.1,29.7,31.1,31.1c0,1.4-29.8-22.7-31.2-22.6c-1.4,0,22.8,21.8,22.8,22.8c0,1-21.9-16.6-22.9-16.6
		c-1,0,16.7,15.9,16.7,16.7c0,0.8-15.8-12.1-16.5-12c-0.7,0,12.2,11.7,12.2,12.2c0,0.6-11.6-8.8-12.1-8.8c-0.5,0,8.9,8.5,8.9,8.9
		c0,0.4-8.4-6.4-8.9-6.5c-0.5-0.1,6.2,5.9,6.1,6.1c0,0.3-6-4.6-6.4-4.6c-0.3,0,4.4,4.2,4.4,4.5c0,0.2-4.3-3.3-4.4-3.2
		c-0.2,0,3.3,3.2,3.3,3.3c0,0.2-3-2.3-3.2-2.3c-0.2,0,2.2,2.1,2.2,2.2c0.1,0.1-1.9-1.4-1.9-1.4c0,0,1.7,1.6,1.7,1.7
		c0,0-1.8-1.3-1.9-1.4c-0.1,0,1.1,1.1,1.1,1.1c0,0-1.2-1-1.3-0.9c0,0,1.1,1.1,1.1,1.1c0,0-1.2-0.9-1.3-0.9"/>
	<path fill="none" stroke="#6D6E71" stroke-linecap="round" stroke-linejoin="round" stroke-miterlimit="10" d="M379.4,289.2
		c-0.1-0.1-0.6-0.5-0.6-0.5C378.7,288.7,379.3,289.3,379.4,289.2c-0.1,0.1-0.7-0.4-0.7-0.4c0,0,0.6,0.5,0.6,0.6c0,0-0.7-0.6-0.6-0.5
		c0.1,0.1,1,1,1.1,1.1c0.1,0.1-0.6-0.5-0.6-0.5c0,0,0.6,0.5,0.6,0.6s-0.7-0.6-0.6-0.5c0.1,0.1,1,1,1.1,1.1c0.1,0.1-0.6-0.5-0.6-0.5
		c0,0,0.6,0.5,0.5,0.6c0,0-0.6-0.5-0.6-0.5c0,0,0.6,0.5,0.6,0.6s-0.6-0.5-0.6-0.5c0,0,0.6,0.5,0.6,0.6c0,0-0.6-0.5-0.6-0.5
		c0,0,0.6,0.5,0.6,0.6c0,0-0.6-0.5-0.6-0.5c0,0,0.6,0.5,0.6,0.6c0,0-0.6-0.5-0.6-0.5c0,0,0.6,0.5,0.6,0.6c0,0-0.8-0.7-0.6-0.5
		c0.2,0.2,1.5,1.5,1.7,1.7c0.2,0.2-0.6-0.5-0.6-0.5c0,0,0.6,0.5,0.6,0.6c0,0-0.6-0.5-0.6-0.5c0,0,0.6,0.5,0.6,0.6
		c0,0-0.6-0.5-0.6-0.5c0,0,0.6,0.5,0.6,0.6c0,0-0.8-0.7-0.6-0.5c0.2,0.2,1.7,1.6,1.7,1.7c0,0-1.9-1.4-1.9-1.4c0,0,1.6,1.5,1.7,1.7
		c0.1,0.1-1.4-1.1-1.3-0.9c0.2,0.2,2.3,2.2,2.2,2.2c-0.1,0.1-2.7-2.1-2.5-1.8c0.1,0.3,3.3,3.2,3.3,3.3c0,0.2-3.2-2.5-3.2-2.3
		c0,0.2,3.3,3.2,3.3,3.3c0,0.2-3.3-2.6-3.2-2.3c0.1,0.3,3.9,3.7,3.9,3.9c0,0.2-3.9-3-3.8-2.8c0.1,0.3,4.5,4.2,4.5,4.5
		c0,0.2-4.7-3.7-4.5-3.2c0.3,0.5,6.2,5.9,6.1,6.1c0,0.2-6.5-5.1-6.4-4.6c0.2,0.4,7.2,6.9,7.2,7.2c0,0.4-7.2-5.6-7-5.1
		c0.2,0.5,8.4,8,8.3,8.3c-0.1,0.3-9.4-7.3-8.9-6.5c0.5,0.9,11.6,11.1,11.7,11.7c0,0.6-12-9.3-11.5-8.3c0.5,1,14.5,13.8,14.5,14.5
		c0,0.6-15-11.6-14.6-10.6c0.3,1,16.7,15.9,16.7,16.7c0,0.8-17.2-13.4-16.5-12c0.7,1.4,20.5,19.6,20.6,20.6c0,1-21-16.4-20.4-14.8
		c0.7,1.6,24.5,23.4,24.5,24.5c-0.1,1.1-25.7-20-24.8-18c0.9,2,30,28.6,30,30c0,1.4-31.1-24.3-29.9-21.7
		c1.2,2.6,37.2,35.5,37.3,37.2c0.1,1.7-38.2-29.8-36.9-26.8c1.3,2.9,44.5,42.5,44.5,44.5c0,2-45.3-35.1-44.5-32.4
		c0.7,2.8,48.9,46.7,48.9,48.9c0,2.2-46.7-35.6-49-35.6c-2.2,0,35.6,34,35.6,35.6c0,1.6-34-25.9-35.6-25.9
		c-1.6,0,26.1,24.9,26.1,26.1c0,1.2-24.9-18.9-26.1-18.9c-1.2,0,18.9,18.1,18.9,18.9c0,0.8-18.2-13.9-19.1-13.9
		c-0.9,0,13.9,13.3,13.9,13.9c0,0.6-13.3-10.1-14-10.2c-0.7,0,10,9.6,10,10c0,0.4-9.7-7.4-10.2-7.4c-0.5,0,7.2,6.9,7.2,7.2
		c0,0.4-6.8-5.2-7-5.1c-0.2,0.1,5.6,5.3,5.6,5.6c0,0.2-5.4-4.1-5.7-4.2c-0.3,0,3.9,3.7,3.9,3.9c0,0.2-3.7-2.8-3.8-2.8
		s2.7,2.6,2.8,2.8c0,0.2-2.4-1.8-2.5-1.8c-0.1,0,1.7,1.6,1.7,1.7c0,0-1.9-1.4-1.9-1.4c0,0.1,1.6,1.6,1.7,1.7c0.1,0.1-1.3-1-1.3-0.9
		c0,0,1.1,1.1,1.1,1.1c0,0-1.1-0.9-1.3-0.9"/>
	<path fill="none" stroke="#6D6E71" stroke-linecap="round" stroke-linejoin="round" stroke-miterlimit="10" d="M509.9,240.4
		c-0.1-0.1-0.6-0.5-0.6-0.5S509.8,240.5,509.9,240.4c-0.1,0.1-0.7-0.4-0.7-0.4c0,0,0.6,0.5,0.6,0.6c0,0-0.6-0.5-0.6-0.5
		c0,0,0.6,0.5,0.6,0.6c0,0-0.6-0.5-0.6-0.5c0,0,0.7,0.6,0.5,0.6c-0.1-0.1-1.1-0.9-1.3-0.9c-0.1-0.1,0.6,0.5,0.6,0.6
		c0,0-0.6-0.5-0.6-0.5c0,0,0.6,0.5,0.6,0.6c0,0-0.6-0.5-0.6-0.5c0,0,0.7,0.6,0.6,0.6c-0.1-0.1-1.2-0.9-1.3-0.9
		c-0.1-0.1,0.6,0.5,0.6,0.6c0,0-0.6-0.5-0.6-0.5c0,0,0.6,0.5,0.6,0.6c0,0-0.6-0.5-0.6-0.5c0,0,0.6,0.5,0.6,0.6c0,0-0.7-0.6-0.6-0.5
		c0.1,0.1,1.2,1.2,1.1,1.1c-0.1,0-1.9-1.4-1.9-1.4c0,0,1.7,1.6,1.7,1.7c0,0-1.9-1.4-1.9-1.4c0,0,1.8,1.7,1.7,1.7
		c-0.1,0-2.6-2-2.5-1.8c0,0.2,3,2.8,2.8,2.8c-0.2,0-3.8-3-3.8-2.8c0,0.2,4.1,3.9,3.9,3.9c-0.2,0-5.1-3.9-5.1-3.7c0,0.2,5.3,5,5,5
		c-0.3,0-7-5.4-7-5.1c0,0.4,7.7,7.3,7.2,7.2c-0.5,0-10.2-7.8-10.2-7.4c0,0.4,10.6,10,10,10c-0.6,0-13.4-10.3-13.4-9.7
		c0,0.6,14.2,13.4,13.3,13.3c-0.8,0-18.4-14.2-18.4-13.4c0,0.8,19.5,18.4,18.4,18.4c-1.2,0-25.5-19.7-25.4-18.5
		c0,1.2,27.1,25.6,25.6,25.6c-1.6,0-35-27-35-25.4c0,1.6,37.3,35,35,35c-2.2,0-48.4-37.3-48.4-35.1c0,2.2,47.7,45.7,48.4,48.4
		c0.6,2.7-44.5-34.4-44.5-32.4c0,2,43.1,41.5,44.5,44.5c1.4,3-36.2-28-36.3-26.3c0,1.6,35,33.7,36.1,36.1
		c1.1,2.5-29.3-22.6-29.3-21.3c0,1.4,28.7,27.6,29.5,29.5c0.8,1.9-24.7-19.1-24.8-18c-0.1,1.1,23.7,22.8,24.5,24.5
		c0.8,1.7-19.8-15.3-19.7-14.3c0,1,19.5,18.8,20,20c0.5,1.3-17.2-13.3-17.2-12.5c0,0.8,16.7,16.1,17.2,17.2c0.5,1.2-14-10.8-14-10.2
		c0,0.6,13.5,13,13.9,13.9c0.4,0.9-11.4-8.8-11.4-8.3c-0.1,0.5,10.7,10.3,11.1,11.1c0.4,0.8-8.9-6.9-8.9-6.5c0,0.4,8.6,8.3,8.9,8.9
		c0.3,0.6-7-5.4-7-5.1c0,0.4,7.1,6.8,7.2,7.2c0.1,0.4-6.3-4.9-6.4-4.6c0,0.2,5.8,5.6,6.1,6.1c0.3,0.5-4.4-3.4-4.4-3.2
		c0,0.2,4.3,4.2,4.4,4.4c0.1,0.3-3.8-3-3.8-2.8c0,0.2,3.8,3.6,3.9,3.9c0.1,0.3-3.2-2.5-3.2-2.3c0,0.2,3.2,3.1,3.3,3.3
		c0.1,0.2-2.6-2-2.5-1.8c0,0.2,2.7,2.6,2.8,2.8c0,0.2-2.5-1.9-2.5-1.8c-0.1,0.1,2.2,2.1,2.2,2.2c0.1,0.1-2-1.5-1.9-1.4
		c0.1,0.1,2.2,2.1,2.2,2.2c0,0.1-1.9-1.4-1.9-1.4c0,0,1.6,1.5,1.7,1.7c0.1,0.1-1.2-1-1.3-0.9c0,0,1,1,1.1,1.1
		c0.1,0.1-0.6-0.5-0.6-0.5c0,0,0.6,0.5,0.6,0.6c0,0-0.7-0.6-0.6-0.5"/>
	<path fill="none" stroke="#6D6E71" stroke-linecap="round" stroke-linejoin="round" stroke-miterlimit="10" d="M771.6,240.4
		c-0.1-0.1-0.6-0.5-0.6-0.5C771,240,771.5,240.5,771.6,240.4c-0.1,0.1-0.7-0.4-0.7-0.4c0,0,0.7,0.6,0.6,0.6c-0.1-0.1-1.2-1-1.3-0.9
		c0,0,1.1,1.1,1.1,1.1c0,0-1.2-1-1.3-0.9c0,0,1.1,1.1,1.1,1.1c0,0-1.3-1.1-1.3-0.9c0.1,0.1,1.8,1.7,1.7,1.7c-0.1,0-2.5-1.9-2.5-1.8
		c-0.1,0.1,2.4,2.2,2.2,2.2c-0.2,0-3.2-2.5-3.2-2.3c0,0.2,3.5,3.3,3.3,3.3c-0.2,0-4.5-3.4-4.5-3.2c0,0.2,4.8,4.5,4.4,4.5
		c-0.3,0-6.3-4.9-6.4-4.6c0,0.2,6.5,6.1,6.1,6.1c-0.4,0-8.3-6.4-8.3-6c0,0.4,8.9,8.3,8.3,8.3c-0.5,0-11.5-8.9-11.4-8.3
		c0,0.6,12.4,11.7,11.7,11.7c-0.7,0-15.9-12.2-15.9-11.6c-0.1,0.7,16.6,15.6,15.6,15.6c-1,0-21.6-16.7-21.6-15.7
		c0,1,23.1,21.7,21.7,21.7c-1.4,0-29.9-23.1-29.9-21.7c0,1.4,31.9,30,30,30c-1.9,0-41.4-32-41.4-30c0.1,1.9,42.6,40.4,41.7,41.7
		c-0.9,1.2-47-36.3-47.1-34.2c-0.1,2.1,41.1,40.5,46.7,46.7c5.6,6.2-11.2-8.2-13.4-9.7"/>
	<path fill="none" stroke="#6D6E71" stroke-linecap="round" stroke-linejoin="round" stroke-miterlimit="10" d="M749.5,290.4
		c0.2,0.2-1.3-1-1.3-0.9c0,0,1,1,1.1,1.1c0.1,0.1-0.6-0.5-0.6-0.5c0,0,0.6,0.5,0.6,0.6c0,0-0.6-0.5-0.6-0.5c0,0,0.6,0.5,0.6,0.6
		c0,0-0.6-0.5-0.6-0.5c0,0,0.6,0.5,0.6,0.6c0,0-0.7-0.6-0.6-0.5c0.1,0.1,1.2,1.2,1.1,1.1c-0.1,0-1.9-1.4-1.9-1.4
		c0,0,1.7,1.6,1.7,1.7c-0.1,0-1.9-1.4-1.9-1.4c0,0,1.6,1.5,1.7,1.7c0.1,0.1-1.3-1.1-1.3-0.9c0.1,0.1,1.8,1.7,1.7,1.7
		c-0.1,0-2.5-1.9-2.5-1.8c-0.1,0.1,2.3,2.2,2.2,2.2c0,0.1-2.6-2-2.5-1.8c0,0.2,2.8,2.7,2.8,2.8c-0.1,0.1-3.2-2.5-3.2-2.3
		c0,0.2,3.4,3.2,3.3,3.3c-0.1,0.1-3.8-3-3.8-2.8c0,0.2,4,3.8,3.9,3.9c-0.1,0.1-4.4-3.4-4.5-3.2c0,0.2,4.6,4.3,4.4,4.4
		c-0.1,0.1-5.1-3.9-5.1-3.7c0,0.2,5.2,4.9,5,5c-0.2,0.1-6.3-4.9-6.4-4.6c0,0.2,6.2,5.9,6.1,6.1c0,0.3-6.4-5-6.4-4.6
		c0.1,0.3,6.9,6.6,6.7,6.7c-0.3,0.1-8.2-6.3-8.3-6c-0.1,0.3,8.1,7.6,7.8,7.8c-0.3,0.1-9.6-7.4-9.5-6.9c0.1,0.5,10.3,9.7,10,10
		c-0.2,0.3-11.4-8.8-11.4-8.3c-0.1,0.5,11.4,10.8,11.1,11.1c-0.3,0.3-12.7-9.8-12.7-9.2c0,0.6,13.1,12.4,12.8,12.8
		c-0.3,0.4-14.6-11.3-14.6-10.6c0,0.6,14.8,14.1,14.5,14.5c-0.3,0.4-16.6-12.8-16.6-12c0,0.8,17.2,16.3,16.7,16.7
		c-0.5,0.4-19.8-15.3-19.7-14.3c0,1,20.6,19.5,20,20c-0.6,0.5-23.5-18.1-23.5-17.1c0,1,23.9,22.7,23.4,23.4
		c-0.6,0.7-26.7-20.6-26.7-19.4c0,1.2,27.4,26,26.7,26.7c-0.8,0.7-31.2-24.1-31.2-22.6c0,1.4,27.4,27,31.1,31.1
		c3.7,4.1-7.5-5.5-8.9-6.5"/>
	<path fill="none" stroke="#6D6E71" stroke-linecap="round" stroke-linejoin="round" stroke-miterlimit="10" d="M634.1,239.7
		c-0.1-0.1-0.6-0.5-0.6-0.5C633.5,239.2,634.1,239.7,634.1,239.7c-0.1,0.1-0.7-0.4-0.7-0.4c0,0,0.6,0.5,0.6,0.6c0,0-0.6-0.5-0.6-0.5
		c0,0,0.6,0.5,0.6,0.6c0,0-0.6-0.5-0.6-0.5c0,0,0.6,0.5,0.5,0.6c0,0-0.6-0.5-0.6-0.5c0,0,0.6,0.5,0.6,0.6c0,0-0.6-0.5-0.6-0.5
		c0,0,0.6,0.5,0.6,0.6c0,0-0.6-0.5-0.6-0.5c0,0,0.6,0.5,0.6,0.6c0,0-0.6-0.5-0.6-0.5c0,0,0.6,0.5,0.6,0.6c0,0-0.6-0.5-0.6-0.5
		c0,0,0.6,0.5,0.5,0.5c0,0-0.6-0.5-0.6-0.5c0,0,0.7,0.6,0.6,0.6c-0.1-0.1-1.1-0.9-1.3-0.9c-0.1-0.1,0.6,0.5,0.6,0.6
		c0,0-0.6-0.5-0.6-0.5c0,0,0.6,0.5,0.6,0.5s-0.6-0.5-0.6-0.5c0,0,0.6,0.5,0.6,0.6c0,0-0.6-0.5-0.6-0.5c0,0,0.6,0.5,0.6,0.5
		c0,0-0.6-0.5-0.6-0.5c0,0,0.7,0.6,0.6,0.6c-0.1-0.1-1.2-1-1.3-0.9c0,0,1.1,1.1,1.1,1.1c0,0-1.3-1-1.3-0.9c0.1,0.1,1.8,1.7,1.7,1.7
		c-0.1,0-2.5-1.9-2.5-1.8c-0.1,0.1,2.3,2.2,2.2,2.2c-0.1,0.1-2.6-2-2.5-1.8c0,0.2,3,2.8,2.8,2.8c-0.2,0-3.8-3-3.8-2.8
		c0,0.2,4.2,3.9,3.9,3.9c-0.3,0-5.7-4.4-5.7-4.2c0,0.2,5.9,5.6,5.6,5.6c-0.3,0-7.7-5.9-7.6-5.5c0,0.4,8.3,7.8,7.8,7.8
		c-0.5,0-10.8-8.3-10.8-7.9c0,0.4,11.2,10.6,10.6,10.6c-0.7,0-14.6-11.3-14.6-10.6c0,0.6,15.3,14.4,14.5,14.5
		c-0.9,0-19.8-15.3-19.7-14.3c0.1,0.9,21.2,20,20,20c-1.2,0-27.3-21.1-27.4-19.9c0,1.2,29,27.2,27.2,27.2
		c-1.7,0-37.5-28.9-37.5-27.3c0,1.7,39,36.8,37.3,37.2c-1.7,0.4-47.7-36.9-47.7-34.7c0,2.2,44.3,43.1,47.8,47.8
		c3.5,4.7-22.4-16.3-26.7-19.4"/>
	<path fill="none" stroke="#6D6E71" stroke-linecap="round" stroke-linejoin="round" stroke-miterlimit="10" d="M524.8,334.8
		c-0.1-0.1-0.6-0.5-0.6-0.5C524.2,334.4,524.8,334.9,524.8,334.8c-0.1,0.1-0.7-0.4-0.7-0.4s0.6,0.5,0.6,0.6c0,0-0.7-0.6-0.6-0.5
		c0.1,0.1,1,1,1.1,1.1c0.1,0.1-0.6-0.5-0.6-0.5c0,0,0.6,0.5,0.6,0.6c0,0-0.9-0.8-0.6-0.5c0.3,0.3,2.1,2,2.2,2.2
		c0.2,0.2-1.4-1.1-1.3-0.9c0.2,0.2,2.3,2.2,2.2,2.2c-0.1,0.1-3-2.4-2.5-1.9c0.4,0.5,5,4.8,5,5c0,0.2-5.9-4.7-5.1-3.7
		c0.8,1.1,9.9,9.5,10,10c0.1,0.5-10.8-8.7-9.5-6.9c1.3,1.7,17.3,16.5,17.2,17.2c-0.1,0.7-20.4-16.3-17.8-12.9
		c2.6,3.4,33.3,31.8,33.4,33.4c0,1.5-36.4-28.8-33.1-24c3.3,4.8,52.8,50.4,52.8,52.8c0,2.4-50.4-38.4-52.8-38.4
		c-2.4,0,38.3,36.6,38.4,38.4c0,1.8-36.4-27.7-38.2-27.7c-1.7,0,27.8,26.6,27.8,27.8c0,1.2-26.7-20.3-28-20.3
		c-1.3-0.1,20.1,19.1,20,20c-0.1,0.9-19.5-14.8-20.4-14.8c-0.9,0,14.9,14.3,15,15c0.1,0.7-14-10.6-14.6-10.6
		c-0.7,0,10.6,10.1,10.6,10.6c0,0.5-10.3-7.8-10.8-7.9c-0.5,0,7.8,7.4,7.8,7.8c0,0.4-7.3-5.6-7.6-5.5c-0.3,0,5.6,5.3,5.6,5.6
		c0,0.2-5.5-4.2-5.7-4.2c-0.2,0.1,4.4,4.2,4.4,4.4c0,0.2-4.2-3.2-4.5-3.2c-0.3-0.1,2.7,2.6,2.8,2.8c0,0.2-2.5-1.9-2.5-1.8
		c-0.1,0.1,2.3,2.2,2.2,2.2c-0.1,0.1-2.4-1.8-2.5-1.8c-0.1,0,1.6,1.5,1.7,1.7c0.1,0.1-1.2-1-1.3-0.9c0,0,1.1,1.1,1.1,1.1
		c0,0-1.2-0.9-1.3-0.9"/>
	<path fill="none" stroke="#6D6E71" stroke-linecap="round" stroke-linejoin="round" stroke-miterlimit="10" d="M202.8,389.4
		c-3.2-3.2-42.8-23-39.5-39.5c3.3-16.5,59.4-46.3,59.5-59.5c0.1-13.2-55.7-14.1-59-19.5c-3.2-5.4,39.6-31.1,39.6-13.1
		c-0.1,18-34.8,96.4-40.1,120.9c-5.2,24.5,8.6,22.2,8.7,26.1c0.1,3.9-13.6,0-8.2-2.7c5.3-2.7,29.8,0.2,40.3-13.4
		c10.5-13.5,23.8-45.1,22.5-67.9c-1.3-22.9-21.4-56.1-30.1-69.2c-8.6-13.1-18-7.7-21.6-9.4c-3.7-1.7,1.6-2.6-0.3-0.7
		c-1.9,1.9-19.8-1.4-11.1,12.2c8.6,13.6,63,46.1,63,69.2c0,23.1-54.5,55.4-63,69.2c-8.5,13.8,3.7,33.4,12.2,13.4
		c8.5-20.1,40.7-113.9,38.7-133.7c-2-19.8-52.4,9.2-50.6,14.6c1.8,5.4,50.8,14.1,61.2,17.7c10.4,3.6,1.2-4.1,1.1,3.8
		c-0.1,7.8,8.5,35.6-1.9,43.2c-10.4,7.6-60.2,1.8-60.5,2.6c-0.3,0.9,59,13.5,58.9,2.6c0-11-54.6-50.9-59.1-68.5
		c-4.5-17.6,31.9-36.9,31.9-36.9c0,0-36.4,19.3-31.9,36.9c4.5,17.5,59.1,57.4,59.2,68.4c0,11-59.2-1.7-58.9-2.6
		c0.3-0.9,60.5,3,60.5-2.7c0-5.7-60.3-21.2-60.7-31.6c-0.3-10.3,58.6-40.3,58.6-30.5c0,9.8-51.8,70.1-58.8,89.3
		c-7,19.1,15.1,48.3,16.9,25.6c1.8-22.7-3.5-139.1-6.4-161.9c-2.8-22.7-16.7,2.2-10.6,25.4c6.1,23.2,47.4,98.3,47.4,114
		c0,15.7-49.7-12-47.2-19.6c2.5-7.6,54.8-9.6,62.4-26c7.7-16.3-6.1-58.3-16.6-72c-10.4-13.8-42.5-7.8-46-10.6
		c-3.5-2.7,25.3-23.2,25.3-5.8c0,17.4-23,84-25.4,110.4c-2.4,26.3,10.9,44.1,10.9,47.5c0,3.4-16.6-3.4-10.8-27
		c5.8-23.6,45.6-98.6,45.7-114.7c0.1-16.1-48.1,10.9-45.3,18c2.8,7.1,62.1,13,62.1,24.7c0,11.7-59.3,32.5-62.1,45.6
		c-2.9,13.1,45.1,36.6,45,33c-0.1-3.5-46.2-35.2-45.4-54.3c0.8-19.1,50.5-55.3,50.4-60.4c0-5-52.7,19-50.6,30.2
		c2,11.3,62.7,29,62.8,37.5c0.1,8.5-61.2,9.3-62.2,13.6c-1,4.3,56.1,18.2,56.1,12.3c0-5.9-55.5-32.6-56.3-47.9
		c-0.8-15.3,51.5-45.6,51.5-43.9c0,1.7-51.3,36.3-51.6,54"/>
	<path fill="none" stroke="#6D6E71" stroke-linecap="round" stroke-linejoin="round" stroke-miterlimit="10" d="M630,393.6
		c-5.3-5.3-91.9-81.3-106.2-106.2c-14.3-24.9,16.5-35.9,20.5-43.4c4-7.5,2.9-1.3,3.6-1.7c0.6-0.4-2.7-2.7,0.3-0.7
		c3.1,2,11-11.1,18.1,12.5c7.1,23.6,13.7,106.2,24.7,129c10.9,22.8,37.1,18.5,40.9,7.8c3.8-10.6-0.4-56.2-17.9-71.7
		c-17.5-15.6-73.2-10.9-87-21.6c-13.8-10.8-1.9-35.3,4.4-43c6.3-7.8,33.2-12.8,33.6-3.5c0.5,9.3-34.7,53.3-30.8,59.3
		c3.9,6,49.4-29.1,54.3-23c4.9,6.1-29.9,53.3-25.1,59.4c4.7,6.1,48.8-28.8,53.6-22.7c4.7,6.1-28.7,52.8-25.1,59.4
		c3.5,6.6,45.1-23.6,46.3-19.6c1.2,3.9-32,37.1-39,43.2c-6.9,6.1-6.7-5.4-2.6-6.6c4-1.2,22,10.5,26.7-0.6c4.7-11.1,13-55.3,1.4-66
		c-11.6-10.8-59.3,17.1-70.8,1.6c-11.4-15.6-4.2-103.3,2.1-95.1c6.3,8.2,23.7,118.6,35.9,144.2c12.2,25.6,34.5,21.2,37.4,9.3
		c2.9-11.9-2.8-63.9-20.2-80.9c-17.3-17-69.6-16-83.9-20.9c-14.3-4.9-1.6-7-2.1-8.4c-0.5-1.4-8.6,3.2-0.8-0.2
		c7.9-3.4,44.1-26.6,47.9-19.9c3.8,6.7-29.9,54-25,60.3c4.9,6.3,50.6-27.5,54.5-22.6c3.8,4.8-34.3,48-31.5,51.7
		c2.8,3.7,45.5-33.2,48.3-29.5c2.8,3.7-34.2,47.9-31.5,51.7c2.7,3.8,45.9-34.4,47.7-29.1c1.7,5.3-30.9,51.3-37.2,61.1
		c-6.3,9.8-1.8-2.3-0.6-2.3c1.1,0,4.8,17,7.6,2.2c2.7-14.8,18.5-76.7,8.8-90.8c-9.7-14-57.4,19.1-67.3,6.5
		c-9.9-12.6-7.7-91.2,7.9-82.2c15.6,9,88.1,124.2,85.8,136.5c-2.3,12.3-81.2-49.1-99.9-62.8c-18.7-13.7-10-16-12.1-19.3
		c-2.1-3.3-4.3,8.3-0.7-0.4c3.6-8.7,16.8-42.9,22.4-52c5.6-9.1,9.4-2.4,11.4-2.9c2-0.5,0.5,0.1,0.8,0c0.2-0.1-0.7-0.6,0.7-0.3
		c1.4,0.3,6.4,2,7.6,2.1c1.2,0.1,5.6-12.4-0.4-1.5c-6,10.9-38,60-35.4,66.6c2.5,6.6,47.1-31.6,50.7-27c3.6,4.6-32.9,50.3-29.2,54.8
		c3.7,4.6,48.1-31.5,51.4-27.3c3.3,4.2-34.5,48.8-31.5,52.6c2.9,3.9,47.9-31.3,49.2-29.5c1.4,1.8-40.9,40.3-41,40.2
		c-0.1-0.2,40.7-40.3,40.2-41c-0.5-0.8-42.4,37.8-43.3,36.4c-1-1.4,38.5-43.3,37.5-44.5c-1.1-1.3-42.9,38.2-43.9,37
		c-1.1-1.3,38.4-43.2,37.5-44.5c-1-1.4-42.3,37.7-43.3,36.4c-1.1-1.2,38-42.7,36.9-43.9"/>
	<path fill="none" stroke="#6D6E71" stroke-linecap="round" stroke-linejoin="round" stroke-miterlimit="10" d="M707.8,248.2
		c-9.1,9.8-56.7,37.8-56.7,56.7c0,18.9,55,39.6,56.7,56.7c1.8,17.1-36.7,40.2-46.2,46.2c-9.4,5.9-18.3,0.6-10.6-10.6
		c7.7-11.2,56.7-37.8,56.7-56.7c0-18.9-54.6-39.9-56.7-56.7c-2.1-16.8,34.5-38.7,43.9-43.9c9.4-5.2,20.1,1.2,12.8,12.8
		c-7.3,11.6-56.7,37.8-56.7,56.7c0,18.9,54.2,40.3,56.7,56.7c2.5,16.4-32.2,37.3-41.7,41.7c-9.5,4.4-22-3.1-15-15
		c7-11.9,56.7-37.8,56.7-56.7c0-18.9-53.8-40.7-56.7-56.7c-2.9-16,30-35.8,39.5-39.5c9.5-3.7,23.8,4.9,17.2,17.2
		c-6.6,12.3-56.7,37.8-56.7,56.7c0,18.9,53.5,41,56.7,56.7c3.2,15.7-27.8,34.3-37.3,37.3c-9.5,3-25.7-6.8-19.5-19.5
		c6.2-12.7,56.7-37.8,56.7-56.7c0-18.9-53.1-41.4-56.7-56.7c-3.6-15.3,25.6-32.8,35-35c9.4-2.2,27.5,8.6,21.7,21.7
		c-5.8,13.1-56.7,37.8-56.7,56.7s52.7,41.8,56.7,56.7c4,14.9-23.4,31.3-32.8,32.8c-9.5,1.5-29.4-10.5-23.9-23.9
		c5.5-13.4,56.7-37.8,56.7-56.7c0-18.9-52.4-42.2-56.7-56.7c-4.3-14.5,21.1-29.8,30.6-30.6c9.4-0.7,31.2,12.3,26.1,26.1
		c-5.1,13.8-56.7,37.8-56.7,56.7c0,18.9,52,42.5,56.7,56.7c4.7,14.2-18.9,28.4-28.4,28.4c-9.5,0-33.1-14.2-28.4-28.4
		c4.7-14.2,56.7-37.8,56.7-56.7c0-18.9-51.6-42.9-56.7-56.7c-5.1-13.8,16.7-26.9,26.1-26.1c9.5,0.7,34.9,16,30.6,30.6
		c-4.4,14.6-56.7,37.8-56.7,56.7c0,18.9,51.3,43.3,56.7,56.7c5.5,13.4-14.5,25.4-23.9,23.9c-9.4-1.5-36.8-17.9-32.8-32.8
		c4-14.9,56.7-37.8,56.7-56.7s-50.9-43.6-56.7-56.7c-5.8-13.1,12.2-23.9,21.7-21.7c9.4,2.2,38.6,19.7,35,35
		c-3.6,15.3-56.7,37.8-56.7,56.7c0,18.9,50.5,44,56.7,56.7c6.2,12.7-10,22.4-19.5,19.5c-9.5-3-40.5-21.6-37.3-37.3
		c3.2-15.7,56.7-37.8,56.7-56.7c0-18.9-50.1-44.4-56.7-56.7c-6.6-12.3,7.8-20.9,17.2-17.2c9.5,3.7,42.4,23.4,39.5,39.5
		c-2.9,16-56.7,37.8-56.7,56.7c0,18.9,49.8,44.8,56.7,56.7c6.9,12-5.6,19.5-15,15c-9.5-4.5-44.2-25.3-41.7-41.7
		c2.5-16.4,56.7-37.8,56.7-56.7"/>
	<path fill="none" stroke="#6D6E71" stroke-linecap="round" stroke-linejoin="round" stroke-miterlimit="10" d="M460.3,285.3
		c3.9,3.9,0.4,0.3,0.6,0.6c0.1,0.2,0.2,0.5,0.4,0.7c0.2,0.2,5.3-13.6,0.7,0.4c-4.6,14-36,64.5-28.3,83.4c7.7,18.9,65.2,23.7,74.4,30
		c9.2,6.3-8,9.5-19,7.6c-10.9-1.9-28.9,9.1-46.7-18.8c-17.8-27.9-49.5-125.2-59.9-148.8c-10.5-23.6-2.5,6-2.9,7.3
		c-0.4,1.3-12.8-4.6,0.3,0.7c13.1,5.4,64.8,25.6,78.1,31.4c13.2,5.8,1.1,3,1.5,3.6c0.4,0.7,4.3-15.6,0.7,0.3
		c-3.6,15.9-28.9,79.9-22.4,94.9c6.5,15,54.8-9.5,61.2-4.6c6.3,4.8-7.8,44.8-23.3,33.6c-15.5-11.2-58.1-84-69.8-100.9
		c-11.7-16.9-0.4-0.3-0.6-0.5c-0.2-0.2-0.4-0.4-0.5-0.6c-0.1-0.2-0.1-0.6-0.2-0.7c-0.2-0.2-6.9,10.4-0.8-0.3
		c6.2-10.6,33.7-52.7,37.8-63.5c4.1-10.8-3-2-13.3-1.4c-10.3,0.6-51.5,3-48.5,5c3,2,55.8-17.6,66.5,6.9
		c10.7,24.5-12.4,116.8-2.5,140c9.9,23.1,53.1-3.8,62.1-1.1c9,2.7,6.4,42.1-8,17.1c-14.4-25.1-61.5-147.3-78.3-167.4
		c-16.7-20.1-27,43.2-22,47c5,3.8,48.7-31.8,52-24.3c3.3,7.5-36,61-32.3,69.1c3.7,8.1,52.9-24.1,54.5-20.4
		c1.6,3.8-46.4,38.8-44.8,43.1c1.7,4.3,49.3-26.2,54.7-17.3c5.4,8.9-9.7,86.7-22.3,70.5c-12.5-16.2-42.1-146.7-53-168
		c-11-21.2-24.6,26.3-12.8,40.5c11.8,14.2,69.8,37.2,83.9,45c14.1,7.7,0.5,1.1,0.7,1.4c0.2,0.3,4.5-13.1,0.7,0.4
		c-3.8,13.5-11.5,95.2-23.7,80.7c-12.1-14.5-38.9-146.3-49.1-167.5c-10.1-21.3-19.1,36.1-11.7,40c7.4,3.9,50.7-28,55.8-16.4
		c5.1,11.6-31.4,71.8-25.2,86c6.1,14.2,54.4-10.5,62.1-0.9c7.7,9.6-5.6,76.6-15.7,58.5c-10.1-18.1-34.1-151.2-44.8-167.1
		c-10.6-16-28.2,55.8-19.1,71.4c9.1,15.6,61.4,18.1,73.8,22.2c12.4,4.1,0.4,1.9,0.7,2.3c0.2,0.4,5.6-11.7,0.8,0.2
		c-4.8,11.9-13.1,87.1-29.8,71.1c-16.7-16.1-58-140.9-70.2-167.5c-12.3-26.6-2.9,6.4-3.4,8c-0.4,1.6-13.5-6.6,0.8,1.4
		c14.2,8,70.5,38.7,84.7,46.7c14.2,8,0.5,1.1,0.8,1.4c0.2,0.3,4.5-15,0.7,0.4c-3.8,15.4-28.9,79.2-23.3,92.2
		c5.5,13,53.1-17.2,56.4-14.3c3.3,3-27.3,29.6-36.8,32c-9.5,2.4-16.7-14.5-20.2-17.6c-3.4-3-0.3-0.5-0.5-0.6
		c-0.2-0.2-0.5-0.2-0.6-0.5c-0.1-0.2,0.1-0.6-0.1-0.8"/>
	<path fill="none" stroke="#6D6E71" stroke-linecap="round" stroke-linejoin="round" stroke-miterlimit="10" d="M-7.8,403
		c7.8,7.8,0.4,0.2,0.6,0.6c0.2,0.3,0.3,1.2,0.5,1.5c0.2,0.3,0.8-0.1,0.8,0.2c-0.1,0.4,7.4,15.6-1.2,2c-8.6-13.6-43.5-67.3-50.5-83.4
		c-7.1-16.1,8.1-11.9,8.1-13.5c0.1-1.6-8.5,2.2-7.7,3.9c0.8,1.7,10.4,5.1,12.6,6.4c2.2,1.3,0.5,1.1,0.7,1.4c0.2,0.3,3-6.4,0.7,0.4
		c-2.3,6.7-14.6,25.8-14.3,40c0.3,14.2,10.9,44.9,16.2,45.2c5.3,0.2,18.4-38.3,15.7-43.7c-2.7-5.4-33.9,6.9-31.8,11.4
		c2.1,4.6,36,10.6,44.4,15.9c8.4,5.4,4.8,13.8,5.8,16.3c1.1,2.5,1.6-1.5,0.5-1.5c-1.1,0,1.7,3.3-6.9,1.8
		c-8.5-1.6-43.8-7.6-44.2-11.2c-0.4-3.6,36.5-12.5,41.9-10.6c5.4,1.8-2.3,30.7-9.3,21.7c-7-9-28.5-59.9-32.5-75.9
		c-4-16,8.7-17.5,8.7-20.2c0-2.8-9.4,2.2-8.7,3.7c0.7,1.5,10.6,4,13,5.6c2.4,1.5,1.2,3,1.6,3.6c0.4,0.7,3.1-11.7,0.7,0.3
		c-2.4,12-13.1,57.7-15.3,71.5c-2.1,13.8-0.6,22,2.5,11.5c3.1-10.5,16.3-62.8,15.9-74.6c-0.4-11.8-19.1,2.5-18.5,3.9
		c0.6,1.4,16.3-6.9,22.3,4.8c6,11.7,10.8,58.4,14,65.4c3.2,6.9,11-21.3,5.1-23.8c-5.9-2.5-42.2,5.5-40.8,8.7
		c1.4,3.2,41.1,8,49.2,10.5c8.1,2.5-0.3,5.2-0.6,4.7c-0.3-0.5,7.2-5.6-0.9-7.8c-8.1-2.2-46.8-3.9-47.6-5.7c-0.8-1.8,37.4-7.4,43-5.1
		c5.6,2.3-2.3,27-9.6,19c-7.3-8.1-30.3-52.3-34-67.4c-3.7-15.1,11.7-19.2,11.7-23.2c0-4-11.6-0.6-11.8-0.8
		c-0.1-0.3,10.2-15.9,11-0.8c0.8,15.2-4.6,87.5-6.4,91.8c-1.8,4.3-4.3-47.6-4.6-65.9c-0.2-18.3,2.9-36.6,3.1-43.9
		c0.1-7.3-2.4,0.1-2.4,0.2c0,0.1,0.7-18.2,2.4,0.2c1.7,18.3,5.4,104.8,7.6,109.8c2.2,5,7.3-66.9,5.6-80c-1.7-13.2-15.8,0.7-15.7,1.1
		c0.1,0.4,12.8-12,16.5,1.1c3.7,13.1,3.8,74.3,5.4,77.7c1.6,3.4,7.6-48,4-57.3c-3.7-9.2-26.2,1.2-25.9,1.8c0.3,0.6,23-7.3,27.5,1.9
		c4.4,9.2-0.5,54.1-0.8,53.5c-0.3-0.7,3.6-47.8-0.9-57.4c-4.5-9.6-25.8-0.3-25.9-0.4c-0.1-0.1,21.1-10,25.2-0.4
		c4,9.6-0.6,59-0.9,58.2c-0.3-0.8,3.1-52.4-0.9-62.9"/>
	<path fill="none" stroke="#6D6E71" stroke-linecap="round" stroke-linejoin="round" stroke-miterlimit="10" d="M70.2,304.8
		c2.5,7.7-15.5,14.9-15.6,15.6c-0.1,0.7,17.7-5.6,15.1-11.4c-2.6-5.8-25.5-19.3-30.7-23.2c-5.2-4-0.3-0.5-0.4-0.7
		c-0.2-0.2-2.8,7.1-0.7-0.4c2.1-7.5,7.9-47.7,13.3-44.5c5.4,3.3,17.4,48.2,19.1,64c1.7,15.8-9.2,25.4-9.2,30.9c0,5.5,9,1.4,9.2,2
		c0.3,0.6-7.6,3.6-7.7,1.7c0-1.9,14.4,3.5,7.4-13c-7-16.5-41-71.8-49.3-85.9c-8.4-14.1-1.1,1.4-0.8,1.4c0.3,0-5.6-5.8,2.7-1.6
		c8.3,4.2,44.3,19.6,47.1,27c2.7,7.4-29.8,22.1-30.7,17.6c-0.9-4.5,20.2-38.6,25.4-44.3c5.2-5.7,9.3,0.8,5.9,10.2
		c-3.5,9.4-26.5,37.7-26.6,46.4c-0.1,8.7,25.2,4.2,26.1,5.9c0.9,1.8-20.7,8-20.7,4.7c0-3.3,23.5-13.3,20.9-24.5
		c-2.6-11.3-29-37.8-36.7-43.1c-7.7-5.3-15.8,9.2-9.7,11.4c6.1,2.2,46,1.3,46.4,2c0.4,0.6-36.8,4.1-44,1.9
		c-7.2-2.2,0.4-15.7,0.6-14.9c0.2,0.8-6.4,16.1,0.8,19.6c7.2,3.6,42.2,1.2,42.4,1.8c0.3,0.6-35,5.3-40.9,1.7
		c-5.9-3.5,1.5-31.9,5.5-22.9c3.9,8.9,12.3,63,18.2,76.5c6,13.4,17,3,17.6,4.2c0.6,1.2-13.8,12.3-13.8,3.3c0-9,12.4-43.3,13.7-57.4
		c1.2-14-2.7-33.1-6.4-26.8c-3.6,6.4-16.5,55-15.5,65c1,10,22.4-3.2,21.4-5.1c-1-1.9-25.9,3.5-27.5-6.6c-1.6-10,13.3-49.7,18-53.7
		c4.7-4,11,16.8,10,29.8c-1,13.1-16.1,41.3-16.2,48.5c-0.1,7.2,16.6-3.2,15.7-5.2c-1-2.1-16.4,4.9-21.6-7.3
		c-5.2-12.1-7.3-59.9-9.7-65.3c-2.4-5.4-10.1,25.5-4.9,32.7c5.2,7.2,34.9,7.4,36.3,10.5c1.4,3.1-28.1,11-28,8.1
		c0.1-3,28.6-17.2,28.6-25.8c0-8.6-21.1-24-28.6-25.8c-7.5-1.8-15.8,14.7-16.3,14.8c-0.5,0,5.7-18,13.2-14.6
		c7.5,3.4,30.3,24.8,31.6,35c1.3,10.2-23.7,24.7-23.7,26.3c0,1.6,27.6-8.5,23.8-16.8c-3.9-8.3-39.1-27.4-46.9-33.1
		c-7.8-5.6,0-0.6-0.1-0.8c-0.1-0.1-2,1.7-0.8-0.1c1.3-1.8,0.3-17.1,8.3-10.5c8,6.6,36,37.7,39.5,49.9c3.5,12.2-18.5,21.6-18.5,23.4
		c-0.1,1.8,20.8-6.5,18.2-12.4c-2.6-5.9-28-19-33.8-23c-5.8-4.1-0.6-1-0.9-1.3c-0.3-0.3-0.5-0.2-0.7-0.4c-0.1-0.2-0.1-0.6-0.2-0.8
		c-0.2-0.2-3.8,5.7-0.8-0.2c3-5.9,12.8-35,18.9-35.4c6.1-0.3,18.2,21.5,17.8,33.3c-0.4,11.8-19.9,32.9-20,37.5
		c-0.1,4.5,21.4-5.9,19.4-10.4c-2-4.5-25.6-13.1-31.2-16.7"/>
	<path fill="none" stroke="#6D6E71" stroke-linecap="round" stroke-linejoin="round" stroke-miterlimit="10" d="M772.1,355.7
		c-7.2,10-42.8,43.4-51.7,51.7c-8.9,8.3-1.7-1.7-1.7-1.7s-7.2,10,1.7,1.7C729.3,399.1,764.9,365.7,772.1,355.7c7.2-10-8.3-8-8.3-8.3
		c0-0.4,11.7,1.5,8.2,6.1c-3.5,4.6-20.2,12.4-29.1,21.5c-8.9,9.1-20.1,27.6-24.3,32.9c-4.2,5.3-1.3-1.3-0.9-1.3
		c0.3,0-6.1,4.8,2.9,1.3c9-3.5,47.2-16.6,51.2-22.3c4-5.7-25.3-15.6-27.4-11.9c-2.1,3.7,10.1,33.3,14.8,33.9
		c4.7,0.6,12.8-21,13.2-30.3c0.4-9.3-11-21.8-11-25.2c0-3.4,12.9,2.2,10.8,4.7c-2,2.5-16.2,1.5-23.1,10.1
		c-6.8,8.5-14.1,36.2-17.9,41.1c-3.8,4.9-9.6-11.5-5-11.5c4.6,0,24.9,10.5,32.6,11.6c7.7,1.1,17.8-1.6,13.3-4.8
		c-4.4-3.2-34.7-15-40-14.3c-5.3,0.8,2.1,26.3,8,18.8c5.8-7.5,21.6-52.8,26.9-63.7c5.3-11,4.6-1.6,5.1-2.1c0.5-0.5-2.2-1.7-2.2-0.9
		c0,0.8,6.3-5.3,2.4,5.8c-3.9,11.1-19.8,54.7-25.7,60.8c-6,6.2-14.3-22.4-10.1-23.9c4.2-1.5,33.2,11,35.5,15c2.3,4-14,9.4-21.7,9.2
		c-7.7-0.2-21.2-10.4-24.6-10.4c-3.4,0,1.1,14.2,4.3,10.1c3.2-4.1,7.7-27,14.7-34.8c7-7.7,25.2-8.7,27.5-11.6
		c2.3-2.9-13.8-10.3-13.8-5.8c0,4.5,12.9,23.9,13.8,32.6c0.9,8.7-4.2,22.7-8.3,19.6c-4.1-3.1-17.6-33.7-16.2-38.4
		c1.4-4.7,28.7,5.2,24.6,10.4c-4.1,5.2-40.5,16.1-49.2,20.8c-8.7,4.7-2.4,6.4-3.1,7.2c-0.7,0.8-2.1-2.2-0.9-2.2
		c1.2,0-0.5,4.1,8.3,2.4c8.8-1.7,43.4-8.8,44.6-12.7c1.3-3.9-32-12.5-37.1-10.5c-5.1,2,3.1,26.9,6.4,22.7
		c3.3-4.2,8.4-38.9,13.5-47.7"/>
	<path fill="none" stroke="#6D6E71" stroke-linecap="round" stroke-linejoin="round" stroke-miterlimit="10" d="M362.5,290.6
		c-0.4,1.1-4.4,4.3-4.5,4.5c0,0.2,7.9,0.7,4.3-3.5c-3.7-4.1-21.8-17.7-26.2-21.3c-4.5-3.7-0.2-0.3-0.5-0.6c-0.3-0.3-0.9-0.7-1.2-1
		c-0.3-0.3-0.3-0.4-0.5-0.6c-0.2-0.2-0.3-0.2-0.6-0.5c-0.3-0.3-0.7-0.9-1-1.2c-0.3-0.3-0.1,0.1-0.6-0.5c-0.5-0.6-2-2.5-2.5-3
		c-0.5-0.6-0.4-0.3-0.6-0.5c-0.2-0.2-0.3-0.4-0.5-0.6c-0.2-0.2-0.4-0.2-0.6-0.5c-0.3-0.3-0.7-1-0.9-1.3c-0.3-0.3-0.3-0.1-0.6-0.5
		c-0.3-0.4-1.1-1.5-1.4-1.9c-0.3-0.4-0.2,0-0.6-0.5c-0.4-0.5-1.5-2-1.9-2.5c-0.4-0.5-0.4-0.2-0.6-0.5c-0.3-0.3-0.7-1-0.9-1.3
		c-0.3-0.3,1.1,1.7-0.6-0.5c-1.7-2.2-7.7-10.7-9.4-12.6c-1.7-1.9-1.1,1.2-0.9,1.3c0.2,0-6.7-5.3,2.1-1.1
		c8.8,4.2,45.7,20.4,50.9,26.5c5.2,6.1-19.5,14.6-19.5,10.2c0-4.5,16-30.9,19.2-37c3.3-6,3.5-5.6,0.4,0.7
		c-3.1,6.3-19.2,32.4-19.2,37c-0.1,4.5,24.5-3.6,18.8-9.8c-5.7-6.2-44.1-23.1-53-27.6c-8.9-4.5-0.6,0.4-0.7,0.4c0,0,0.1-0.9,0.4-0.6
		c0.3,0.2-7.5-4.3,1.3,1.9c8.9,6.2,45.2,28.2,51.9,35.5c6.7,7.2-11.7,9.6-11.7,8c0.1-1.6,13.2-10,12-17.5
		c-1.2-7.6-13.5-26.8-19.1-27.9c-5.6-1.1-17.4,21.4-14.6,21.4c2.8,0,25.5-18,31.2-21.3c5.6-3.3,7.6-2.2,2.6,1.8
		c-5,4-30.3,22.4-32.5,22.2c-2.1-0.2,14.3-22.1,19.6-23.6c5.4-1.4,13.7,8.8,12.6,15.1c-1.1,6.3-19.2,21.6-19.1,22.9
		c0,1.4,21.4-8.3,19.4-14.8c-2-6.4-23.9-21.5-31.3-23.8c-7.4-2.3-12.2,10-13.1,10c-0.9,0,0.2-16.4,7.6-10
		c7.4,6.4,31.4,39.1,36.7,48.2c5.3,9.1-4.8,5.7-4.8,6.3c0,0.6,6.8-0.6,4.7-2.9c-2.1-2.3-10.4-2.2-17.4-10.7
		c-7-8.5-19.8-34.7-24.7-40.2c-4.9-5.5-6.8,7.4-4.5,7.4c2.3-0.1,10.2-8.5,18.1-7.7c7.8,0.8,29.2,8.1,28.9,12.4
		c-0.2,4.2-27.1,15-30.4,13c-3.3-2.1,5.8-28.7,10.8-25.3c5.1,3.4,16.9,36.4,19.5,45.5c2.6,9.2-3.9,8.1-4,9.4
		c-0.1,1.3,4.5-0.7,3.6-1.5c-0.8-0.9-3.7,5.2-8.7-3.7c-5-8.9-16.5-44.5-21.3-49.9c-4.8-5.4-12.4,17.1-7.4,17.4
		c5,0.2,31.8-13.2,37.6-16.1c5.8-2.9,3.7-3.7-2.9-1.2c-6.6,2.4-31.9,15.8-36.9,15.8c-5,0,2.6-20.5,6.8-15.9
		c4.2,4.6,13.1,35.1,18.5,43.4c5.5,8.3,13.1,4.7,14.5,6.2c1.3,1.5-6.5,4.4-6.5,2.8c0-1.6,9.2-3.8,6.7-12.4"/>
	<path fill="none" stroke="#6D6E71" stroke-linecap="round" stroke-linejoin="round" stroke-miterlimit="10" d="M360.2,407.9
		c2.7,1.8,7.2,2.6,2.8-2.8c-4.5-5.4-29.5-29.5-29.5-29.5s25,24.1,29.5,29.5C367.4,410.5,365.6,412.4,360.2,407.9
		c-5.4-4.5-29.9-28.3-29.5-29.5c0.5-1.2,28.5,17.6,32.3,22.4c3.8,4.9-3.2,9-9.7,6.7c-6.5-2.2-26.5-20.1-29.1-20.2
		c-2.5,0,7.4,22.7,13.9,20c6.5-2.7,23-27.1,25.1-36.2c2.1-9-12.5-16.5-12.6-18.1c0-1.6,17,2.4,12.3,8.5
		c-4.7,6.1-31.9,20.6-40.7,28.2c-8.8,7.6-9.9,14.8-12.1,17.4c-2.2,2.7-1.5-1.4-0.9-1.3c0.6,0.1-4.5,4.5,4.4,1.7
		c8.9-2.8,46.2-13.5,49.3-18.6c3.1-5-27.7-14.7-30.9-11.6c-3.3,3.1,6.2,33.9,11.4,30.2c5.2-3.7,17.1-41.6,19.7-52.2
		c2.5-10.7-4.4-10.1-4.4-11.8c0-1.7,5.1,0.8,4.4,1.7c-0.7,0.8-3.7-7-8.8,3.3c-5.2,10.4-17.2,52.5-22.2,58.9c-5,6.4-13-19.6-7.8-20.6
		c5.2-1,35.2,11.2,39,14.7c3.8,3.5-8.5,7-16.2,6.1c-7.7-0.9-25.8-11.3-30.2-11.4c-4.3-0.1,1.5,14.5,4.2,11
		c2.7-3.4,4.9-24.5,11.9-31.6c7-7.2,27.8-8.5,30.2-11.4c2.3-2.9-16.2-12.2-16.2-6.1c0,6.1,13.8,34.5,16.1,42.7
		c2.3,8.2,0.7,13-2.5,6.6c-3.2-6.4-17.3-38.6-16.9-44.9c0.4-6.3,21.8,3.8,19.1,7.2c-2.7,3.4-27.9,7-35.3,13.3
		c-7.4,6.3-7.1,21.7-9.1,24.3c-2.1,2.6-6.8-8.9-3.3-8.8c3.5,0,16.3,9.1,24.3,9.1c8,0,25.8-5.1,23.5-8.9
		c-2.2-3.8-32.1-15.3-36.8-13.9c-4.7,1.5,3,30,8.6,22.8c5.6-7.2,20.2-55,24.9-66.2c4.8-11.3,3.3-1.1,3.7-1.4
		c0.4-0.3-1.5-1.1-1.5-0.6c0,0.5,5.2-7.6,1.4,3.7c-3.8,11.3-18.4,57.8-24.1,64"/>
	<path fill="none" stroke="#6D6E71" stroke-linecap="round" stroke-linejoin="round" stroke-miterlimit="10" d="M340.1,328
		c0.5,4.4-11.7,11.7-11.7,11.7S341.6,333.4,340.1,328c-1.5-5.4-20.6-21.4-20.6-20.6c0,0.8,18.8,19.6,20.9,25.6
		c2.1,6-8.5,9.8-8.4,10.4c0,0.6,11.6-2.2,8.5-7c-3-4.8-26.8-23.7-26.8-21.9c0,1.8,22.7,27,26.8,32.9c4.1,5.9-1.9,2.3-2,2.4
		c0,0.1,6.8,3.5,1.7-1.6c-5-5.1-29.3-27.2-32-29.1c-2.7-2,13.1,14.4,15.9,17.4c2.8,3.1,0.9,0.8,1.2,1.1c0.3,0.3,0.3,0.4,0.5,0.6
		c0.2,0.2,0.4,0.3,0.6,0.5c0.2,0.2,0.3,0.4,0.5,0.6c0.2,0.2,0.4,0.3,0.6,0.5c0.2,0.2,0.3,0.4,0.5,0.6c0.2,0.2,0.4,0.3,0.6,0.5
		c0.2,0.2,0.3,0.4,0.5,0.6c0.2,0.2,0.4,0.3,0.6,0.5c0.2,0.2,0.3,0.4,0.5,0.6c0.2,0.2,0.4,0.3,0.6,0.5c0.2,0.2,0.3,0.4,0.5,0.6
		c0.2,0.2,0.4,0.3,0.6,0.5c0.2,0.2,0.3,0.4,0.5,0.6c0.2,0.2,0.4,0.3,0.6,0.5c0.2,0.2,0.3,0.4,0.5,0.6c0.2,0.2,0.5,0.3,0.6,0.4
		c0.2,0.2,0.2,0.4,0.5,0.6c0.3,0.3,1,0.6,1.3,0.9c0.3,0.3,0,0.3,0.4,0.6c0.4,0.3,1.5,1,1.9,1.3c0.4,0.3,0.3,0.5,0.4,0.6
		c0.2,0.2,0.5,0.3,0.6,0.4c0.2,0.2,0.3,0.5,0.4,0.6c0.2,0.2,0.7,0.3,0.7,0.4c0,0.1-0.7,0.6-0.7,0.4c0-0.2,3.9,6.1,0.7-1.4
		c-3.3-7.5-20.3-38-20.3-43.5c0-5.5,20.5,6.9,20.2,10.6c-0.3,3.7-22.1,16.5-22.3,11.7c-0.2-4.8,17.5-33.6,21.2-40.4
		c3.6-6.8,0.7-0.2,0.7-0.4c0-0.1-0.8-0.8-0.7-0.4c0.1,0.4,4-4.7,1.2,2.9c-2.8,7.6-17.8,36.9-17.9,42.8c-0.1,5.9,19.2-4.1,17.4-7.3
		c-1.8-3.2-24.6-12.4-28.3-11.8c-3.6,0.6,1.7,11.2,6.4,15.2c4.7,4.1,19.5,7,21.8,9.1c2.3,2.1-8.1,6.2-8,3.3
		c0.1-2.8,8.8-12.8,8.5-20.3c-0.3-7.5-10.3-21.3-10.3-24.7c0-3.4,12.9,1.7,10.2,4.2c-2.8,2.6-21.8,7.9-26.8,11.2
		c-5.1,3.3-8.1,9.4-3.6,8.7c4.5-0.7,27.9-9.6,30.5-12.7c2.5-3.2-15.3-11.5-15.2-6.4"/>
</g>
</svg>
