<?xml version="1.0" encoding="utf-8"?>
<!-- Generator: Adobe Illustrator 19.1.0, SVG Export Plug-In . SVG Version: 6.00 Build 0)  -->
<svg version="1.1" id="Layer_1" xmlns="http://www.w3.org/2000/svg" xmlns:xlink="http://www.w3.org/1999/xlink" x="0px" y="0px"
	 viewBox="-43 454.1 631.6 173.9" enable-background="new -43 454.1 631.6 173.9" xml:space="preserve">
<g>
	<g>
		<path fill="#FFFFFF" d="M-34.7,606.1H-41v-4.7h17.9v4.7h-6.3v19.5h-5.3V606.1z"/>
		<path fill="#FFFFFF" d="M5.1,617.7v7.9h-5.3v-8l-10-16.2h5.8l7,11.1l6.6-11.1H15L5.1,617.7z"/>
		<path fill="#FFFFFF" d="M37.4,601.5c5.7,0,8.8,3.4,8.8,8s-3,8-8.8,8h-2.8v8.2h-5.3v-24.2H37.4z M37.7,612.7c1.2,0,3.1-0.7,3.1-3.3
			c0-2.6-1.9-3.3-3.1-3.3h-3.1v6.6H37.7z"/>
		<path fill="#FFFFFF" d="M67.2,611.2h8.6v4.6h-8.6v5.2h10.2v4.7H61.8v-24.2h15.6v4.7H67.2V611.2z"/>
		<path fill="#FFFFFF" d="M116.4,607.2l-4.7,2.2c-0.8-1.5-2.7-3.6-6.6-3.6c-4.4,0-7.3,3.1-7.3,7.8c0,4.7,3,7.8,7.3,7.8
			c3.9,0,5.9-2.1,6.6-3.6l4.7,2.2c-1.9,3.6-5.8,6.1-11.3,6.1c-7.5,0-12.6-5.3-12.6-12.5c0-7.1,5.1-12.5,12.6-12.5
			C110.7,601.1,114.5,603.6,116.4,607.2z"/>
		<path fill="#FFFFFF" d="M130.4,613.5c0-7.1,5.2-12.5,12.8-12.5c7.7,0,12.8,5.3,12.8,12.5s-5.1,12.5-12.8,12.5
			S130.4,620.7,130.4,613.5z M150.7,613.5c0-4.7-3.1-7.8-7.5-7.8s-7.5,3.1-7.5,7.8c0,4.8,3.1,7.8,7.5,7.8S150.7,618.3,150.7,613.5z"
			/>
		<path fill="#FFFFFF" d="M177.1,625.6h-5.3v-24.2h5.3l11.5,15.4v-15.4h5.3v24.2h-5.3l-11.5-15.4V625.6z"/>
		<path fill="#FFFFFF" d="M227.6,608.4c0-5,3.4-7.3,9.1-7.3c5.1,0,8.5,2.5,8.5,7.2c0,3.6-2.2,6.1-4.9,8.5l-4.8,4.2h10.2v4.7h-18.1
			v-4.3l9.1-7.8c1.4-1.2,3.2-2.8,3.2-4.9c0-1.7-1.1-2.8-3.3-2.8s-3.6,0.8-3.6,2.7h-5.4V608.4z"/>
		<path fill="#FFFFFF" d="M260.6,613.5c0-7.1,3.5-12.5,10.4-12.5s10.4,5.3,10.4,12.5S277.9,626,271,626
			C263.5,626,260.6,620.7,260.6,613.5z M276.1,613.5c0-5-1.5-8.1-5.1-8.1s-5.1,3.1-5.1,8.1s1.5,8.2,5.1,8.2
			C274.7,621.7,276.1,618.6,276.1,613.5z"/>
		<path fill="#FFFFFF" d="M301.8,607.1l-5.5,4.4v-5.7l5.5-4.4h5.3v24.2h-5.3V607.1z"/>
		<path fill="#FFFFFF" d="M340.2,601.5v4.7H330v4.2h2.9c5.4,0,8.8,3,8.8,7.7c0,4.7-3.4,8-9.1,8c-5.6,0-9.1-2.8-9.1-7.2h5.3
			c0,2,1.8,2.9,3.8,2.9c2.3,0,3.8-1.2,3.8-3.5s-1.7-3.5-3.8-3.5h-7.9v-13.2L340.2,601.5L340.2,601.5z"/>
		<path fill="#FFFFFF" d="M361.5,613c0-1.6,1.4-2.8,2.9-2.8s2.8,1.2,2.8,2.8s-1.3,2.9-2.8,2.9C362.9,615.8,361.5,614.6,361.5,613z"
			/>
		<path fill="#FFFFFF" d="M396.5,601.5c7.6,0,12.8,4.9,12.8,12.1c0,7.2-5.2,12.1-12.8,12.1h-6.9v-24.2H396.5L396.5,601.5z
			 M396.5,621c4.4,0,7.5-2.7,7.5-7.4c0-4.7-3.1-7.4-7.5-7.4h-1.6V621H396.5L396.5,621z"/>
		<path fill="#FFFFFF" d="M430.4,611.2h8.6v4.6h-8.6v5.2h10.2v4.7H425v-24.2h15.6v4.7h-10.2V611.2z"/>
		<path fill="#FFFFFF" d="M462.5,625.6h-5.3v-24.2h5.3l11.5,15.4v-15.4h5.3v24.2H474l-11.5-15.4V625.6z"/>
		<path fill="#FFFFFF" d="M513.4,601.5h5.7l-9.8,24.2h-6l-9.8-24.2h5.7l7.1,17.8L513.4,601.5z"/>
		<path fill="#FFFFFF" d="M538.5,611.2h8.6v4.6h-8.6v5.2h10.2v4.7h-15.6v-24.2h15.6v4.7h-10.2V611.2z"/>
		<path fill="#FFFFFF" d="M580.1,625.6l-6.6-8.2h-2.8v8.2h-5.3v-24.2h8.1c5.7,0,8.8,3.4,8.8,8c0,2.9-1.2,5.2-3.4,6.6l7.8,9.6
			L580.1,625.6L580.1,625.6z M570.6,612.7h3.1c1.2,0,3.2-0.7,3.2-3.3c0-2.6-1.9-3.3-3.2-3.3h-3.1V612.7z"/>
	</g>
	<g>
		
			<linearGradient id="SVGID_1_" gradientUnits="userSpaceOnUse" x1="25.1629" y1="577" x2="513.3104" y2="577" gradientTransform="matrix(1 0 0 -1 0 1084.2)">
			<stop  offset="0" style="stop-color:#FFF200"/>
			<stop  offset="1" style="stop-color:#A6CE39"/>
		</linearGradient>
		<path fill="url(#SVGID_1_)" d="M49.2,521.6h10.1v21c0,9.8-5.9,15.7-16.7,15.7s-16.7-5.9-16.7-15.7v-70.8c0-9.8,5.9-15.7,16.7-15.7
			s16.7,5.9,16.7,15.7v21H49.2v-21c0-3.6-2.4-6.2-6.6-6.2s-6.6,2.6-6.6,6.2v70.9c0,3.6,2.4,6.2,6.6,6.2s6.6-2.6,6.6-6.2V521.6z"/>
		
			<linearGradient id="SVGID_2_" gradientUnits="userSpaceOnUse" x1="25.1629" y1="576.95" x2="513.3104" y2="576.95" gradientTransform="matrix(1 0 0 -1 0 1084.2)">
			<stop  offset="0" style="stop-color:#FFF200"/>
			<stop  offset="1" style="stop-color:#A6CE39"/>
		</linearGradient>
		<path fill="url(#SVGID_2_)" d="M83.5,471.8c0-9.8,5.9-15.7,16.7-15.7s16.7,5.9,16.7,15.7v70.9c0,9.8-5.9,15.7-16.7,15.7
			s-16.7-5.9-16.7-15.7V471.8z M106.8,471.8c0-3.6-2.4-6.2-6.6-6.2s-6.6,2.6-6.6,6.2v70.9c0,3.6,2.4,6.2,6.6,6.2s6.6-2.6,6.6-6.2
			V471.8z"/>
		
			<linearGradient id="SVGID_3_" gradientUnits="userSpaceOnUse" x1="25.1629" y1="577" x2="513.3104" y2="577" gradientTransform="matrix(1 0 0 -1 0 1084.2)">
			<stop  offset="0" style="stop-color:#FFF200"/>
			<stop  offset="1" style="stop-color:#A6CE39"/>
		</linearGradient>
		<path fill="url(#SVGID_3_)" d="M176.2,456.8v100.8H165l-13.7-67c0.3,9.2,0.4,17.6,0.4,27.4v39.6h-9.1V456.8h11.2l13.7,67
			c-0.3-9.2-0.4-17.7-0.4-27.4v-39.6H176.2z"/>
		
			<linearGradient id="SVGID_4_" gradientUnits="userSpaceOnUse" x1="25.1629" y1="577" x2="513.3104" y2="577" gradientTransform="matrix(1 0 0 -1 0 1084.2)">
			<stop  offset="0" style="stop-color:#FFF200"/>
			<stop  offset="1" style="stop-color:#A6CE39"/>
		</linearGradient>
		<path fill="url(#SVGID_4_)" d="M219.8,456.8c10.8,0,16.3,5.3,16.3,15.1v70.6c0,9.6-5.5,15.1-16.3,15.1h-17.3V456.8H219.8z
			 M226,471.9c0-3.6-2-6.2-6.2-6.2h-7.2v82.8h7.2c4.2,0,6.2-2.4,6.2-6V471.9z"/>
		
			<linearGradient id="SVGID_5_" gradientUnits="userSpaceOnUse" x1="25.1629" y1="576.95" x2="513.3104" y2="576.95" gradientTransform="matrix(1 0 0 -1 0 1084.2)">
			<stop  offset="0" style="stop-color:#FFF200"/>
			<stop  offset="1" style="stop-color:#A6CE39"/>
		</linearGradient>
		<path fill="url(#SVGID_5_)" d="M272,465.8v36.7h15.3v9.1H272v37h17.9v9.1H262V456.8h27.9v8.9H272V465.8z"/>
		
			<linearGradient id="SVGID_6_" gradientUnits="userSpaceOnUse" x1="25.1629" y1="577" x2="513.3104" y2="577" gradientTransform="matrix(1 0 0 -1 0 1084.2)">
			<stop  offset="0" style="stop-color:#FFF200"/>
			<stop  offset="1" style="stop-color:#A6CE39"/>
		</linearGradient>
		<path fill="url(#SVGID_6_)" d="M346.4,456.8v100.8h-11.2l-13.7-67c0.3,9.2,0.4,17.6,0.4,27.4v39.6h-9.1V456.8H324l13.7,67
			c-0.3-9.2-0.4-17.7-0.4-27.4v-39.6H346.4z"/>
		
			<linearGradient id="SVGID_7_" gradientUnits="userSpaceOnUse" x1="25.1629" y1="576.95" x2="513.3104" y2="576.95" gradientTransform="matrix(1 0 0 -1 0 1084.2)">
			<stop  offset="0" style="stop-color:#FFF200"/>
			<stop  offset="1" style="stop-color:#A6CE39"/>
		</linearGradient>
		<path fill="url(#SVGID_7_)" d="M404.7,542.7c0,9.8-5.9,15.7-16.7,15.7s-16.7-5.9-16.7-15.7v-21h10.1v21c0,3.6,2.4,6.2,6.6,6.2
			s6.6-2.6,6.6-6.2v-12.6c0-17.9-23.3-19.9-23.3-44.2v-14.1c0-9.8,5.9-15.7,16.7-15.7s16.7,5.9,16.7,15.7v21h-10.1v-21
			c0-3.6-2.5-6.2-6.6-6.2c-4.2,0-6.6,2.6-6.6,6.2v14.1c0,17.1,23.3,20.5,23.3,44.2L404.7,542.7L404.7,542.7z"/>
		
			<linearGradient id="SVGID_8_" gradientUnits="userSpaceOnUse" x1="25.1629" y1="576.95" x2="513.3104" y2="576.95" gradientTransform="matrix(1 0 0 -1 0 1084.2)">
			<stop  offset="0" style="stop-color:#FFF200"/>
			<stop  offset="1" style="stop-color:#A6CE39"/>
		</linearGradient>
		<path fill="url(#SVGID_8_)" d="M439.7,465.8v36.7H455v9.1h-15.3v37h17.9v9.1h-27.9V456.8h27.9v8.9h-17.9V465.8z"/>
		
			<linearGradient id="SVGID_9_" gradientUnits="userSpaceOnUse" x1="25.1629" y1="577" x2="513.3104" y2="577" gradientTransform="matrix(1 0 0 -1 0 1084.2)">
			<stop  offset="0" style="stop-color:#FFF200"/>
			<stop  offset="1" style="stop-color:#A6CE39"/>
		</linearGradient>
		<path fill="url(#SVGID_9_)" d="M497.9,456.8c10.8,0,16.3,5.3,16.3,15.1v70.6c0,9.6-5.5,15.1-16.3,15.1h-17.3V456.8H497.9z
			 M504.1,471.9c0-3.6-2-6.2-6.2-6.2h-7.2v82.8h7.2c4.2,0,6.2-2.4,6.2-6V471.9z"/>
	</g>
</g>
</svg>
