<?xml version="1.0" encoding="utf-8"?>
<!-- Generator: Adobe Illustrator 19.1.0, SVG Export Plug-In . SVG Version: 6.00 Build 0)  -->
<svg version="1.1" id="Layer_1" xmlns="http://www.w3.org/2000/svg" xmlns:xlink="http://www.w3.org/1999/xlink" x="0px" y="0px"
	 viewBox="-298 525.5 122 30" enable-background="new -298 525.5 122 30" xml:space="preserve">
<g>
	<path fill="#FFFFFF" d="M-187.3,536.1c0.1-0.3,0.5-1.3,0.8-1.9c0.2,0.5,1.1,2.4,1.2,2.8l0.9,2.4c0.1,0.3,0.5,1.3,0.6,1.6
		c-0.4,0-1.7,0.1-2,0.1h-1.2c0,0-1.3,0-2.3-0.2c0.1-0.2,0.1-0.3,0.4-1L-187.3,536.1z M-184.7,533.5c-0.3-0.7-0.5-1.3-0.9-2.8h-0.4
		c-0.5,1.9-1.4,3.9-2.2,5.7l-2.1,5c-0.4,1.1-2,4.9-2.6,5.4c-0.1,0.1-0.5,0.4-1.2,0.6v0.4c0.6-0.1,1.4-0.1,2.4-0.1
		c1.3,0,2,0.1,2.6,0.2v-0.4c-1.8-0.3-2.1-0.7-2.1-1.3c0-0.3,0.1-0.7,0.6-1.9l1-2.4c0.7-0.1,1.9-0.2,2.7-0.2h1c0.7,0,1.7,0,2.5,0.1
		l1,2.6c0.1,0.2,0.6,1.6,0.6,2.1c0,0.6-0.7,0.7-1.3,0.9v0.4c0.4,0,1.5-0.1,3.1-0.1c1.1,0,1.5,0,2.1,0.1v-0.5
		c-0.5-0.1-1.1-0.2-1.4-0.6c-0.6-0.8-1.7-3.8-2.5-5.9L-184.7,533.5z"/>
	<path fill="#FFFFFF" d="M-225,533.8c0.5-1.3,0.7-1.8,4.5-1.8c1.2,0,1.9,0.1,2.5,0.1c0.3,0.8,0.3,2.1,0.3,6.9c0,2.6-0.1,5.2-0.1,5.5
		c0,0.2-0.1,1.4-0.1,1.5c0,1-0.1,1.2-1.9,1.6c-0.4,0.1-0.6,0.1-0.8,0.2c0.1,0.3,0.2,0.4,0.5,0.4c0.2,0,0.2,0,0.9-0.1
		c1.5-0.2,2.2-0.2,2.8-0.2c0.2,0,0.8,0,1.4,0.1c0.6,0,1.2,0.1,1.4,0.1c0.2,0,0.3,0,0.5,0c0-0.1,0-0.3,0-0.3c0-0.1-0.1-0.1-0.6-0.2
		c-2.1-0.3-2.1-0.3-2.1-4.8c0-0.9,0-5.2,0.1-6.2c0.1-1.9,0.1-3.2,0.2-4c0-0.5,0.2-0.5,2-0.5c3.1,0,3.7,0.4,4.1,0.7
		c0,0.5,0,0.7-0.1,1.2l0.6-0.1c0.1-0.6,0.4-1.9,0.7-2.7c-0.2-0.1-0.2-0.1-0.3-0.3c-0.2,0.3-0.3,0.4-1.1,0.4c-0.4,0-2.6,0.1-3.1,0.1
		h-6.6c-2.1,0-3.2,0-3.8-0.1c-0.6-0.1-0.8-0.2-1-0.5c-0.5,1.4-0.6,1.8-1.1,3.1L-225,533.8z"/>
	<path fill="#FFFFFF" d="M-285,534.8c0-0.3-0.1-1.3-0.1-1.7c0-0.7,0.1-1.5,0.2-2.1c-0.1,0-0.2-0.1-0.3-0.1c-0.3,0.2-0.5,0.3-0.9,0.3
		c-0.1,0-0.1,0-0.7-0.1c-1.3-0.3-2.2-0.3-2.7-0.3c-3.8,0-5.6,2.1-5.6,4.6c0,2.6,2,3.7,4.7,4.7c2.3,0.9,4.2,1.6,4.2,4.2
		c0,3-2.8,3-3.3,3c-2,0-3.6-0.7-4.4-1.1c-1-0.6-1.2-1.2-1.7-2.8c-0.2,0-0.2,0.1-0.4,0.1c0.3,1.2,0.7,2.9,0.7,4.4h0.5
		c0-0.2-0.1-0.5,0.3-0.5c0.1,0,0.2,0,0.4,0.1c2,0.5,3.5,0.5,3.8,0.5c3.9,0,5.8-2,5.8-4.4c0-3.2-2.9-4.4-5-5.2s-4-1.5-4-3.8
		c0-0.5,0.1-3.3,3.6-3.3c1.4,0,4.3,0.5,4.5,3.4L-285,534.8z"/>
	<path fill="#FFFFFF" d="M-256.8,539.7c0-2.2,1.3-3.7,3.1-3.7c2.3,0,3.9,2.5,3.9,4.9c0,2.5-1.5,4-3.3,4
		C-255.3,544.8-256.8,542.1-256.8,539.7 M-258.5,540.4c0,3.7,3.2,5,5.3,5c3.2,0,5.2-2.5,5.2-5.2c0-2.8-2.3-4.9-5.1-4.9
		C-256.1,535.3-258.5,537.3-258.5,540.4"/>
	<path fill="#6D6E71" d="M-236.6,540.3c-1.7-0.2-3-1.4-3-2.7c0-0.7,0.5-3.6,0.5-4.1c0-2.5-2-4.7-4.8-5v0.5c2.1,0.5,3,1.7,3,3
		c0,0.3-0.2,1.2-0.3,2.1c-0.1,0.9-0.3,1.8-0.3,2.1c0,2,1.4,3.7,3.8,4.5v0.1c-2.4,0.8-3.8,2.5-3.8,4.5c0,0.7,0.6,3.6,0.6,4.2
		c0,1.3-0.9,2.5-3,3v0.5c2.8-0.4,4.8-2.5,4.8-5c0-0.3-0.1-1.2-0.3-2.1c-0.1-0.9-0.3-1.7-0.3-2c0-1.4,1.3-2.5,3-2.7L-236.6,540.3
		L-236.6,540.3z"/>
	<path fill="#6D6E71" d="M-270,540.8c1.7,0.2,3,1.4,3,2.7c0,0.7-0.5,3.6-0.5,4.1c0,2.5,2,4.7,4.8,5v-0.5c-2.1-0.5-3-1.7-3-3
		c0-0.3,0.1-1.2,0.3-2.1c0.1-0.9,0.3-1.8,0.3-2.1c0-2-1.4-3.7-3.8-4.5v-0.1c2.4-0.8,3.8-2.5,3.8-4.5c0-0.7-0.6-3.6-0.6-4.2
		c0-1.3,0.9-2.5,3-3v-0.5c-2.8,0.4-4.8,2.5-4.8,5c0,0.3,0.1,1.2,0.3,2.1c0.1,0.9,0.3,1.7,0.3,2c0,1.4-1.3,2.5-3,2.7L-270,540.8
		L-270,540.8z"/>
</g>
</svg>
